<svg version="1.1" viewBox="0.0 0.0 1050.4068241469815 527.997375328084" fill="none" stroke="none" stroke-linecap="square" stroke-miterlimit="10" xmlns:xlink="http://www.w3.org/1999/xlink" xmlns="http://www.w3.org/2000/svg"><clipPath id="p.0"><path d="m0 0l1050.4069 0l0 527.9974l-1050.4069 0l0 -527.9974z" clip-rule="nonzero"/></clipPath><g clip-path="url(#p.0)"><path fill="#ffffff" d="m0 0l1050.4069 0l0 527.9974l-1050.4069 0z" fill-rule="evenodd"/><path fill="#000000" fill-opacity="0.0" d="m188.25328 87.89778l218.04726 0" fill-rule="evenodd"/><path stroke="#000000" stroke-width="2.0" stroke-linejoin="round" stroke-linecap="butt" d="m188.25328 87.89778l206.04726 0" fill-rule="evenodd"/><path fill="#000000" stroke="#000000" stroke-width="2.0" stroke-linecap="butt" d="m394.30054 91.20125l9.076172 -3.3034668l-9.076172 -3.3034668z" fill-rule="evenodd"/><path fill="#68bc00" d="m406.31366 31.046318l205.77954 0l0 113.70078l-205.77954 0z" fill-rule="evenodd"/><path stroke="#2870c2" stroke-width="2.0" stroke-linejoin="round" stroke-linecap="butt" d="m406.31366 31.046318l205.77954 0l0 113.70078l-205.77954 0z" fill-rule="evenodd"/><path fill="#ffffff" d="m458.9018 96.436714l6.90625 -16.796875l4.03125 0l6.8125 16.796875l-3.765625 0l-1.703125 -4.421875l-6.9375 0l-1.71875 4.421875l-3.625 0zm6.4375 -7.203125l4.796875 0l-2.375 -6.1875l-2.421875 6.1875zm12.521088 7.203125l0 -12.5l3.28125 0l0 0.984375q0.71875 -0.609375 1.59375 -0.921875q0.890625 -0.3125 1.921875 -0.3125q2.15625 0 3.546875 1.40625q1.390625 1.390625 1.390625 3.5625l0 7.78125l-3.28125 0l0 -7.296875q0 -1.171875 -0.71875 -1.890625q-0.703125 -0.71875 -1.875 -0.71875q-0.8125 0 -1.484375 0.328125q-0.65625 0.3125 -1.09375 0.921875l0 8.65625l-3.28125 0zm18.18509 0.21875q-2.015625 0 -3.28125 -1.0625q-1.265625 -1.078125 -1.265625 -2.78125q0 -1.78125 1.359375 -2.78125q1.375 -1.015625 3.765625 -1.015625q0.765625 0 1.53125 0.125q0.78125 0.125 1.515625 0.359375l0 -0.890625q0 -1.078125 -0.671875 -1.625q-0.671875 -0.5625 -1.96875 -0.5625q-0.78125 0 -1.71875 0.265625q-0.921875 0.25 -2.09375 0.78125l-1.203125 -2.4375q1.46875 -0.671875 2.84375 -1.0q1.390625 -0.34375 2.734375 -0.34375q2.515625 0 3.921875 1.21875q1.40625 1.21875 1.40625 3.421875l0 8.109375l-3.25 0l0 -0.859375q-0.78125 0.546875 -1.65625 0.8125q-0.875 0.265625 -1.96875 0.265625zm-1.40625 -3.921875q0 0.734375 0.625 1.15625q0.625 0.40625 1.65625 0.40625q0.8125 0 1.484375 -0.203125q0.6875 -0.203125 1.265625 -0.578125l0 -1.875q-0.59375 -0.25 -1.265625 -0.34375q-0.65625 -0.109375 -1.375 -0.109375q-1.125 0 -1.765625 0.421875q-0.625 0.40625 -0.625 1.125zm14.054321 -13.8125l0 17.515625l-3.28125 0l0 -16.796875l3.28125 -0.71875zm5.965393 18.09375l0.1875 -0.453125l-4.8750305 -12.625l3.6250305 0l3.09375 8.515625l3.546875 -8.515625l3.5625 0l-5.765625 13.484375q-0.953125 2.25 -2.234375 3.203125q-1.265625 0.96875 -3.3125 0.96875q-0.421875 0 -0.8281555 -0.03125q-0.390625 -0.03125 -0.625 -0.109375l0 -2.828125q0.234375 0.046875 0.5 0.0625q0.265625 0.03125 0.6406555 0.03125q0.890625 0 1.5 -0.4375q0.609375 -0.421875 0.984375 -1.265625zm9.969055 -0.578125l0 -2.328125l6.296875 -7.421875l-6.234375 0l0 -2.75l10.453125 0l0 2.328125l-6.328125 7.40625l6.46875 0l0 2.765625l-10.65625 0zm23.451355 -1.5625q-1.140625 0.9375 -2.359375 1.375q-1.21875 0.421875 -2.703125 0.421875q-1.40625 0 -2.65625 -0.5q-1.234375 -0.5 -2.140625 -1.359375q-0.890625 -0.875 -1.40625 -2.0625q-0.515625 -1.1875 -0.515625 -2.546875q0 -1.34375 0.484375 -2.53125q0.5 -1.1875 1.359375 -2.0625q0.875 -0.890625 2.0625 -1.390625q1.1875 -0.5 2.53125 -0.5q1.3125 0 2.453125 0.515625q1.140625 0.515625 1.96875 1.40625q0.828125 0.890625 1.296875 2.125q0.46875 1.234375 0.46875 2.671875l0 0.859375l-9.3125 0q0.34375 1.1875 1.296875 1.90625q0.953125 0.71875 2.25 0.71875q0.828125 0 1.546875 -0.265625q0.71875 -0.265625 1.21875 -0.75l2.15625 1.96875zm-5.421875 -8.453125q-1.125 0 -1.953125 0.6875q-0.8125 0.6875 -1.109375 1.84375l6.109375 0q-0.3125 -1.109375 -1.140625 -1.8125q-0.828125 -0.71875 -1.90625 -0.71875zm8.282715 10.015625l0 -12.5l3.28125 0l0 1.359375q0.609375 -0.8125 1.453125 -1.234375q0.859375 -0.421875 1.890625 -0.421875q0.484375 0.03125 0.796875 0.09375q0.328125 0.0625 0.5625 0.203125l0 2.875q-0.359375 -0.171875 -0.796875 -0.25q-0.421875 -0.078125 -0.875 -0.078125q-0.96875 0 -1.765625 0.484375q-0.796875 0.46875 -1.265625 1.375l0 8.09375l-3.28125 0z" fill-rule="nonzero"/><path fill="#e27300" d="m9.612861 346.54977l205.77954 0l0 113.700775l-205.77954 0z" fill-rule="evenodd"/><path stroke="#2870c2" stroke-width="2.0" stroke-linejoin="round" stroke-linecap="butt" d="m9.612861 346.54977l205.77954 0l0 113.700775l-205.77954 0z" fill-rule="evenodd"/><path fill="#ffffff" d="m66.738396 395.14328l7.890625 0q2.515625 0 4.09375 1.28125q1.59375 1.28125 1.59375 3.328125q0 1.09375 -0.5625 2.015625q-0.546875 0.90625 -1.5 1.515625q1.203125 0.5625 1.921875 1.5625q0.71875 1.0 0.71875 2.21875q0 2.1875 -1.625 3.53125q-1.609375 1.34375 -4.25 1.34375l-8.28125 0l0 -16.796875zm7.671875 2.875l-4.203125 0l0 3.984375l4.203125 0q1.109375 0 1.78125 -0.53125q0.671875 -0.546875 0.671875 -1.453125q0 -0.921875 -0.671875 -1.453125q-0.671875 -0.546875 -1.78125 -0.546875zm0.34375 11.046875q1.203125 0 1.921875 -0.59375q0.71875 -0.59375 0.71875 -1.59375q0 -0.96875 -0.71875 -1.5625q-0.71875 -0.59375 -1.921875 -0.59375l-4.546875 0l0 4.34375l4.546875 0zm8.349579 2.875l0 -12.5l3.28125 0l0 1.359375q0.609375 -0.8125 1.453125 -1.234375q0.859375 -0.421875 1.890625 -0.421875q0.484375 0.03125 0.796875 0.09375q0.328125 0.0625 0.5625 0.203125l0 2.875q-0.359375 -0.171875 -0.796875 -0.25q-0.421875 -0.078125 -0.875 -0.078125q-0.96875 0 -1.765625 0.484375q-0.796875 0.46875 -1.265625 1.375l0 8.09375l-3.28125 0zm8.589844 -6.234375q0 -1.375 0.515625 -2.5625q0.515625 -1.1875 1.40625 -2.0625q0.90625 -0.875 2.125 -1.375q1.234375 -0.515625 2.625 -0.515625q1.390625 0 2.609375 0.515625q1.234375 0.5 2.125 1.375q0.90625 0.875 1.421875 2.0625q0.515625 1.1875 0.515625 2.5625q0 1.359375 -0.515625 2.546875q-0.515625 1.1875 -1.421875 2.0625q-0.890625 0.859375 -2.125 1.359375q-1.21875 0.5 -2.609375 0.5q-1.390625 0 -2.625 -0.5q-1.21875 -0.5 -2.125 -1.359375q-0.890625 -0.875 -1.40625 -2.0625q-0.515625 -1.1875 -0.515625 -2.546875zm6.671875 3.625q1.4375 0 2.4375 -1.0625q1.015625 -1.0625 1.015625 -2.5625q0 -1.546875 -1.015625 -2.59375q-1.0 -1.0625 -2.4375 -1.0625q-1.4375 0 -2.453125 1.0625q-1.0 1.046875 -1.0 2.59375q0 1.5 1.0 2.5625q1.015625 1.0625 2.453125 1.0625zm13.99707 2.609375l-3.171875 0l-3.4375 -12.5l3.125 0l2.0625 8.078125l2.5 -8.078125l2.765625 0l2.46875 8.078125l2.0625 -8.078125l3.0625 0l-3.453125 12.5l-3.140625 0l-2.421875 -7.984375l-2.421875 7.984375zm11.918564 -1.484375l1.640625 -2.1875q1.09375 0.71875 2.078125 1.078125q0.9843674 0.34375 1.9687424 0.34375q1.109375 0 1.765625 -0.359375q0.671875 -0.359375 0.671875 -0.96875q0 -0.484375 -0.375 -0.765625q-0.375 -0.28125 -1.1875 -0.40625l-2.40625 -0.359375q-1.8437424 -0.296875 -2.8281174 -1.203125q-0.96875 -0.90625 -0.96875 -2.421875q0 -1.796875 1.421875 -2.875q1.421875 -1.09375 3.7968674 -1.09375q1.359375 0 2.65625 0.40625q1.296875 0.390625 2.46875 1.15625l-1.578125 2.109375q-1.03125 -0.59375 -1.96875 -0.890625q-0.9375 -0.296875 -1.890625 -0.296875q-0.890625 0 -1.4375 0.34375q-0.5312424 0.328125 -0.5312424 0.875q0 0.5 0.390625 0.78125q0.39061737 0.28125 1.3124924 0.390625l2.390625 0.359375q1.828125 0.265625 2.828125 1.203125q1.0 0.9375 1.0 2.375q0 0.890625 -0.421875 1.65625q-0.421875 0.75 -1.140625 1.296875q-0.71875 0.546875 -1.734375 0.859375q-1.0 0.3125 -2.1875 0.3125q-1.703125 0 -3.1874924 -0.4375q-1.484375 -0.4375 -2.546875 -1.28125zm24.169579 -0.078125q-1.140625 0.9375 -2.359375 1.375q-1.21875 0.421875 -2.703125 0.421875q-1.40625 0 -2.65625 -0.5q-1.234375 -0.5 -2.140625 -1.359375q-0.890625 -0.875 -1.40625 -2.0625q-0.515625 -1.1875 -0.515625 -2.546875q0 -1.34375 0.484375 -2.53125q0.5 -1.1875 1.359375 -2.0625q0.875 -0.890625 2.0625 -1.390625q1.1875 -0.5 2.53125 -0.5q1.3125 0 2.453125 0.515625q1.140625 0.515625 1.96875 1.40625q0.828125 0.890625 1.296875 2.125q0.46875 1.234375 0.46875 2.671875l0 0.859375l-9.3125 0q0.34375 1.1875 1.296875 1.90625q0.953125 0.71875 2.25 0.71875q0.828125 0 1.546875 -0.265625q0.71875 -0.265625 1.21875 -0.75l2.15625 1.96875zm-5.421875 -8.453125q-1.125 0 -1.953125 0.6875q-0.8125 0.6875 -1.109375 1.84375l6.109375 0q-0.3125 -1.109375 -1.140625 -1.8125q-0.828125 -0.71875 -1.90625 -0.71875zm8.282715 10.015625l0 -12.5l3.28125 0l0 1.359375q0.609375 -0.8125 1.453125 -1.234375q0.859375 -0.421875 1.890625 -0.421875q0.484375 0.03125 0.796875 0.09375q0.328125 0.0625 0.5625 0.203125l0 2.875q-0.359375 -0.171875 -0.796875 -0.25q-0.421875 -0.078125 -0.875 -0.078125q-0.96875 0 -1.765625 0.484375q-0.796875 0.46875 -1.265625 1.375l0 8.09375l-3.28125 0z" fill-rule="nonzero"/><path fill="#000000" fill-opacity="0.0" d="m834.5026 87.89671l-222.42517 0" fill-rule="evenodd"/><path stroke="#194d33" stroke-width="2.0" stroke-linejoin="round" stroke-linecap="butt" d="m822.5026 87.89671l-210.42517 0" fill-rule="evenodd"/><path fill="#194d33" stroke="#194d33" stroke-width="2.0" stroke-linecap="butt" d="m822.5026 91.20018l9.076172 -3.3034668l-9.076172 -3.3034668z" fill-rule="evenodd"/><path fill="#ab149e" d="m406.31366 346.54977l205.77954 0l0 113.700775l-205.77954 0z" fill-rule="evenodd"/><path stroke="#2870c2" stroke-width="2.0" stroke-linejoin="round" stroke-linecap="butt" d="m406.31366 346.54977l205.77954 0l0 113.700775l-205.77954 0z" fill-rule="evenodd"/><path fill="#ffffff" d="m488.8897 411.94016l6.90625 -16.796875l4.03125 0l6.8125 16.796875l-3.765625 0l-1.703125 -4.421875l-6.9375 0l-1.71875 4.421875l-3.625 0zm6.4375 -7.203125l4.796875 0l-2.375 -6.1875l-2.421875 6.1875zm12.739838 7.203125l0 -16.796875l8.4218445 0q1.21875 0 2.265625 0.390625q1.046875 0.390625 1.78125 1.09375q0.75 0.703125 1.171875 1.671875q0.421875 0.96875 0.421875 2.125q0 1.125 -0.421875 2.078125q-0.421875 0.9375 -1.1875 1.640625q-0.75 0.6875 -1.78125 1.078125q-1.03125 0.375 -2.25 0.375l-4.9530945 0l0 6.34375l-3.46875 0zm8.0312195 -13.796875l-4.5624695 0l0 4.578125l4.5624695 0q1.140625 0 1.8125 -0.625q0.6875 -0.625 0.6875 -1.65625q0 -1.03125 -0.6875 -1.65625q-0.671875 -0.640625 -1.8125 -0.640625zm8.312744 13.796875l0 -16.796875l3.46875 0l0 16.796875l-3.46875 0z" fill-rule="nonzero"/><path fill="#ffffff" d="m689.8018 71.89491l66.99213 0l0 32.0l-66.99213 0z" fill-rule="evenodd"/><path stroke="#ffffff" stroke-width="1.0" stroke-linejoin="round" stroke-linecap="butt" d="m689.8018 71.89491l66.99213 0l0 32.0l-66.99213 0z" fill-rule="evenodd"/><path fill="#194d33" d="m706.5694 94.614914l-1.453125 0l-2.8125 -13.0625l1.453125 0l2.21875 10.78125l3.234375 -10.78125l1.390625 0l3.234375 10.75l2.234375 -10.75l1.40625 0l-2.828125 13.0625l-1.453125 0l-3.296875 -11.0625l-3.328125 11.0625zm12.331482 0l0 -9.34375l1.390625 0l0 1.328125q0.40625 -0.734375 1.078125 -1.125q0.671875 -0.40625 1.53125 -0.40625q0.25 0 0.453125 0.03125q0.21875 0.015625 0.421875 0.09375l0 1.265625q-0.25 -0.078125 -0.5 -0.125q-0.234375 -0.046875 -0.46875 -0.046875q-0.859375 0 -1.515625 0.5q-0.65625 0.5 -1.0 1.421875l0 6.40625l-1.390625 0zm7.142517 -11.140625q-0.359375 0 -0.640625 -0.28125q-0.28125 -0.28125 -0.28125 -0.65625q0 -0.390625 0.28125 -0.65625q0.28125 -0.265625 0.640625 -0.265625q0.390625 0 0.65625 0.265625q0.28125 0.265625 0.28125 0.65625q0 0.375 -0.28125 0.65625q-0.265625 0.28125 -0.65625 0.28125zm0.703125 1.796875l0 9.34375l-1.390625 0l0 -9.34375l1.390625 0zm3.4968872 7.25l0 -6.078125l-2.015625 0l0 -1.171875l2.015625 0l0 -2.375l1.359375 -0.359375l0 2.734375l2.828125 0l0 1.171875l-2.828125 0l0 5.734375q0 0.734375 0.328125 1.0625q0.34375 0.328125 1.109375 0.328125q0.390625 0 0.703125 -0.046875q0.3125 -0.0625 0.671875 -0.1875l0 1.203125q-0.359375 0.140625 -0.796875 0.1875q-0.4375 0.0625 -0.859375 0.0625q-1.203125 0 -1.859375 -0.578125q-0.65625 -0.578125 -0.65625 -1.6875zm13.229614 1.109375q-0.78125 0.578125 -1.640625 0.875q-0.84375 0.28125 -1.84375 0.28125q-1.015625 0 -1.90625 -0.375q-0.875 -0.375 -1.515625 -1.03125q-0.640625 -0.65625 -1.015625 -1.53125q-0.375 -0.890625 -0.375 -1.921875q0 -1.0 0.359375 -1.875q0.359375 -0.875 0.96875 -1.53125q0.625 -0.65625 1.46875 -1.03125q0.859375 -0.375 1.8125 -0.375q0.921875 0 1.734375 0.375q0.8125 0.375 1.390625 1.03125q0.59375 0.65625 0.9375 1.53125q0.359375 0.875 0.359375 1.875l0 0.4375l-7.671875 0q0.140625 1.375 1.125 2.296875q1.0 0.90625 2.375 0.90625q0.734375 0 1.421875 -0.21875q0.6875 -0.234375 1.15625 -0.640625l0.859375 0.921875zm-3.734375 -7.296875q-1.203125 0 -2.09375 0.828125q-0.890625 0.8125 -1.078125 2.09375l6.25 0q-0.1875 -1.21875 -1.0625 -2.0625q-0.859375 -0.859375 -2.015625 -0.859375z" fill-rule="nonzero"/><path fill="#000000" fill-opacity="0.0" d="m921.9042 330.54977l0 -167.49606" fill-rule="evenodd"/><path stroke="#000000" stroke-width="2.0" stroke-linejoin="round" stroke-linecap="butt" d="m921.9042 318.54977l0 -155.49608" fill-rule="evenodd"/><path fill="#000000" stroke="#000000" stroke-width="2.0" stroke-linecap="butt" d="m918.6007 318.54977l3.3034668 9.076202l3.3034668 -9.076202z" fill-rule="evenodd"/><path fill="#000000" fill-opacity="0.0" d="m819.01447 403.40015l-206.92914 0" fill-rule="evenodd"/><path stroke="#000000" stroke-width="2.0" stroke-linejoin="round" stroke-linecap="butt" d="m819.01447 403.40018l-194.92914 0" fill-rule="evenodd"/><path fill="#000000" stroke="#000000" stroke-width="2.0" stroke-linecap="butt" d="m624.0853 400.0967l-9.076233 3.3034668l9.076233 3.3034668z" fill-rule="evenodd"/><path fill="#ffffff" d="m905.9026 286.13113l0 -67.02362l32.0 0l0 67.02362z" fill-rule="evenodd"/><path fill="#194d33" d="m928.62256 272.42175l-13.0625 0l0 -5.59375q0 -1.90625 1.046875 -3.078125q1.03125 -1.171875 2.703125 -1.171875q1.296875 0 2.234375 0.75q0.921875 0.75 1.28125 2.03125l5.796875 -2.9375l0 1.59375l-5.609375 2.796875l0 4.171875l5.609375 0l0 1.4375zm-11.765625 -5.5l0 4.0625l4.9375 0l0 -4.0625q0 -1.3125 -0.671875 -2.109375q-0.6875 -0.796875 -1.8125 -0.796875q-1.109375 0 -1.78125 0.796875q-0.671875 0.796875 -0.671875 2.109375zm10.78125 -13.582642q0.578125 0.78125 0.875 1.640625q0.28125 0.84375 0.28125 1.84375q0 1.015625 -0.375 1.90625q-0.375 0.875 -1.03125 1.515625q-0.65625 0.640625 -1.53125 1.015625q-0.890625 0.375 -1.921875 0.375q-1.0 0 -1.875 -0.359375q-0.875 -0.359375 -1.53125 -0.96875q-0.65625 -0.625 -1.03125 -1.46875q-0.375 -0.859375 -0.375 -1.8125q0 -0.921875 0.375 -1.734375q0.375 -0.8125 1.03125 -1.390625q0.65625 -0.59375 1.53125 -0.9375q0.875 -0.359375 1.875 -0.359375l0.4375 0l0 7.671875q1.375 -0.140625 2.296875 -1.125q0.90625 -1.0 0.90625 -2.375q0 -0.734375 -0.21875 -1.421875q-0.234375 -0.6875 -0.640625 -1.15625l0.921875 -0.859375zm-7.296875 3.734375q0 1.203125 0.828125 2.09375q0.8125 0.890625 2.09375 1.078125l0 -6.25q-1.21875 0.1875 -2.0625 1.0625q-0.859375 0.859375 -0.859375 2.015625zm8.453125 -9.185287q0 1.53125 -0.78125 2.5q-0.796875 0.953125 -2.046875 0.953125q-1.296875 0 -2.0625 -1.0q-0.78125 -1.015625 -0.78125 -2.734375q0 -0.75 0.171875 -1.4375q0.15625 -0.703125 0.453125 -1.296875l-1.21875 0q-1.125 0 -1.6875 0.640625q-0.578125 0.625 -0.578125 1.828125q0 0.703125 0.203125 1.40625q0.1875 0.6875 0.625 1.53125l-1.0625 0.515625q-0.484375 -1.0 -0.703125 -1.859375q-0.234375 -0.859375 -0.234375 -1.71875q0 -1.765625 0.84375 -2.71875q0.828125 -0.96875 2.40625 -0.96875l6.28125 0l0 1.34375l-0.921875 0q0.546875 0.625 0.828125 1.390625q0.265625 0.75 0.265625 1.625zm-2.859375 2.125q0.78125 0 1.28125 -0.65625q0.484375 -0.671875 0.484375 -1.703125q0 -0.84375 -0.25 -1.53125q-0.265625 -0.6875 -0.828125 -1.25l-1.75 0q-0.390625 0.578125 -0.5625 1.234375q-0.1875 0.65625 -0.1875 1.46875q0 1.109375 0.5 1.78125q0.5 0.65625 1.3125 0.65625zm2.6875 -16.095383l-0.984375 0q0.5625 0.59375 0.859375 1.375q0.28125 0.765625 0.28125 1.640625q0 1.0 -0.375 1.859375q-0.375 0.84375 -1.015625 1.484375q-0.65625 0.640625 -1.546875 1.0q-0.890625 0.359375 -1.90625 0.359375q-1.0 0 -1.890625 -0.359375q-0.890625 -0.359375 -1.53125 -1.0q-0.640625 -0.640625 -1.015625 -1.5q-0.375 -0.875 -0.375 -1.859375q0 -0.796875 0.28125 -1.5625q0.265625 -0.78125 0.78125 -1.421875l-4.625 0l-0.3125 -1.375l13.375 0l0 1.359375zm-4.703125 6.359375q0.765625 0 1.4375 -0.265625q0.671875 -0.28125 1.15625 -0.734375q0.484375 -0.46875 0.765625 -1.09375q0.28125 -0.640625 0.28125 -1.375q0 -0.875 -0.34375 -1.625q-0.34375 -0.765625 -0.96875 -1.25l-4.625 0q-0.59375 0.484375 -0.9375 1.25q-0.34375 0.765625 -0.34375 1.625q0 1.453125 1.03125 2.46875q1.015625 1.0 2.546875 1.0z" fill-rule="nonzero"/><path fill="#000000" fill-opacity="0.0" d="m937.9042 476.25055l0 25.0l-428.6929 0l0 -41.0" fill-rule="evenodd"/><path stroke="#2870c2" stroke-width="2.0" stroke-linejoin="round" stroke-linecap="butt" d="m937.9042 488.25058l0 13.0l-428.6929 0l0 -41.0" fill-rule="evenodd"/><path fill="#2870c2" stroke="#2870c2" stroke-width="2.0" stroke-linecap="butt" d="m941.20764 488.25058l-3.3034668 -9.076202l-3.3034668 9.076202z" fill-rule="evenodd"/><path fill="#000000" fill-opacity="0.0" d="m905.9042 330.54977l0 -25.0l-396.6929 0l0 41.0" fill-rule="evenodd"/><path stroke="#d33115" stroke-width="2.0" stroke-linejoin="round" stroke-linecap="butt" d="m905.9042 330.54977l0 -25.0l-396.6929 0l0 29.0" fill-rule="evenodd"/><path fill="#d33115" stroke="#d33115" stroke-width="2.0" stroke-linecap="butt" d="m505.9078 334.54977l3.3034668 9.076202l3.3034973 -9.076202z" fill-rule="evenodd"/><path fill="#ffffff" d="m646.56573 288.22787l121.98425 -0.06298828l0 32.0l-121.98425 0.06298828z" fill-rule="evenodd"/><path fill="#d33115" d="m658.49506 306.3011q0 -2.84375 1.203125 -5.0631104q1.203125 -2.2193604 3.453125 -3.5486755l0.71875 0.9371338q-1.9375 1.1260071 -3.0 3.1421814q-1.046875 2.0161743 -1.046875 4.5317993q0 2.53125 1.046875 4.5463257q1.0625 1.9994507 3.0 3.1078186l-0.71875 0.9535217q-2.25 -1.3425903 -3.453125 -3.56073q-1.203125 -2.2181396 -1.203125 -5.0462646zm18.022888 -0.88430786q0 2.609375 -1.46875 4.172638q-1.453125 1.5476379 -3.921875 1.5489197q-2.484375 0.0012817383 -3.9375 -1.5448608q-1.453125 -1.5461121 -1.453125 -4.171112l0 -7.546875l1.4375 -7.6293945E-4l0 7.546875q0 1.984375 1.078125 3.1869507q1.09375 1.2025757 2.875 1.2016602q1.796875 -9.460449E-4 2.875 -1.2046204q1.078125 -1.2036743 1.078125 -3.1880493l0 -7.546875l1.4375 -7.6293945E-4l0 7.546875zm2.3527832 5.5144043l0 -9.34375l1.390625 -7.019043E-4l0 1.09375q0.53125 -0.62527466 1.28125 -0.9537964q0.75 -0.3284912 1.65625 -0.3289795q1.59375 -8.239746E-4 2.59375 1.0142822q1.015625 0.9994812 1.015625 2.6088562l0 5.90625l-1.359375 7.019043E-4l0 -5.640625q0 -1.21875 -0.71875 -1.9527588q-0.703125 -0.7340088 -1.90625 -0.7333679q-0.828125 4.272461E-4 -1.5 0.37576294q-0.65625 0.3753357 -1.0625 1.0630493l0 6.890625l-1.390625 7.019043E-4zm15.132874 -4.7421875q0 2.828125 -1.203125 5.047516q-1.203125 2.2193604 -3.4375 3.548645l-0.734375 -0.9371338q1.9375 -1.1103516 2.984375 -3.1265259q1.0625 -2.0161743 1.0625 -4.5317993q0 -2.546875 -1.0625 -4.5463257q-1.046875 -1.9994507 -2.984375 -3.1234741l0.734375 -0.9534912q2.234375 1.3425903 3.4375 3.56073q1.203125 2.2181091 1.203125 5.061859zm2.3666382 4.7331543l0 -9.34375l1.390625 -7.019043E-4l0 1.328125q0.40625 -0.7345886 1.078125 -1.1255493q0.671875 -0.4066162 1.53125 -0.40704346q0.25 -1.5258789E-4 0.453125 0.03100586q0.21875 0.01550293 0.421875 0.09353638l0 1.265625q-0.25 -0.07800293 -0.5 -0.12475586q-0.234375 -0.04675293 -0.46875 -0.04663086q-0.859375 4.5776367E-4 -1.515625 0.50079346q-0.65625 0.5003357 -1.0 1.4223938l0 6.40625l-1.390625 7.019043E-4zm13.658081 -0.99142456q-0.78125 0.5785217 -1.640625 0.8758545q-0.84375 0.28167725 -1.84375 0.28219604q-1.015625 5.187988E-4 -1.90625 -0.37402344q-0.875 -0.37454224 -1.515625 -1.0304565q-0.640625 -0.6559143 -1.015625 -1.5307312q-0.375 -0.8904114 -0.375 -1.9216614q0 -1.0 0.359375 -1.8751831q0.359375 -0.8752136 0.96875 -1.5317688q0.625 -0.6565552 1.46875 -1.0320129q0.859375 -0.37542725 1.8125 -0.37591553q0.921875 -4.8828125E-4 1.734375 0.37408447q0.8125 0.37460327 1.390625 1.0305481q0.59375 0.6559448 0.9375 1.5307617q0.359375 0.8748169 0.359375 1.8748169l0 0.4375l-7.671875 0.003967285q0.140625 1.3749084 1.125 2.2962952q1.0 0.9057312 2.375 0.9049988q0.734375 -3.6621094E-4 1.421875 -0.21948242q0.6875 -0.2347107 1.15625 -0.64120483l0.859375 0.92141724zm-3.734375 -7.2949524q-1.203125 6.4086914E-4 -2.09375 0.82922363q-0.890625 0.81295776 -1.078125 2.0942993l6.25 -0.0032348633q-0.1875 -1.2186279 -1.0625 -2.0619507q-0.859375 -0.85891724 -2.015625 -0.8583374zm10.6345215 8.353912q-0.96875 4.8828125E-4 -1.8125 -0.37408447q-0.84375 -0.37457275 -1.484375 -1.0148621q-0.640625 -0.6402893 -1.0 -1.5151062q-0.359375 -0.8904419 -0.359375 -1.8904419q0 -1.015625 0.359375 -1.8908081q0.359375 -0.8751831 1.0 -1.5161438q0.640625 -0.6409607 1.484375 -1.0163879q0.859375 -0.37542725 1.859375 -0.37594604q0.796875 -4.272461E-4 1.546875 0.29608154q0.765625 0.28085327 1.390625 0.8117676l0 -0.9375l1.359375 -7.019043E-4l0 9.5625q0 1.796875 -1.046875 2.7505493q-1.03125 0.9692688 -2.96875 0.9702759q-0.984375 5.187988E-4 -1.9375 -0.24899292q-0.9375 -0.24951172 -1.71875 -0.717865l0.59375 -1.0784302q0.828125 0.43707275 1.546875 0.63983154q0.71875 0.21835327 1.453125 0.21798706q1.328125 -6.713867E-4 2.015625 -0.6416626q0.6875 -0.6409912 0.6875 -1.8597412l0 -1.25q-0.625 0.5159607 -1.390625 0.7976074q-0.75 0.28164673 -1.578125 0.28207397zm-3.296875 -4.7951965q0 0.75 0.25 1.4061279q0.265625 0.6561279 0.71875 1.1402588q0.46875 0.46850586 1.09375 0.74942017q0.640625 0.28094482 1.34375 0.2805786q0.90625 -4.8828125E-4 1.640625 -0.3289795q0.75 -0.34414673 1.21875 -0.95376587l0 -4.59375q-0.46875 -0.59350586 -1.21875 -0.92123413q-0.75 -0.34335327 -1.640625 -0.3428955q-0.71875 3.6621094E-4 -1.34375 0.2662964q-0.625 0.2659607 -1.09375 0.76620483q-0.453125 0.48461914 -0.71875 1.1409912q-0.25 0.6407471 -0.25 1.3907471zm10.682556 -6.4273987q-0.359375 2.1362305E-4 -0.640625 -0.2809143q-0.28125 -0.2810974 -0.28125 -0.6560974q0 -0.390625 0.28125 -0.6564026q0.28125 -0.26574707 0.640625 -0.2659607q0.390625 -1.8310547E-4 0.65625 0.2652893q0.28125 0.26550293 0.28125 0.6561279q0 0.375 -0.28125 0.6563721q-0.265625 0.2814026 -0.65625 0.2815857zm0.703125 1.7965393l0 9.34375l-1.390625 7.019043E-4l0 -9.34375l1.390625 -7.019043E-4zm1.3875122 8.061768l0.84375 -0.90667725q0.640625 0.6090393 1.421875 0.9367676q0.796875 0.31207275 1.625 0.3116455q1.109375 -5.493164E-4 1.8125 -0.45404053q0.71875 -0.46914673 0.71875 -1.2191467q0 -0.59375 -0.421875 -0.93725586q-0.421875 -0.35916138 -1.3125 -0.4837036l-1.625 -0.21792603q-1.390625 -0.20239258 -2.078125 -0.8270569q-0.6875 -0.6246338 -0.6875 -1.6871338q0 -1.1875 0.984375 -1.9536438q1.0 -0.7817383 2.53125 -0.78253174q1.0 -5.187988E-4 1.90625 0.29586792q0.90625 0.29641724 1.765625 0.9365845l-0.71875 0.9378967q-0.796875 -0.5308533 -1.53125 -0.78045654q-0.734375 -0.2652588 -1.5 -0.26486206q-0.953125 4.8828125E-4 -1.5625 0.43829346q-0.59375 0.42218018 -0.59375 1.1096802q0 0.59375 0.40625 0.9216919q0.40625 0.32791138 1.328125 0.4524231l1.625 0.23355103q1.390625 0.18676758 2.09375 0.82702637q0.703125 0.6402588 0.703125 1.7027588q0 0.59375 -0.296875 1.1251526q-0.28125 0.5314026 -0.796875 0.92230225q-0.515625 0.37527466 -1.203125 0.59436035q-0.6875 0.21911621 -1.5 0.21954346q-1.15625 5.79834E-4 -2.171875 -0.37390137q-1.015625 -0.3901062 -1.765625 -1.0772095zm10.243408 -0.81777954l0 -6.078125l-2.015625 0.0010375977l0 -1.171875l2.015625 -0.0010375977l0 -2.375l1.359375 -0.3600769l0 2.734375l2.828125 -0.0014648438l0 1.171875l-2.828125 0.0014648438l0 5.734375q0 0.734375 0.328125 1.0623169q0.34375 0.3279419 1.109375 0.32754517q0.390625 -1.8310547E-4 0.703125 -0.047210693q0.3125 -0.062683105 0.671875 -0.18786621l0 1.203125q-0.359375 0.1408081 -0.796875 0.18792725q-0.4375 0.06271362 -0.859375 0.062927246q-1.203125 6.4086914E-4 -1.859375 -0.57714844q-0.65625 -0.5777893 -0.65625 -1.6871643zm13.229614 1.1025391q-0.78125 0.5785217 -1.640625 0.8758545q-0.84375 0.28167725 -1.84375 0.28219604q-1.015625 5.187988E-4 -1.90625 -0.37402344q-0.875 -0.37454224 -1.515625 -1.0304565q-0.640625 -0.6559143 -1.015625 -1.5307312q-0.375 -0.8904419 -0.375 -1.9216919q0 -1.0 0.359375 -1.8751831q0.359375 -0.8751831 0.96875 -1.5317383q0.625 -0.6565857 1.46875 -1.0320129q0.859375 -0.37545776 1.8125 -0.37594604q0.921875 -4.5776367E-4 1.734375 0.374115q0.8125 0.37457275 1.390625 1.0305176q0.59375 0.6559448 0.9375 1.5307922q0.359375 0.8748169 0.359375 1.8748169l0 0.4375l-7.671875 0.0039367676q0.140625 1.374939 1.125 2.2962952q1.0 0.9057312 2.375 0.9050293q0.734375 -3.6621094E-4 1.421875 -0.21948242q0.6875 -0.23474121 1.15625 -0.64120483l0.859375 0.92141724zm-3.734375 -7.2949524q-1.203125 6.1035156E-4 -2.09375 0.82922363q-0.890625 0.81295776 -1.078125 2.0942993l6.25 -0.0032348633q-0.1875 -1.2186584 -1.0625 -2.0619507q-0.859375 -0.85891724 -2.015625 -0.8583374zm6.381531 8.277954l0 -9.34375l1.390625 -7.019043E-4l0 1.328125q0.40625 -0.7345886 1.078125 -1.1255798q0.671875 -0.4065857 1.53125 -0.40704346q0.25 -1.2207031E-4 0.453125 0.031036377q0.21875 0.01550293 0.421875 0.09353638l0 1.265625q-0.25 -0.07800293 -0.5 -0.12475586q-0.234375 -0.04675293 -0.46875 -0.04663086q-0.859375 4.5776367E-4 -1.515625 0.50079346q-0.65625 0.5003357 -1.0 1.4223938l0 6.40625l-1.390625 7.019043E-4z" fill-rule="nonzero"/><path fill="#ffffff" d="m673.1641 387.39883l68.787415 0l0 32.0l-68.787415 0z" fill-rule="evenodd"/><path fill="#194d33" d="m684.6862 410.11884l0 -13.0625l1.4375 0l0 5.84375l7.59375 0l0 -5.84375l1.4375 0l0 13.0625l-1.4375 0l0 -5.9375l-7.59375 0l0 5.9375l-1.4375 0zm12.214172 -11.765625l0 -1.296875l10.875 0l0 1.296875l-4.71875 0l0 11.765625l-1.4375 0l0 -11.765625l-4.71875 0zm11.697571 0l0 -1.296875l10.875 0l0 1.296875l-4.71875 0l0 11.765625l-1.4375 0l0 -11.765625l-4.71875 0zm12.635925 11.765625l0 -13.0625l5.671875 0q1.90625 0 3.0625 1.046875q1.15625 1.03125 1.15625 2.71875q0 1.703125 -1.171875 2.75q-1.15625 1.046875 -3.046875 1.046875l-4.234375 0l0 5.5l-1.4375 0zm5.5625 -11.765625l-4.125 0l0 5.015625l4.125 0q1.328125 0 2.109375 -0.671875q0.78125 -0.6875 0.78125 -1.84375q0 -1.15625 -0.78125 -1.828125q-0.78125 -0.671875 -2.109375 -0.671875z" fill-rule="nonzero"/><path fill="#194d33" d="m866.5026 69.796974l0 0c0 -13.83466 31.96814 -25.04987 71.40289 -25.04987c39.434692 0 71.40289 11.21521 71.40289 25.04987l0 100.19947c0 13.834671 -31.9682 25.049881 -71.40289 25.049881c-39.434753 0 -71.40289 -11.21521 -71.40289 -25.049881z" fill-rule="evenodd"/><path fill="#000000" fill-opacity="0.0" d="m1009.3084 69.796974l0 0c0 13.834663 -31.9682 25.049866 -71.40289 25.049866c-39.434753 0 -71.40289 -11.215202 -71.40289 -25.049866" fill-rule="evenodd"/><path fill="#000000" fill-opacity="0.0" d="m866.5026 69.796974l0 0c0 -13.83466 31.96814 -25.04987 71.40289 -25.04987c39.434692 0 71.40289 11.21521 71.40289 25.04987l0 100.19947c0 13.834671 -31.9682 25.049881 -71.40289 25.049881c-39.434753 0 -71.40289 -11.21521 -71.40289 -25.049881z" fill-rule="evenodd"/><path stroke="#2870c2" stroke-width="2.0" stroke-linejoin="round" stroke-linecap="butt" d="m1009.3084 69.796974l0 0c0 13.834663 -31.9682 25.049866 -71.40289 25.049866c-39.434753 0 -71.40289 -11.215202 -71.40289 -25.049866" fill-rule="evenodd"/><path stroke="#2870c2" stroke-width="2.0" stroke-linejoin="round" stroke-linecap="butt" d="m866.5026 69.796974l0 0c0 -13.83466 31.96814 -25.04987 71.40289 -25.04987c39.434692 0 71.40289 11.21521 71.40289 25.04987l0 100.19947c0 13.834671 -31.9682 25.049881 -71.40289 25.049881c-39.434753 0 -71.40289 -11.21521 -71.40289 -25.049881z" fill-rule="evenodd"/><path fill="#194d33" d="m850.5026 53.796974l0 0c0 -13.83466 31.9682 -25.049868 71.40289 -25.049868c39.434753 0 71.40289 11.215208 71.40289 25.049868l0 100.19947c0 13.834671 -31.96814 25.049881 -71.40289 25.049881c-39.434692 0 -71.40289 -11.21521 -71.40289 -25.049881z" fill-rule="evenodd"/><path fill="#000000" fill-opacity="0.0" d="m993.3084 53.796974l0 0c0 13.834663 -31.96814 25.049866 -71.40289 25.049866c-39.434692 0 -71.40289 -11.215202 -71.40289 -25.049866" fill-rule="evenodd"/><path fill="#000000" fill-opacity="0.0" d="m850.5026 53.796974l0 0c0 -13.83466 31.9682 -25.049868 71.40289 -25.049868c39.434753 0 71.40289 11.215208 71.40289 25.049868l0 100.19947c0 13.834671 -31.96814 25.049881 -71.40289 25.049881c-39.434692 0 -71.40289 -11.21521 -71.40289 -25.049881z" fill-rule="evenodd"/><path stroke="#2870c2" stroke-width="2.0" stroke-linejoin="round" stroke-linecap="butt" d="m993.3084 53.796974l0 0c0 13.834663 -31.96814 25.049866 -71.40289 25.049866c-39.434692 0 -71.40289 -11.215202 -71.40289 -25.049866" fill-rule="evenodd"/><path stroke="#2870c2" stroke-width="2.0" stroke-linejoin="round" stroke-linecap="butt" d="m850.5026 53.796974l0 0c0 -13.83466 31.9682 -25.049868 71.40289 -25.049868c39.434753 0 71.40289 11.215208 71.40289 25.049868l0 100.19947c0 13.834671 -31.96814 25.049881 -71.40289 25.049881c-39.434692 0 -71.40289 -11.21521 -71.40289 -25.049881z" fill-rule="evenodd"/><path fill="#194d33" d="m834.5026 37.796974l0 0c0 -13.83466 31.9682 -25.04987 71.40289 -25.04987c39.434753 0 71.40289 11.215209 71.40289 25.04987l0 100.19947c0 13.834671 -31.96814 25.049881 -71.40289 25.049881c-39.434692 0 -71.40289 -11.21521 -71.40289 -25.049881z" fill-rule="evenodd"/><path fill="#000000" fill-opacity="0.0" d="m977.3084 37.796974l0 0c0 13.83466 -31.96814 25.04987 -71.40289 25.04987c-39.434692 0 -71.40289 -11.21521 -71.40289 -25.04987" fill-rule="evenodd"/><path fill="#000000" fill-opacity="0.0" d="m834.5026 37.796974l0 0c0 -13.83466 31.9682 -25.04987 71.40289 -25.04987c39.434753 0 71.40289 11.215209 71.40289 25.04987l0 100.19947c0 13.834671 -31.96814 25.049881 -71.40289 25.049881c-39.434692 0 -71.40289 -11.21521 -71.40289 -25.049881z" fill-rule="evenodd"/><path stroke="#2870c2" stroke-width="2.0" stroke-linejoin="round" stroke-linecap="butt" d="m977.3084 37.796974l0 0c0 13.83466 -31.96814 25.04987 -71.40289 25.04987c-39.434692 0 -71.40289 -11.21521 -71.40289 -25.04987" fill-rule="evenodd"/><path stroke="#2870c2" stroke-width="2.0" stroke-linejoin="round" stroke-linecap="butt" d="m834.5026 37.796974l0 0c0 -13.83466 31.9682 -25.04987 71.40289 -25.04987c39.434753 0 71.40289 11.215209 71.40289 25.04987l0 100.19947c0 13.834671 -31.96814 25.049881 -71.40289 25.049881c-39.434692 0 -71.40289 -11.21521 -71.40289 -25.049881z" fill-rule="evenodd"/><path fill="#ffffff" d="m859.636 89.64915l0 -2.90625l7.484375 0l0 6.84375q-1.09375 1.0625 -3.171875 1.875q-2.0625 0.796875 -4.171875 0.796875q-2.703125 0 -4.703125 -1.125q-2.0 -1.140625 -3.015625 -3.234375q-1.0 -2.109375 -1.0 -4.59375q0 -2.671875 1.125 -4.75q1.125 -2.09375 3.28125 -3.21875q1.65625 -0.84375 4.125 -0.84375q3.1875 0 4.984375 1.34375q1.8125 1.328125 2.328125 3.703125l-3.453125 0.640625q-0.359375 -1.265625 -1.359375 -2.0q-1.0 -0.734375 -2.5 -0.734375q-2.28125 0 -3.625 1.453125q-1.34375 1.4375 -1.34375 4.265625q0 3.0625 1.359375 4.59375q1.359375 1.53125 3.5625 1.53125q1.09375 0 2.1875 -0.421875q1.09375 -0.4375 1.890625 -1.046875l0 -2.171875l-3.984375 0zm13.808594 6.3125l-3.296875 0l0 -12.453125l3.0625 0l0 1.78125q0.78125 -1.265625 1.40625 -1.65625q0.640625 -0.40625 1.4375 -0.40625q1.125 0 2.15625 0.625l-1.015625 2.875q-0.828125 -0.546875 -1.546875 -0.546875q-0.6875 0 -1.171875 0.390625q-0.484375 0.375 -0.765625 1.375q-0.265625 1.0 -0.265625 4.171875l0 3.84375zm8.652344 -8.65625l-2.984375 -0.53125q0.5 -1.8125 1.71875 -2.671875q1.234375 -0.875 3.671875 -0.875q2.203125 0 3.28125 0.53125q1.078125 0.515625 1.515625 1.328125q0.4375 0.796875 0.4375 2.9375l-0.03125 3.84375q0 1.640625 0.15625 2.421875q0.15625 0.78125 0.59375 1.671875l-3.265625 0q-0.125 -0.328125 -0.3125 -0.96875q-0.078125 -0.296875 -0.125 -0.390625q-0.84375 0.8125 -1.8125 1.234375q-0.953125 0.40625 -2.03125 0.40625q-1.921875 0 -3.03125 -1.046875q-1.109375 -1.046875 -1.109375 -2.640625q0 -1.046875 0.5 -1.875q0.5 -0.828125 1.40625 -1.265625q0.921875 -0.4375 2.625 -0.765625q2.3125 -0.4375 3.203125 -0.8125l0 -0.328125q0 -0.953125 -0.46875 -1.34375q-0.46875 -0.40625 -1.765625 -0.40625q-0.890625 0 -1.390625 0.34375q-0.484375 0.34375 -0.78125 1.203125zm4.40625 2.671875q-0.640625 0.21875 -2.015625 0.515625q-1.359375 0.28125 -1.78125 0.5625q-0.640625 0.46875 -0.640625 1.171875q0 0.6875 0.515625 1.1875q0.515625 0.5 1.3125 0.5q0.890625 0 1.6875 -0.578125q0.609375 -0.453125 0.796875 -1.09375q0.125 -0.421875 0.125 -1.609375l0 -0.65625zm6.3789062 -6.46875l3.078125 0l0 1.828125q0.59375 -0.9375 1.609375 -1.515625q1.03125 -0.59375 2.265625 -0.59375q2.171875 0 3.671875 1.703125q1.515625 1.703125 1.515625 4.734375q0 3.125 -1.53125 4.859375q-1.515625 1.71875 -3.671875 1.71875q-1.03125 0 -1.875 -0.40625q-0.84375 -0.421875 -1.765625 -1.40625l0 6.265625l-3.296875 0l0 -17.1875zm3.265625 6.015625q0 2.09375 0.828125 3.109375q0.828125 1.0 2.03125 1.0q1.140625 0 1.90625 -0.921875q0.765625 -0.921875 0.765625 -3.015625q0 -1.96875 -0.796875 -2.90625q-0.78125 -0.953125 -1.9375 -0.953125q-1.203125 0 -2.0 0.9375q-0.796875 0.921875 -0.796875 2.75zm14.769531 -10.75l0 6.328125q1.59375 -1.875 3.8125 -1.875q1.140625 0 2.046875 0.421875q0.921875 0.421875 1.375 1.078125q0.46875 0.65625 0.640625 1.453125q0.171875 0.796875 0.171875 2.484375l0 7.296875l-3.296875 0l0 -6.578125q0 -1.953125 -0.1875 -2.484375q-0.1875 -0.53125 -0.671875 -0.828125q-0.46875 -0.3125 -1.171875 -0.3125q-0.828125 0 -1.46875 0.40625q-0.640625 0.390625 -0.953125 1.1875q-0.296875 0.796875 -0.296875 2.375l0 6.234375l-3.28125 0l0 -17.1875l3.28125 0zm18.0625 0l6.34375 0q2.140625 0 3.265625 0.328125q1.515625 0.453125 2.59375 1.59375q1.078125 1.125 1.640625 2.78125q0.5625 1.640625 0.5625 4.0625q0 2.109375 -0.53125 3.65625q-0.640625 1.875 -1.84375 3.03125q-0.890625 0.875 -2.4375 1.375q-1.140625 0.359375 -3.0625 0.359375l-6.53125 0l0 -17.1875zm3.46875 2.90625l0 11.390625l2.59375 0q1.453125 0 2.09375 -0.171875q0.84375 -0.203125 1.390625 -0.703125q0.5625 -0.515625 0.90625 -1.671875q0.359375 -1.15625 0.359375 -3.140625q0 -2.0 -0.359375 -3.0625q-0.34375 -1.0625 -0.984375 -1.65625q-0.625 -0.609375 -1.59375 -0.8125q-0.71875 -0.171875 -2.84375 -0.171875l-1.5625 0zm13.894531 -2.90625l6.859375 0q2.046875 0 3.046875 0.171875q1.0 0.171875 1.78125 0.71875q0.796875 0.53125 1.328125 1.4375q0.53125 0.890625 0.53125 2.0q0 1.203125 -0.65625 2.21875q-0.65625 1.0 -1.765625 1.515625q1.578125 0.453125 2.421875 1.5625q0.84375 1.09375 0.84375 2.578125q0 1.171875 -0.546875 2.28125q-0.546875 1.109375 -1.5 1.78125q-0.9375 0.65625 -2.3125 0.796875q-0.875 0.09375 -4.1875 0.125l-5.84375 0l0 -17.1875zm3.46875 2.859375l0 3.984375l2.265625 0q2.03125 0 2.515625 -0.0625q0.890625 -0.109375 1.40625 -0.609375q0.515625 -0.515625 0.515625 -1.34375q0 -0.796875 -0.453125 -1.296875q-0.4375 -0.5 -1.296875 -0.609375q-0.515625 -0.0625 -2.96875 -0.0625l-1.984375 0zm0 6.84375l0 4.59375l3.203125 0q1.875 0 2.375 -0.109375q0.78125 -0.140625 1.265625 -0.6875q0.484375 -0.546875 0.484375 -1.453125q0 -0.78125 -0.375 -1.3125q-0.375 -0.546875 -1.09375 -0.78125q-0.703125 -0.25 -3.0625 -0.25l-2.796875 0z" fill-rule="nonzero"/><path fill="#ffffff" d="m851.1753 122.40165l-4.046875 -15.265625l2.0625 0l2.328125 10.0q0.375 1.578125 0.640625 3.125q0.59375 -2.4375 0.6875 -2.8125l2.90625 -10.3125l2.4375 0l2.1875 7.71875q0.828125 2.875 1.1875 5.40625q0.296875 -1.4375 0.765625 -3.3125l2.390625 -9.8125l2.03125 0l-4.1875 15.265625l-1.953125 0l-3.203125 -11.625q-0.40625 -1.46875 -0.484375 -1.796875q-0.234375 1.046875 -0.453125 1.796875l-3.234375 11.625l-2.0625 0zm17.23993 -13.109375l0 -2.15625l1.875 0l0 2.15625l-1.875 0zm0 13.109375l0 -11.0625l1.875 0l0 11.0625l-1.875 0zm4.6759033 0l0 -15.265625l1.875 0l0 15.265625l-1.875 0zm11.957214 0l0 -1.390625q-1.046875 1.640625 -3.09375 1.640625q-1.3125 0 -2.421875 -0.71875q-1.109375 -0.734375 -1.71875 -2.046875q-0.609375 -1.3125 -0.609375 -3.0q0 -1.65625 0.546875 -3.0q0.546875 -1.359375 1.65625 -2.078125q1.109375 -0.71875 2.46875 -0.71875q1.0 0 1.78125 0.421875q0.78125 0.421875 1.265625 1.09375l0 -5.46875l1.875 0l0 15.265625l-1.75 0zm-5.921875 -5.515625q0 2.125 0.890625 3.171875q0.90625 1.046875 2.125 1.046875q1.21875 0 2.078125 -1.0q0.859375 -1.0 0.859375 -3.0625q0 -2.28125 -0.875 -3.34375q-0.875 -1.0625 -2.15625 -1.0625q-1.25 0 -2.09375 1.03125q-0.828125 1.015625 -0.828125 3.21875zm10.955444 5.515625l0 -15.265625l10.296814 0l0 1.796875l-8.281189 0l0 4.734375l7.171814 0l0 1.796875l-7.171814 0l0 6.9375l-2.015625 0zm12.63739 0l0 -15.265625l1.875 0l0 15.265625l-1.875 0zm4.7072144 4.265625l-0.21875 -1.765625q0.625 0.171875 1.078125 0.171875q0.625 0 1.0 -0.21875q0.375 -0.203125 0.609375 -0.578125q0.1875 -0.28125 0.578125 -1.390625q0.046875 -0.15625 0.171875 -0.46875l-4.203125 -11.078125l2.015625 0l2.3125 6.40625q0.4375 1.21875 0.796875 2.5625q0.328125 -1.296875 0.765625 -2.515625l2.375 -6.453125l1.875 0l-4.21875 11.25q-0.671875 1.828125 -1.046875 2.515625q-0.5 0.921875 -1.15625 1.34375q-0.640625 0.4375 -1.53125 0.4375q-0.546875 0 -1.203125 -0.21875zm15.417847 -4.265625l4.046875 -5.75l-3.75 -5.3125l2.34375 0l1.703125 2.59375q0.484375 0.734375 0.765625 1.234375q0.46875 -0.6875 0.84375 -1.21875l1.875 -2.609375l2.234375 0l-3.828125 5.203125l4.125 5.859375l-2.3125 0l-2.265625 -3.4375l-0.609375 -0.921875l-2.90625 4.359375l-2.265625 0zm12.4453125 0l0 -2.140625l2.140625 0l0 2.140625l-2.140625 0zm5.316223 4.265625l-0.21875 -1.765625q0.625 0.171875 1.078125 0.171875q0.625 0 1.0 -0.21875q0.375 -0.203125 0.609375 -0.578125q0.1875 -0.28125 0.578125 -1.390625q0.046875 -0.15625 0.171875 -0.46875l-4.203125 -11.078125l2.015625 0l2.3125 6.40625q0.4375 1.21875 0.796875 2.5625q0.328125 -1.296875 0.765625 -2.515625l2.375 -6.453125l1.875 0l-4.21875 11.25q-0.671875 1.828125 -1.046875 2.515625q-0.5 0.921875 -1.15625 1.34375q-0.640625 0.4375 -1.53125 0.4375q-0.546875 0 -1.203125 -0.21875zm9.6901245 -4.265625l0 -2.140625l2.140625 0l0 2.140625l-2.140625 0zm4.410034 0l0 -1.515625l7.03125 -8.09375q-1.1875 0.0625 -2.109375 0.0625l-4.515625 0l0 -1.515625l9.046875 0l0 1.234375l-5.984375 7.03125l-1.15625 1.28125q1.25 -0.09375 2.359375 -0.09375l5.109375 0l0 1.609375l-9.78125 0z" fill-rule="nonzero"/><path fill="#4c8eda" d="m835.01447 362.54977l205.77948 0l0 113.700775l-205.77948 0z" fill-rule="evenodd"/><path stroke="#2870c2" stroke-width="2.0" stroke-linejoin="round" stroke-linecap="butt" d="m835.01447 362.54977l205.77948 0l0 113.700775l-205.77948 0z" fill-rule="evenodd"/><path fill="#4c8eda" d="m819.01447 346.54977l205.77948 0l0 113.700775l-205.77948 0z" fill-rule="evenodd"/><path stroke="#2870c2" stroke-width="2.0" stroke-linejoin="round" stroke-linecap="butt" d="m819.01447 346.54977l205.77948 0l0 113.700775l-205.77948 0z" fill-rule="evenodd"/><path fill="#4c8eda" d="m803.01447 330.54977l205.77948 0l0 113.700775l-205.77948 0z" fill-rule="evenodd"/><path stroke="#2870c2" stroke-width="2.0" stroke-linejoin="round" stroke-linecap="butt" d="m803.01447 330.54977l205.77948 0l0 113.700775l-205.77948 0z" fill-rule="evenodd"/><path fill="#ffffff" d="m880.86755 381.73703l-5.796875 -11.15625l0 12.359375l-3.21875 0l0 -16.796875l4.453125 0l4.609375 9.015625l4.609375 -9.015625l4.46875 0l0 16.796875l-3.28125 0l0 -12.34375l-5.84375 11.140625zm11.355469 -5.03125q0 -1.375 0.515625 -2.5625q0.515625 -1.1875 1.40625 -2.0625q0.90625 -0.875 2.125 -1.375q1.234375 -0.515625 2.625 -0.515625q1.390625 0 2.609375 0.515625q1.234375 0.5 2.125 1.375q0.90625 0.875 1.421875 2.0625q0.515625 1.1875 0.515625 2.5625q0 1.359375 -0.515625 2.546875q-0.515625 1.1875 -1.421875 2.0625q-0.890625 0.859375 -2.125 1.359375q-1.21875 0.5 -2.609375 0.5q-1.390625 0 -2.625 -0.5q-1.21875 -0.5 -2.125 -1.359375q-0.890625 -0.875 -1.40625 -2.0625q-0.515625 -1.1875 -0.515625 -2.546875zm6.671875 3.625q1.4375 0 2.4375 -1.0625q1.015625 -1.0625 1.015625 -2.5625q0 -1.546875 -1.015625 -2.59375q-1.0 -1.0625 -2.4375 -1.0625q-1.4375 0 -2.453125 1.0625q-1.0 1.046875 -1.0 2.59375q0 1.5 1.0 2.5625q1.015625 1.0625 2.453125 1.0625zm18.114319 2.609375l0 -1.03125q-0.734375 0.59375 -1.65625 0.90625q-0.90625 0.296875 -1.890625 0.296875q-1.3125 0 -2.484375 -0.5q-1.15625 -0.515625 -2.03125 -1.375q-0.859375 -0.859375 -1.359375 -2.03125q-0.484375 -1.1875 -0.484375 -2.53125q0 -1.34375 0.5 -2.515625q0.515625 -1.171875 1.375 -2.03125q0.859375 -0.875 2.046875 -1.359375q1.1875 -0.5 2.53125 -0.5q0.921875 0 1.796875 0.25q0.875 0.25 1.609375 0.734375l0 -5.109375l3.296875 -0.71875l0 17.515625l-3.25 0zm-6.671875 -6.265625q0 1.515625 1.0625 2.578125q1.0625 1.046875 2.59375 1.046875q0.90625 0 1.65625 -0.3125q0.765625 -0.3125 1.3125 -0.890625l0 -4.875q-0.515625 -0.546875 -1.296875 -0.859375q-0.78125 -0.3125 -1.671875 -0.3125q-1.5625 0 -2.609375 1.046875q-1.046875 1.046875 -1.046875 2.578125zm23.714783 4.703125q-1.140625 0.9375 -2.359375 1.375q-1.21875 0.421875 -2.703125 0.421875q-1.40625 0 -2.65625 -0.5q-1.234375 -0.5 -2.140625 -1.359375q-0.890625 -0.875 -1.40625 -2.0625q-0.515625 -1.1875 -0.515625 -2.546875q0 -1.34375 0.484375 -2.53125q0.5 -1.1875 1.359375 -2.0625q0.875 -0.890625 2.0625 -1.390625q1.1875 -0.5 2.53125 -0.5q1.3125 0 2.453125 0.515625q1.140625 0.515625 1.96875 1.40625q0.828125 0.890625 1.296875 2.125q0.46875 1.234375 0.46875 2.671875l0 0.859375l-9.3125 0q0.34375 1.1875 1.296875 1.90625q0.953125 0.71875 2.25 0.71875q0.828125 0 1.546875 -0.265625q0.71875 -0.265625 1.21875 -0.75l2.15625 1.96875zm-5.421875 -8.453125q-1.125 0 -1.953125 0.6875q-0.8125 0.6875 -1.109375 1.84375l6.109375 0q-0.3125 -1.109375 -1.140625 -1.8125q-0.828125 -0.71875 -1.90625 -0.71875zm11.563965 -7.5l0 17.515625l-3.28125 0l0 -16.796875l3.28125 -0.71875z" fill-rule="nonzero"/><path fill="#ffffff" d="m856.9507 409.38016l-1.65625 0l-3.21875 -14.9375l1.65625 0l2.546875 12.328125l3.6875 -12.328125l1.59375 0l3.6875 12.296875l2.5625 -12.296875l1.609375 0l-3.234375 14.9375l-1.65625 0l-3.78125 -12.640625l-3.796875 12.640625zm15.327087 -12.734375q-0.4375 0 -0.765625 -0.3125q-0.3125 -0.328125 -0.3125 -0.75q0 -0.453125 0.3125 -0.75q0.328125 -0.3125 0.765625 -0.3125q0.4375 0 0.75 0.3125q0.3125 0.296875 0.3125 0.75q0 0.421875 -0.3125 0.75q-0.3125 0.3125 -0.75 0.3125zm0.78125 2.046875l0 10.6875l-1.578125 0l0 -10.6875l1.578125 0zm4.265625 -4.609375l0 15.296875l-1.578125 0l0 -14.9375l1.578125 -0.359375zm11.031311 15.296875l0 -1.125q-0.6875 0.640625 -1.578125 0.96875q-0.875 0.328125 -1.875 0.328125q-1.140625 0 -2.125 -0.421875q-0.96875 -0.4375 -1.703125 -1.171875q-0.71875 -0.734375 -1.140625 -1.75q-0.40625 -1.03125 -0.40625 -2.1875q0 -1.140625 0.40625 -2.15625q0.421875 -1.015625 1.140625 -1.75q0.734375 -0.734375 1.71875 -1.15625q1.0 -0.4375 2.125 -0.4375q0.921875 0 1.796875 0.3125q0.890625 0.3125 1.609375 0.90625l0 -5.296875l1.578125 -0.359375l0 15.296875l-1.546875 0zm-7.28125 -5.375q0 0.875 0.3125 1.640625q0.3125 0.765625 0.84375 1.328125q0.53125 0.546875 1.25 0.875q0.734375 0.3125 1.5625 0.3125q1.0 0 1.859375 -0.390625q0.875 -0.390625 1.421875 -1.09375l0 -5.296875q-0.546875 -0.6875 -1.421875 -1.078125q-0.875 -0.390625 -1.859375 -0.390625q-1.65625 0 -2.8125 1.171875q-1.15625 1.171875 -1.15625 2.921875zm11.817993 5.375l0 -14.9375l10.6875 0l0 1.453125l-9.046875 0l0 5.34375l5.9375 0l0 1.421875l-5.9375 0l0 6.71875l-1.640625 0zm13.800842 -15.296875l0 15.296875l-1.578125 0l0 -14.9375l1.578125 -0.359375zm5.1875 16.6875l0.609375 -1.40625l-4.34375 -10.671875l1.75 0l3.453125 8.765625l3.734375 -8.765625l1.703125 0l-5.3125 12.28125q-0.6875 1.546875 -1.515625 2.21875q-0.828125 0.6875 -2.109375 0.6875q-0.296875 0 -0.5625 -0.03125q-0.265625 -0.03125 -0.4375 -0.078125l0 -1.421875q0.21875 0.03125 0.40625 0.046875q0.203125 0.03125 0.484375 0.03125q0.734375 0 1.234375 -0.40625q0.515625 -0.40625 0.90625 -1.25zm11.728577 -1.390625l4.203125 -5.5l-4.0 -5.1875l1.890625 0l3.015625 4.015625l3.03125 -4.015625l1.8125 0l-3.9375 5.15625l4.21875 5.53125l-1.875 0l-3.265625 -4.34375l-3.3125 4.34375l-1.78125 0zm12.472168 -2.046875q0.453125 0 0.765625 0.328125q0.328125 0.3125 0.328125 0.765625q0 0.4375 -0.328125 0.765625q-0.3125 0.3125 -0.765625 0.3125q-0.453125 0 -0.765625 -0.3125q-0.3125 -0.328125 -0.3125 -0.765625q0 -0.453125 0.3125 -0.765625q0.3125 -0.328125 0.765625 -0.328125zm4.592041 3.4375l0.609375 -1.40625l-4.34375 -10.671875l1.75 0l3.453125 8.765625l3.734375 -8.765625l1.703125 0l-5.3125 12.28125q-0.6875 1.546875 -1.515625 2.21875q-0.828125 0.6875 -2.109375 0.6875q-0.296875 0 -0.5625 -0.03125q-0.265625 -0.03125 -0.4375 -0.078125l0 -1.421875q0.21875 0.03125 0.40625 0.046875q0.203125 0.03125 0.484375 0.03125q0.734375 0 1.234375 -0.40625q0.515625 -0.40625 0.90625 -1.25zm7.777649 -3.4375q0.453125 0 0.765625 0.328125q0.328125 0.3125 0.328125 0.765625q0 0.4375 -0.328125 0.765625q-0.3125 0.3125 -0.765625 0.3125q-0.453125 0 -0.765625 -0.3125q-0.3125 -0.328125 -0.3125 -0.765625q0 -0.453125 0.3125 -0.765625q0.3125 -0.328125 0.765625 -0.328125zm2.812561 2.046875l0 -1.234375l6.453125 -8.046875l-6.390625 0l0 -1.40625l8.296875 0l0 1.21875l-6.453125 8.0625l6.515625 0l0 1.40625l-8.421875 0z" fill-rule="nonzero"/><path fill="#000000" fill-opacity="0.0" d="m215.3924 403.40015l190.92914 0" fill-rule="evenodd"/><path stroke="#000000" stroke-width="2.0" stroke-linejoin="round" stroke-linecap="butt" d="m227.3924 403.40018l178.92914 0" fill-rule="evenodd"/><path fill="#000000" stroke="#000000" stroke-width="2.0" stroke-linecap="butt" d="m227.3924 400.0967l-9.076202 3.3034668l9.076202 3.3034668z" fill-rule="evenodd"/><path fill="#ffffff" d="m276.45963 387.41592l68.787415 -0.03149414l0 32.0l-68.787415 0.03149414z" fill-rule="evenodd"/><path fill="#194d33" d="m287.9817 410.13065l0 -13.0625l1.4375 -6.4086914E-4l0 5.84375l7.59375 -0.003479004l0 -5.84375l1.4375 -6.713867E-4l0 13.0625l-1.4375 6.713867E-4l0 -5.9375l-7.59375 0.003479004l0 5.9375l-1.4375 6.4086914E-4zm12.214203 -11.77121l0 -1.296875l10.875 -0.0049743652l0 1.296875l-4.71875 0.002166748l0 11.765625l-1.4375 6.4086914E-4l0 -11.765625l-4.71875 0.002166748zm11.697571 -0.005340576l0 -1.296875l10.875 -0.005004883l0 1.296875l-4.71875 0.002166748l0 11.765625l-1.4375 6.713867E-4l0 -11.765625l-4.71875 0.002166748zm12.635925 11.759827l0 -13.0625l5.671875 -0.0025939941q1.90625 -8.8500977E-4 3.0625 1.0454712q1.15625 1.0307312 1.15625 2.7182312q0 1.703125 -1.171875 2.7505188q-1.15625 1.0474243 -3.046875 1.0482788l-4.234375 0.001953125l0 5.5l-1.4375 6.4086914E-4zm5.5625 -11.768158l-4.125 0.0018615723l0 5.0156555l4.125 -0.0018920898q1.328125 -6.1035156E-4 2.109375 -0.67285156q0.78125 -0.6878662 0.78125 -1.8441162q0 -1.15625 -0.78125 -1.8277588q-0.78125 -0.6715088 -2.109375 -0.67089844z" fill-rule="nonzero"/><path fill="#d33115" d="m52.754593 53.89778l0 0c0 6.903557 16.95707 12.5 37.874672 12.5c20.917603 0 37.874672 -5.596443 37.874672 -12.5l0 0c0 -6.9035606 16.957062 -12.5 37.87468 -12.5c20.917603 0 37.874664 5.5964394 37.874664 12.5l0 100.0c0 -6.9035645 -16.957062 -12.5 -37.874664 -12.5c-20.917618 0 -37.87468 5.5964355 -37.87468 12.5c0 6.9035645 -16.95707 12.5 -37.874672 12.5c-20.917603 0 -37.874672 -5.5964355 -37.874672 -12.5z" fill-rule="evenodd"/><path stroke="#2870c2" stroke-width="1.0" stroke-linejoin="round" stroke-linecap="butt" d="m52.754593 53.89778l0 0c0 6.903557 16.95707 12.5 37.874672 12.5c20.917603 0 37.874672 -5.596443 37.874672 -12.5l0 0c0 -6.9035606 16.957062 -12.5 37.87468 -12.5c20.917603 0 37.874664 5.5964394 37.874664 12.5l0 100.0c0 -6.9035645 -16.957062 -12.5 -37.874664 -12.5c-20.917618 0 -37.87468 5.5964355 -37.87468 12.5c0 6.9035645 -16.95707 12.5 -37.874672 12.5c-20.917603 0 -37.874672 -5.5964355 -37.874672 -12.5z" fill-rule="evenodd"/><path fill="#d33115" d="m36.754593 37.89778l0 0c0 6.903557 16.95707 12.5 37.874672 12.5c20.917603 0 37.874672 -5.596443 37.874672 -12.5l0 0c0 -6.9035606 16.957062 -12.5 37.87468 -12.5c20.917603 0 37.874664 5.5964394 37.874664 12.5l0 100.0c0 -6.9035645 -16.957062 -12.5 -37.874664 -12.5c-20.917618 0 -37.87468 5.5964355 -37.87468 12.5c0 6.9035645 -16.95707 12.5 -37.874672 12.5c-20.917603 0 -37.874672 -5.5964355 -37.874672 -12.5z" fill-rule="evenodd"/><path stroke="#2870c2" stroke-width="1.0" stroke-linejoin="round" stroke-linecap="butt" d="m36.754593 37.89778l0 0c0 6.903557 16.95707 12.5 37.874672 12.5c20.917603 0 37.874672 -5.596443 37.874672 -12.5l0 0c0 -6.9035606 16.957062 -12.5 37.87468 -12.5c20.917603 0 37.874664 5.5964394 37.874664 12.5l0 100.0c0 -6.9035645 -16.957062 -12.5 -37.874664 -12.5c-20.917618 0 -37.87468 5.5964355 -37.87468 12.5c0 6.9035645 -16.95707 12.5 -37.874672 12.5c-20.917603 0 -37.874672 -5.5964355 -37.874672 -12.5z" fill-rule="evenodd"/><path fill="#d33115" d="m20.754593 21.897781l0 0c0 6.9035587 16.95707 12.5 37.874672 12.5c20.917603 0 37.874672 -5.5964413 37.874672 -12.5l0 0c0 -6.9035606 16.95707 -12.500001 37.87468 -12.500001c20.917603 0 37.874664 5.5964403 37.874664 12.500001l0 100.0c0 -6.903557 -16.957062 -12.5 -37.874664 -12.5c-20.91761 0 -37.87468 5.596443 -37.87468 12.5c0 6.9035645 -16.95707 12.5 -37.874672 12.5c-20.917603 0 -37.874672 -5.5964355 -37.874672 -12.5z" fill-rule="evenodd"/><path stroke="#2870c2" stroke-width="1.0" stroke-linejoin="round" stroke-linecap="butt" d="m20.754593 21.897781l0 0c0 6.9035587 16.95707 12.5 37.874672 12.5c20.917603 0 37.874672 -5.5964413 37.874672 -12.5l0 0c0 -6.9035606 16.95707 -12.500001 37.87468 -12.500001c20.917603 0 37.874664 5.5964403 37.874664 12.500001l0 100.0c0 -6.903557 -16.957062 -12.5 -37.874664 -12.5c-20.91761 0 -37.87468 5.596443 -37.87468 12.5c0 6.9035645 -16.95707 12.5 -37.874672 12.5c-20.917603 0 -37.874672 -5.5964355 -37.874672 -12.5z" fill-rule="evenodd"/><path fill="#ffffff" d="m62.45243 67.43778l-3.640625 0l-3.71875 -16.796875l3.578125 0l2.28125 11.390625l3.28125 -11.390625l3.265625 0l3.265625 11.34375l2.28125 -11.34375l3.453125 0l-3.71875 16.796875l-3.65625 0l-3.328125 -11.734375l-3.34375 11.734375zm17.59343 -13.984375q-0.765625 0 -1.3125 -0.546875q-0.546875 -0.5625 -0.546875 -1.328125q0 -0.765625 0.546875 -1.3125q0.546875 -0.5625 1.3125 -0.5625q0.78125 0 1.328125 0.5625q0.546875 0.546875 0.546875 1.3125q0 0.765625 -0.546875 1.328125q-0.546875 0.546875 -1.328125 0.546875zm1.65625 1.484375l0 12.5l-3.28125 0l0 -12.5l3.28125 0zm5.8559875 -5.015625l0 17.515625l-3.28125 0l0 -16.796875l3.28125 -0.71875zm11.902863 17.515625l0 -1.03125q-0.734375 0.59375 -1.65625 0.90625q-0.90625 0.296875 -1.890625 0.296875q-1.3125 0 -2.484375 -0.5q-1.15625 -0.515625 -2.03125 -1.375q-0.859375 -0.859375 -1.359375 -2.03125q-0.484375 -1.1875 -0.484375 -2.53125q0 -1.34375 0.5 -2.515625q0.515625 -1.171875 1.375 -2.03125q0.859375 -0.875 2.046875 -1.359375q1.1875 -0.5 2.53125 -0.5q0.921875 0 1.796875 0.25q0.875 0.25 1.609375 0.734375l0 -5.109375l3.296875 -0.71875l0 17.515625l-3.25 0zm-6.671875 -6.265625q0 1.515625 1.0625 2.578125q1.0625 1.046875 2.59375 1.046875q0.90625 0 1.65625 -0.3125q0.765625 -0.3125 1.3125 -0.890625l0 -4.875q-0.515625 -0.546875 -1.296875 -0.859375q-0.78125 -0.3125 -1.671875 -0.3125q-1.5625 0 -2.609375 1.046875q-1.046875 1.046875 -1.046875 2.578125zm12.7304535 6.265625l0 -16.796875l12.984375 0l0 3.015625l-9.515625 0l0 3.96875l6.3125 0l0 2.921875l-6.3125 0l0 6.890625l-3.46875 0zm17.918457 -17.515625l0 17.515625l-3.28125 0l0 -16.796875l3.28125 -0.71875zm5.96537 18.09375l0.1875 -0.453125l-4.8750076 -12.625l3.6250076 0l3.09375 8.515625l3.546875 -8.515625l3.5625 0l-5.765625 13.484375q-0.953125 2.25 -2.234375 3.203125q-1.265625 0.96875 -3.3125076 0.96875q-0.421875 0 -0.828125 -0.03125q-0.390625 -0.03125 -0.625 -0.109375l0 -2.828125q0.234375 0.046875 0.5 0.0625q0.265625 0.03125 0.640625 0.03125q0.890625 0 1.5000076 -0.4375q0.609375 -0.421875 0.984375 -1.265625z" fill-rule="nonzero"/><path fill="#ffffff" d="m78.12207 93.87778l4.203125 -5.5l-4.0 -5.1875l1.890625 0l3.015625 4.015625l3.03125 -4.015625l1.8125 0l-3.9375 5.15625l4.21875 5.53125l-1.875 0l-3.265625 -4.34375l-3.3125 4.34375l-1.78125 0zm12.472153 -2.046875q0.453125 0 0.765625 0.328125q0.328125 0.3125 0.328125 0.765625q0 0.4375 -0.328125 0.765625q-0.3125 0.3125 -0.765625 0.3125q-0.453125 0 -0.765625 -0.3125q-0.3125 -0.328125 -0.3125 -0.765625q0 -0.453125 0.3125 -0.765625q0.3125 -0.328125 0.765625 -0.328125zm4.592041 3.4375l0.609375 -1.40625l-4.34375 -10.671875l1.75 0l3.453125 8.765625l3.734375 -8.765625l1.703125 0l-5.3125 12.28125q-0.6875 1.546875 -1.515625 2.21875q-0.828125 0.6875 -2.109375 0.6875q-0.296875 0 -0.5625 -0.03125q-0.265625 -0.03125 -0.4375 -0.078125l0 -1.421875q0.21875 0.03125 0.40625 0.046875q0.203125 0.03125 0.484375 0.03125q0.734375 0 1.234375 -0.40625q0.515625 -0.40625 0.90625 -1.25zm7.7776794 -3.4375q0.453125 0 0.765625 0.328125q0.328125 0.3125 0.328125 0.765625q0 0.4375 -0.328125 0.765625q-0.3125 0.3125 -0.765625 0.3125q-0.453125 0 -0.765625 -0.3125q-0.3125 -0.328125 -0.3125 -0.765625q0 -0.453125 0.3125 -0.765625q0.3125 -0.328125 0.765625 -0.328125zm2.8125305 2.046875l0 -1.234375l6.453125 -8.046875l-6.390625 0l0 -1.40625l8.296875 0l0 1.21875l-6.453125 8.0625l6.515625 0l0 1.40625l-8.421875 0z" fill-rule="nonzero"/><path fill="#ffffff" d="m271.7874 71.89491l66.99213 0l0 32.0l-66.99213 0z" fill-rule="evenodd"/><path stroke="#ffffff" stroke-width="1.0" stroke-linejoin="round" stroke-linecap="butt" d="m271.7874 71.89491l66.99213 0l0 32.0l-66.99213 0z" fill-rule="evenodd"/><path fill="#194d33" d="m285.48102 94.614914l0 -13.0625l5.59375 0q1.90625 0 3.078125 1.046875q1.171875 1.03125 1.171875 2.703125q0 1.296875 -0.75 2.234375q-0.75 0.921875 -2.03125 1.28125l2.9375 5.796875l-1.59375 0l-2.796875 -5.609375l-4.171875 0l0 5.609375l-1.4375 0zm5.5 -11.765625l-4.0625 0l0 4.9375l4.0625 0q1.3125 0 2.109375 -0.671875q0.796875 -0.6875 0.796875 -1.8125q0 -1.109375 -0.796875 -1.78125q-0.796875 -0.671875 -2.109375 -0.671875zm13.582672 10.78125q-0.78125 0.578125 -1.640625 0.875q-0.84375 0.28125 -1.84375 0.28125q-1.015625 0 -1.90625 -0.375q-0.875 -0.375 -1.515625 -1.03125q-0.640625 -0.65625 -1.015625 -1.53125q-0.375 -0.890625 -0.375 -1.921875q0 -1.0 0.359375 -1.875q0.359375 -0.875 0.96875 -1.53125q0.625 -0.65625 1.46875 -1.03125q0.859375 -0.375 1.8125 -0.375q0.921875 0 1.734375 0.375q0.8125 0.375 1.390625 1.03125q0.59375 0.65625 0.9375 1.53125q0.359375 0.875 0.359375 1.875l0 0.4375l-7.671875 0q0.140625 1.375 1.125 2.296875q1.0 0.90625 2.375 0.90625q0.734375 0 1.421875 -0.21875q0.6875 -0.234375 1.15625 -0.640625l0.859375 0.921875zm-3.734375 -7.296875q-1.203125 0 -2.09375 0.828125q-0.890625 0.8125 -1.078125 2.09375l6.25 0q-0.1875 -1.21875 -1.0625 -2.0625q-0.859375 -0.859375 -2.015625 -0.859375zm9.185272 8.453125q-1.53125 0 -2.5 -0.78125q-0.953125 -0.796875 -0.953125 -2.046875q0 -1.296875 1.0 -2.0625q1.015625 -0.78125 2.734375 -0.78125q0.75 0 1.4375 0.171875q0.703125 0.15625 1.296875 0.453125l0 -1.21875q0 -1.125 -0.640625 -1.6875q-0.625 -0.578125 -1.828125 -0.578125q-0.703125 0 -1.40625 0.203125q-0.6875 0.1875 -1.53125 0.625l-0.515625 -1.0625q1.0 -0.484375 1.859375 -0.703125q0.859375 -0.234375 1.71875 -0.234375q1.765625 0 2.71875 0.84375q0.96875 0.828125 0.96875 2.40625l0 6.28125l-1.34375 0l0 -0.921875q-0.625 0.546875 -1.390625 0.828125q-0.75 0.265625 -1.625 0.265625zm-2.125 -2.859375q0 0.78125 0.65625 1.28125q0.671875 0.484375 1.703125 0.484375q0.84375 0 1.53125 -0.25q0.6875 -0.265625 1.25 -0.828125l0 -1.75q-0.578125 -0.390625 -1.234375 -0.5625q-0.65625 -0.1875 -1.46875 -0.1875q-1.109375 0 -1.78125 0.5q-0.65625 0.5 -0.65625 1.3125zm16.095398 2.6875l0 -0.984375q-0.59375 0.5625 -1.375 0.859375q-0.765625 0.28125 -1.640625 0.28125q-1.0 0 -1.859375 -0.375q-0.84375 -0.375 -1.484375 -1.015625q-0.640625 -0.65625 -1.0 -1.546875q-0.359375 -0.890625 -0.359375 -1.90625q0 -1.0 0.359375 -1.890625q0.359375 -0.890625 1.0 -1.53125q0.640625 -0.640625 1.5 -1.015625q0.875 -0.375 1.859375 -0.375q0.796875 0 1.5625 0.28125q0.78125 0.265625 1.421875 0.78125l0 -4.625l1.375 -0.3125l0 13.375l-1.359375 0zm-6.359375 -4.703125q0 0.765625 0.265625 1.4375q0.28125 0.671875 0.734375 1.15625q0.46875 0.484375 1.09375 0.765625q0.640625 0.28125 1.375 0.28125q0.875 0 1.625 -0.34375q0.765625 -0.34375 1.25 -0.96875l0 -4.625q-0.484375 -0.59375 -1.25 -0.9375q-0.765625 -0.34375 -1.625 -0.34375q-1.453125 0 -2.46875 1.03125q-1.0 1.015625 -1.0 2.546875z" fill-rule="nonzero"/><path fill="#ffffff" d="m670.4725 486.5996l74.17322 -0.03152466l0 32.00003l-74.17322 0.03149414z" fill-rule="evenodd"/><path fill="#2870c2" d="m681.9357 509.31473l0 -13.0625l1.4375 -6.1035156E-4l0 5.84375l7.59375 -0.0032348633l0 -5.84375l1.4375 -6.1035156E-4l0 13.0625l-1.4375 6.1035156E-4l0 -5.9375l-7.59375 0.0032348633l0 5.9375l-1.4375 6.1035156E-4zm20.948547 -0.99328613q-0.78125 0.5784607 -1.640625 0.8757019q-0.84375 0.2816162 -1.84375 0.28204346q-1.015625 4.272461E-4 -1.90625 -0.37420654q-0.875 -0.37460327 -1.515625 -1.0305786q-0.640625 -0.65600586 -1.015625 -1.5308228q-0.375 -0.8904724 -0.375 -1.9217224q0 -1.0 0.359375 -1.8751526q0.359375 -0.8751526 0.96875 -1.5316772q0.625 -0.65649414 1.46875 -1.0318604q0.859375 -0.3753662 1.8125 -0.37576294q0.921875 -3.9672852E-4 1.734375 0.37426758q0.8125 0.3746338 1.390625 1.0306396q0.59375 0.65600586 0.9375 1.5308533q0.359375 0.8748474 0.359375 1.8748474l0 0.4375l-7.671875 0.0032653809q0.140625 1.374939 1.125 2.2963867q1.0 0.90582275 2.375 0.9052429q0.734375 -3.0517578E-4 1.421875 -0.21932983q0.6875 -0.23468018 1.15625 -0.6411438l0.859375 0.9215088zm-3.734375 -7.295288q-1.203125 5.187988E-4 -2.09375 0.8290405q-0.890625 0.8128662 -1.078125 2.0942078l6.25 -0.0026550293q-0.1875 -1.218689 -1.0625 -2.0620728q-0.859375 -0.8590088 -2.015625 -0.8585205zm9.185303 8.449249q-1.53125 6.4086914E-4 -2.5 -0.7802124q-0.953125 -0.79644775 -0.953125 -2.0464478q0 -1.296875 1.0 -2.0629272q1.015625 -0.78167725 2.734375 -0.78240967q0.75 -3.3569336E-4 1.4375 0.17126465q0.703125 0.15594482 1.296875 0.45257568l0 -1.21875q0 -1.125 -0.640625 -1.6872253q-0.625 -0.57788086 -1.828125 -0.57736206q-0.703125 3.0517578E-4 -1.40625 0.20373535q-0.6875 0.18777466 -1.53125 0.62564087l-0.515625 -1.0622864q1.0 -0.48480225 1.859375 -0.70391846q0.859375 -0.23474121 1.71875 -0.23510742q1.765625 -7.324219E-4 2.71875 0.84259033q0.96875 0.8277283 0.96875 2.4058533l0 6.28125l-1.34375 5.79834E-4l0 -0.921875q-0.625 0.54711914 -1.390625 0.82870483q-0.75 0.26593018 -1.625 0.2663269zm-2.125 -2.85849q0 0.78125 0.65625 1.2809753q0.671875 0.48410034 1.703125 0.48364258q0.84375 -3.3569336E-4 1.53125 -0.25064087q0.6875 -0.26593018 1.25 -0.8286438l0 -1.75q-0.578125 -0.39038086 -1.234375 -0.5619812q-0.65625 -0.18722534 -1.46875 -0.18688965q-1.109375 4.8828125E-4 -1.78125 0.50076294q-0.65625 0.50027466 -0.65625 1.3127747zm10.189148 -10.6918335l0 13.375l-1.390625 6.1035156E-4l0 -13.0625l1.390625 -0.31311035zm3.4968872 11.279785l0 -6.078125l-2.015625 8.544922E-4l0 -1.171875l2.015625 -8.544922E-4l0 -2.375l1.359375 -0.35995483l0 2.734375l2.828125 -0.0012207031l0 1.171875l-2.828125 0.0012207031l0 5.734375q0 0.734375 0.328125 1.0623474q0.34375 0.32800293 1.109375 0.32766724q0.390625 -1.8310547E-4 0.703125 -0.047180176q0.3125 -0.06262207 0.671875 -0.18777466l0 1.203125q-0.359375 0.14077759 -0.796875 0.1878357q-0.4375 0.062683105 -0.859375 0.06286621q-1.203125 5.187988E-4 -1.859375 -0.57733154q-0.65625 -0.57785034 -0.65625 -1.6872253zm5.6532593 2.091339l0 -13.0625l1.390625 -0.31307983l0 5.125q0.53125 -0.62524414 1.28125 -0.9536743q0.75 -0.3284607 1.65625 -0.3288269q1.59375 -6.713867E-4 2.59375 1.0145264q1.015625 0.99957275 1.015625 2.6089478l0 5.90625l-1.359375 5.79834E-4l0 -5.640625q0 -1.21875 -0.71875 -1.9528198q-0.703125 -0.73410034 -1.90625 -0.73358154q-0.828125 3.6621094E-4 -1.5 0.37564087q-0.65625 0.37527466 -1.0625 1.0629578l0 6.890625l-1.390625 5.79834E-4z" fill-rule="nonzero"/></g></svg>