<svg xmlns="http://www.w3.org/2000/svg" xmlns:xlink="http://www.w3.org/1999/xlink" width="729" height="552" viewbox="0 0 729 552"><path transform="translate(63.253362275188394 25) scale(1) translate(300 100) rotate(111.91772906453657)" d="M 32 0 L 278.68942275202534 0" fill="none" stroke="#A5ABB6" stroke-width="1"></path><polygon transform="translate(63.253362275188394 25) scale(1) translate(300 100) rotate(111.91772906453657) translate(288.1394227520253 0) rotate(0)" points="-9.45,0 -10.5,3.5 0,0 -10.5,-3.5" fill="undefined" stroke="none" stroke-width="1"></polygon><rect transform="translate(63.253362275188394 25) scale(1) translate(242.01372373994488 244.1165192404717) rotate(291.91772906453656) translate(0 -7) translate(0 0) translate(-60.26416015625 0)" x="0" y="0" width="120.5283203125" height="14" rx="2" ry="2" fill="#ffffff" stroke="none"></rect><text xml:space="preserve" transform="translate(63.253362275188394 25) scale(1) translate(242.01372373994488 244.1165192404717) rotate(291.91772906453656) translate(0 -7) translate(0 0) translate(-60.26416015625 0)" x="2" y="9.78564453125" font-family="sans-serif" font-size="10" font-weight="normal" text-anchor="left" fill="#000000">DECLARES_CAPABILITY</text><path transform="translate(63.253362275188394 25) scale(1) translate(300 100) rotate(155.64302282308424)" d="M 32 0 L 220.9009100422562 0" fill="none" stroke="#A5ABB6" stroke-width="1"></path><polygon transform="translate(63.253362275188394 25) scale(1) translate(300 100) rotate(155.64302282308424) translate(230.3509100422562 0) rotate(0)" points="-9.45,0 -10.5,3.5 0,0 -10.5,-3.5" fill="undefined" stroke="none" stroke-width="1"></polygon><rect transform="translate(63.253362275188394 25) scale(1) translate(184.80444475995188 152.15075865207874) rotate(335.64302282308427) translate(0 -7) translate(0 0) translate(-42.47119140625 0)" x="0" y="0" width="84.9423828125" height="14" rx="2" ry="2" fill="#ffffff" stroke="none"></rect><text xml:space="preserve" transform="translate(63.253362275188394 25) scale(1) translate(184.80444475995188 152.15075865207874) rotate(335.64302282308427) translate(0 -7) translate(0 0) translate(-42.47119140625 0)" x="2" y="9.78564453125" font-family="sans-serif" font-size="10" font-weight="normal" text-anchor="left" fill="#000000">HAS_ATTRIBUTE</text><path transform="translate(63.253362275188394 25) scale(1) translate(300 100) rotate(24.356977176915755)" d="M 32 0 L 220.9009100422562 0" fill="none" stroke="#A5ABB6" stroke-width="1"></path><polygon transform="translate(63.253362275188394 25) scale(1) translate(300 100) rotate(24.356977176915755) translate(230.3509100422562 0) rotate(0)" points="-9.45,0 -10.5,3.5 0,0 -10.5,-3.5" fill="undefined" stroke="none" stroke-width="1"></polygon><rect transform="translate(63.253362275188394 25) scale(1) translate(415.1955552400481 152.15075865207874) rotate(24.356977176915755) translate(0 -7) translate(0 0) translate(-27.83984375 0)" x="0" y="0" width="55.6796875" height="14" rx="2" ry="2" fill="#ffffff" stroke="none"></rect><text xml:space="preserve" transform="translate(63.253362275188394 25) scale(1) translate(415.1955552400481 152.15075865207874) rotate(24.356977176915755) translate(0 -7) translate(0 0) translate(-27.83984375 0)" x="2" y="9.78564453125" font-family="sans-serif" font-size="10" font-weight="normal" text-anchor="left" fill="#000000">PROVIDES</text><path transform="translate(63.253362275188394 25) scale(1) translate(539 208.1988909370147) rotate(90)" d="M 32 0 L 147.3511090629853 0" fill="none" stroke="#A5ABB6" stroke-width="1"></path><polygon transform="translate(63.253362275188394 25) scale(1) translate(539 208.1988909370147) rotate(90) translate(156.8011090629853 0) rotate(0)" points="-9.45,0 -10.5,3.5 0,0 -10.5,-3.5" fill="undefined" stroke="none" stroke-width="1"></polygon><rect transform="translate(63.253362275188394 25) scale(1) translate(539 297.87444546850736) rotate(270) translate(0 -7) translate(0 0) translate(-25.61572265625 0)" x="0" y="0" width="51.2314453125" height="14" rx="2" ry="2" fill="#ffffff" stroke="none"></rect><text xml:space="preserve" transform="translate(63.253362275188394 25) scale(1) translate(539 297.87444546850736) rotate(270) translate(0 -7) translate(0 0) translate(-25.61572265625 0)" x="2" y="9.78564453125" font-family="sans-serif" font-size="10" font-weight="normal" text-anchor="left" fill="#000000">ACCEPTS</text><path transform="translate(63.253362275188394 25) scale(1) translate(61 208.1988909370147) rotate(90)" d="M 32 0 L 147.3511090629853 0" fill="none" stroke="#A5ABB6" stroke-width="1"></path><polygon transform="translate(63.253362275188394 25) scale(1) translate(61 208.1988909370147) rotate(90) translate(156.8011090629853 0) rotate(0)" points="-9.45,0 -10.5,3.5 0,0 -10.5,-3.5" fill="undefined" stroke="none" stroke-width="1"></polygon><rect transform="translate(63.253362275188394 25) scale(1) translate(61.00000000000001 297.87444546850736) rotate(270) translate(0 -7) translate(0 0) translate(-35.623046875 0)" x="0" y="0" width="71.24609375" height="14" rx="2" ry="2" fill="#ffffff" stroke="none"></rect><text xml:space="preserve" transform="translate(63.253362275188394 25) scale(1) translate(61.00000000000001 297.87444546850736) rotate(270) translate(0 -7) translate(0 0) translate(-35.623046875 0)" x="2" y="9.78564453125" font-family="sans-serif" font-size="10" font-weight="normal" text-anchor="left" fill="#000000">IS_SENSITIVE</text><path transform="translate(63.253362275188394 25) scale(1) translate(539 397) rotate(180)" d="M 32 0 L 317.05 0" fill="none" stroke="#A5ABB6" stroke-width="1"></path><polygon transform="translate(63.253362275188394 25) scale(1) translate(539 397) rotate(180) translate(326.5 0) rotate(0)" points="-9.45,0 -10.5,3.5 0,0 -10.5,-3.5" fill="undefined" stroke="none" stroke-width="1"></polygon><rect transform="translate(63.253362275188394 25) scale(1) translate(364.475 397) rotate(360) translate(0 -7) translate(0 0) translate(-67.4833984375 0)" x="0" y="0" width="134.966796875" height="14" rx="2" ry="2" fill="#ffffff" stroke="none"></rect><text xml:space="preserve" transform="translate(63.253362275188394 25) scale(1) translate(364.475 397) rotate(360) translate(0 -7) translate(0 0) translate(-67.4833984375 0)" x="2" y="9.78564453125" font-family="sans-serif" font-size="10" font-weight="normal" text-anchor="left" fill="#000000">REFERENCES_CAPABILITY</text><path transform="translate(63.253362275188394 25) scale(1) translate(61 208.1988909370147) rotate(57.668595006564736)" d="M 32 0 L 181.9915108779326 0" fill="none" stroke="#A5ABB6" stroke-width="1"></path><polygon transform="translate(63.253362275188394 25) scale(1) translate(61 208.1988909370147) rotate(57.668595006564736) translate(191.4415108779326 0) rotate(0)" points="-9.45,0 -10.5,3.5 0,0 -10.5,-3.5" fill="undefined" stroke="none" stroke-width="1"></polygon><rect transform="translate(63.253362275188394 25) scale(1) translate(118.22299641064251 298.6069678092869) rotate(57.668595006564736) translate(0 -7) translate(0 0) translate(-67.4833984375 0)" x="0" y="0" width="134.966796875" height="14" rx="2" ry="2" fill="#ffffff" stroke="none"></rect><text xml:space="preserve" transform="translate(63.253362275188394 25) scale(1) translate(118.22299641064251 298.6069678092869) rotate(57.668595006564736) translate(0 -7) translate(0 0) translate(-67.4833984375 0)" x="2" y="9.78564453125" font-family="sans-serif" font-size="10" font-weight="normal" text-anchor="left" fill="#000000">REFERENCES_CAPABILITY</text><path transform="translate(63.253362275188394 25) scale(1) translate(61 208.1988909370147) rotate(151.41075570577104)" d="M 31.43914601924017 -5.964905496392636 L 49.01175678700683 -9.29893252405021 A 40 40 0 0 1 56.467888657497625 -10 L 64 -10 L 118 -10 A 10 10 0 0 1 128 -1.7763568394002505e-15 L 128 0 L 128 1.7763568394002505e-15 A 10 10 0 0 1 118 10 L 64 10 L 56.46788865749763 10 A 40 40 0 0 0 49.01175678700683 9.29893252405021 L 40.723518828047034 7.726416650796087 L 40.723518828047034 7.726416650796087" fill="none" stroke="#A5ABB6" stroke-width="1"></path><polygon transform="translate(63.253362275188394 25) scale(1) translate(61 208.1988909370147) rotate(151.41075570577104) rotate(190.74295865870295) translate(-32 0)" points="-9.45,0 -10.5,3.5 0,0 -10.5,-3.5" fill="#A5ABB6" stroke="none" stroke-width="1"></polygon><rect transform="translate(63.253362275188394 25) scale(1) translate(-42.612592899216395 264.66508075624415) rotate(61.410755705771045) translate(0 -7) translate(0 0) translate(-28.11572265625 0)" x="0" y="0" width="56.2314453125" height="14" rx="2" ry="2" fill="#ffffff" stroke="none"></rect><text xml:space="preserve" transform="translate(63.253362275188394 25) scale(1) translate(-42.612592899216395 264.66508075624415) rotate(61.410755705771045) translate(0 -7) translate(0 0) translate(-28.11572265625 0)" x="2" y="9.78564453125" font-family="sans-serif" font-size="10" font-weight="normal" text-anchor="left" fill="#000000">REQUIRES</text><path transform="translate(63.253362275188394 25) scale(1) translate(61 208.1988909370147) rotate(-147.1784885884579)" d="M 31.43914601924017 -5.964905496392636 L 49.01175678700683 -9.29893252405021 A 40 40 0 0 1 56.467888657497625 -10 L 64 -10 L 118 -10 A 10 10 0 0 1 128 -1.7763568394002505e-15 L 128 0 L 128 1.7763568394002505e-15 A 10 10 0 0 1 118 10 L 64 10 L 56.46788865749763 10 A 40 40 0 0 0 49.01175678700683 9.29893252405021 L 40.723518828047034 7.726416650796087 L 40.723518828047034 7.726416650796087" fill="none" stroke="#A5ABB6" stroke-width="1"></path><polygon transform="translate(63.253362275188394 25) scale(1) translate(61 208.1988909370147) rotate(-147.1784885884579) rotate(190.74295865870295) translate(-32 0)" points="-9.45,0 -10.5,3.5 0,0 -10.5,-3.5" fill="#A5ABB6" stroke="none" stroke-width="1"></polygon><rect transform="translate(63.253362275188394 25) scale(1) translate(-38.16285319168978 144.24008742347655) rotate(-57.17848858845789) translate(0 -7) translate(0 0) translate(-35.4375 0)" x="0" y="0" width="70.875" height="14" rx="2" ry="2" fill="#ffffff" stroke="none"></rect><text xml:space="preserve" transform="translate(63.253362275188394 25) scale(1) translate(-38.16285319168978 144.24008742347655) rotate(-57.17848858845789) translate(0 -7) translate(0 0) translate(-35.4375 0)" x="2" y="9.78564453125" font-family="sans-serif" font-size="10" font-weight="normal" text-anchor="left" fill="#000000">ALTERNATIVE</text><path transform="translate(63.253362275188394 25) scale(1) translate(61 208.1988909370147) rotate(-85.76773288268683)" d="M 31.43914601924017 -5.964905496392636 L 49.01175678700683 -9.29893252405021 A 40 40 0 0 1 56.467888657497625 -10 L 64 -10 L 118 -10 A 10 10 0 0 1 128 -1.7763568394002505e-15 L 128 0 L 128 1.7763568394002505e-15 A 10 10 0 0 1 118 10 L 64 10 L 56.46788865749763 10 A 40 40 0 0 0 49.01175678700683 9.29893252405021 L 40.723518828047034 7.726416650796087 L 40.723518828047034 7.726416650796087" fill="none" stroke="#A5ABB6" stroke-width="1"></path><polygon transform="translate(63.253362275188394 25) scale(1) translate(61 208.1988909370147) rotate(-85.76773288268683) rotate(190.74295865870295) translate(-32 0)" points="-9.45,0 -10.5,3.5 0,0 -10.5,-3.5" fill="#A5ABB6" stroke="none" stroke-width="1"></polygon><rect transform="translate(63.253362275188394 25) scale(1) translate(69.70838118161751 90.52066823971336) rotate(4.232267117313181) translate(0 -7) translate(0 0) translate(-37.283203125 0)" x="0" y="0" width="74.56640625" height="14" rx="2" ry="2" fill="#ffffff" stroke="none"></rect><text xml:space="preserve" transform="translate(63.253362275188394 25) scale(1) translate(69.70838118161751 90.52066823971336) rotate(4.232267117313181) translate(0 -7) translate(0 0) translate(-37.283203125 0)" x="2" y="9.78564453125" font-family="sans-serif" font-size="10" font-weight="normal" text-anchor="left" fill="#000000">CONSISTS_OF</text><path transform="translate(63.253362275188394 25) scale(1) translate(539 397) rotate(-22.5)" d="M 31.43914601924017 -5.964905496392636 L 49.01175678700683 -9.29893252405021 A 40 40 0 0 1 56.467888657497625 -10 L 64 -10 L 118 -10 A 10 10 0 0 1 128 -1.7763568394002505e-15 L 128 0 L 128 1.7763568394002505e-15 A 10 10 0 0 1 118 10 L 64 10 L 56.46788865749763 10 A 40 40 0 0 0 49.01175678700683 9.29893252405021 L 40.723518828047034 7.726416650796087 L 40.723518828047034 7.726416650796087" fill="none" stroke="#A5ABB6" stroke-width="1"></path><polygon transform="translate(63.253362275188394 25) scale(1) translate(539 397) rotate(-22.5) rotate(190.74295865870295) translate(-32 0)" points="-9.45,0 -10.5,3.5 0,0 -10.5,-3.5" fill="#A5ABB6" stroke="none" stroke-width="1"></polygon><rect transform="translate(63.253362275188394 25) scale(1) translate(648.0177848363319 351.8433549809194) rotate(67.5) translate(0 -7) translate(0 0) translate(-28.11572265625 0)" x="0" y="0" width="56.2314453125" height="14" rx="2" ry="2" fill="#ffffff" stroke="none"></rect><text xml:space="preserve" transform="translate(63.253362275188394 25) scale(1) translate(648.0177848363319 351.8433549809194) rotate(67.5) translate(0 -7) translate(0 0) translate(-28.11572265625 0)" x="2" y="9.78564453125" font-family="sans-serif" font-size="10" font-weight="normal" text-anchor="left" fill="#000000">REQUIRES</text><path transform="translate(63.253362275188394 25) scale(1) translate(539 397) rotate(45)" d="M 31.43914601924017 -5.964905496392636 L 49.01175678700683 -9.29893252405021 A 40 40 0 0 1 56.467888657497625 -10 L 64 -10 L 118 -10 A 10 10 0 0 1 128 -1.7763568394002505e-15 L 128 0 L 128 1.7763568394002505e-15 A 10 10 0 0 1 118 10 L 64 10 L 56.46788865749763 10 A 40 40 0 0 0 49.01175678700683 9.29893252405021 L 40.723518828047034 7.726416650796087 L 40.723518828047034 7.726416650796087" fill="none" stroke="#A5ABB6" stroke-width="1"></path><polygon transform="translate(63.253362275188394 25) scale(1) translate(539 397) rotate(45) rotate(190.74295865870295) translate(-32 0)" points="-9.45,0 -10.5,3.5 0,0 -10.5,-3.5" fill="#A5ABB6" stroke="none" stroke-width="1"></polygon><rect transform="translate(63.253362275188394 25) scale(1) translate(622.4386001800126 480.4386001800126) rotate(315) translate(0 -7) translate(0 0) translate(-35.4375 0)" x="0" y="0" width="70.875" height="14" rx="2" ry="2" fill="#ffffff" stroke="none"></rect><text xml:space="preserve" transform="translate(63.253362275188394 25) scale(1) translate(622.4386001800126 480.4386001800126) rotate(315) translate(0 -7) translate(0 0) translate(-35.4375 0)" x="2" y="9.78564453125" font-family="sans-serif" font-size="10" font-weight="normal" text-anchor="left" fill="#000000">ALTERNATIVE</text><path transform="translate(63.253362275188394 25) scale(1) translate(539 397) rotate(112.5)" d="M 31.43914601924017 -5.964905496392636 L 49.01175678700683 -9.29893252405021 A 40 40 0 0 1 56.467888657497625 -10 L 64 -10 L 118 -10 A 10 10 0 0 1 128 -1.7763568394002505e-15 L 128 0 L 128 1.7763568394002505e-15 A 10 10 0 0 1 118 10 L 64 10 L 56.46788865749763 10 A 40 40 0 0 0 49.01175678700683 9.29893252405021 L 40.723518828047034 7.726416650796087 L 40.723518828047034 7.726416650796087" fill="none" stroke="#A5ABB6" stroke-width="1"></path><polygon transform="translate(63.253362275188394 25) scale(1) translate(539 397) rotate(112.5) rotate(190.74295865870295) translate(-32 0)" points="-9.45,0 -10.5,3.5 0,0 -10.5,-3.5" fill="#A5ABB6" stroke="none" stroke-width="1"></polygon><rect transform="translate(63.253362275188394 25) scale(1) translate(493.8433549809194 506.0177848363318) rotate(22.5) translate(0 -7) translate(0 0) translate(-37.283203125 0)" x="0" y="0" width="74.56640625" height="14" rx="2" ry="2" fill="#ffffff" stroke="none"></rect><text xml:space="preserve" transform="translate(63.253362275188394 25) scale(1) translate(493.8433549809194 506.0177848363318) rotate(22.5) translate(0 -7) translate(0 0) translate(-37.283203125 0)" x="2" y="9.78564453125" font-family="sans-serif" font-size="10" font-weight="normal" text-anchor="left" fill="#000000">CONSISTS_OF</text><path transform="translate(63.253362275188394 25) scale(1) translate(300 100) rotate(-90)" d="M 31.43914601924017 -5.964905496392636 L 49.01175678700683 -9.29893252405021 A 40 40 0 0 1 56.467888657497625 -10 L 64 -10 L 118 -10 A 10 10 0 0 1 128 -1.7763568394002505e-15 L 128 0 L 128 1.7763568394002505e-15 A 10 10 0 0 1 118 10 L 64 10 L 56.46788865749763 10 A 40 40 0 0 0 49.01175678700683 9.29893252405021 L 40.723518828047034 7.726416650796087 L 40.723518828047034 7.726416650796087" fill="none" stroke="#A5ABB6" stroke-width="1"></path><polygon transform="translate(63.253362275188394 25) scale(1) translate(300 100) rotate(-90) rotate(190.74295865870295) translate(-32 0)" points="-9.45,0 -10.5,3.5 0,0 -10.5,-3.5" fill="#A5ABB6" stroke="none" stroke-width="1"></polygon><rect transform="translate(63.253362275188394 25) scale(1) translate(300 -18) rotate(0) translate(0 -7) translate(0 0) translate(-26.7265625 0)" x="0" y="0" width="53.453125" height="14" rx="2" ry="2" fill="#ffffff" stroke="none"></rect><text xml:space="preserve" transform="translate(63.253362275188394 25) scale(1) translate(300 -18) rotate(0) translate(0 -7) translate(0 0) translate(-26.7265625 0)" x="2" y="9.78564453125" font-family="sans-serif" font-size="10" font-weight="normal" text-anchor="left" fill="#000000">CHILD_OF</text><path transform="translate(63.253362275188394 25) scale(1) translate(300 100) rotate(90)" d="M 32 0 L 161.1494454685074 0" fill="none" stroke="#A5ABB6" stroke-width="1"></path><polygon transform="translate(63.253362275188394 25) scale(1) translate(300 100) rotate(90) translate(170.59944546850738 0) rotate(0)" points="-9.45,0 -10.5,3.5 0,0 -10.5,-3.5" fill="undefined" stroke="none" stroke-width="1"></polygon><rect transform="translate(63.253362275188394 25) scale(1) translate(300 196.5747227342537) rotate(270) translate(0 -13) translate(0 0) translate(-53.865234375 0)" x="0" y="0" width="107.73046875" height="14" rx="2" ry="2" fill="#ffffff" stroke="none"></rect><text xml:space="preserve" transform="translate(63.253362275188394 25) scale(1) translate(300 196.5747227342537) rotate(270) translate(0 -13) translate(0 0) translate(-53.865234375 0)" x="2" y="9.78564453125" font-family="sans-serif" font-size="10" font-weight="normal" text-anchor="left" fill="#000000">DEPRECATED_SINCE</text><rect transform="translate(63.253362275188394 25) scale(1) translate(300 196.5747227342537) rotate(270) translate(0 -13) translate(0 14) translate(-33.0712890625 0)" x="0" y="0" width="66.142578125" height="12" rx="0" ry="0" fill="white" stroke="none"></rect><text xml:space="preserve" transform="translate(63.253362275188394 25) scale(1) translate(300 196.5747227342537) rotate(270) translate(0 -13) translate(0 14) translate(-33.0712890625 0)" x="36.1328125" y="8.78564453125" font-family="sans-serif" font-size="10" font-weight="normal" text-anchor="end" fill="#000000">reason:</text><text xml:space="preserve" transform="translate(63.253362275188394 25) scale(1) translate(300 196.5747227342537) rotate(270) translate(0 -13) translate(0 14) translate(-33.0712890625 0)" x="38.9111328125" y="8.78564453125" font-family="sans-serif" font-size="10" font-weight="normal" text-anchor="start" fill="#000000">string</text><path transform="translate(63.253362275188394 25) scale(1) translate(61 208.1988909370147) rotate(21.55309803323989)" d="M 32 0 L 215.5178281338995 0" fill="none" stroke="#A5ABB6" stroke-width="1"></path><polygon transform="translate(63.253362275188394 25) scale(1) translate(61 208.1988909370147) rotate(21.55309803323989) translate(224.9678281338995 0) rotate(0)" points="-9.45,0 -10.5,3.5 0,0 -10.5,-3.5" fill="undefined" stroke="none" stroke-width="1"></polygon><rect transform="translate(63.253362275188394 25) scale(1) translate(176.10538372371047 253.6633765147491) rotate(21.55309803323989) translate(0 -13) translate(0 0) translate(-53.865234375 0)" x="0" y="0" width="107.73046875" height="14" rx="2" ry="2" fill="#ffffff" stroke="none"></rect><text xml:space="preserve" transform="translate(63.253362275188394 25) scale(1) translate(176.10538372371047 253.6633765147491) rotate(21.55309803323989) translate(0 -13) translate(0 0) translate(-53.865234375 0)" x="2" y="9.78564453125" font-family="sans-serif" font-size="10" font-weight="normal" text-anchor="left" fill="#000000">DEPRECATED_SINCE</text><rect transform="translate(63.253362275188394 25) scale(1) translate(176.10538372371047 253.6633765147491) rotate(21.55309803323989) translate(0 -13) translate(0 14) translate(-33.0712890625 0)" x="0" y="0" width="66.142578125" height="12" rx="0" ry="0" fill="white" stroke="none"></rect><text xml:space="preserve" transform="translate(63.253362275188394 25) scale(1) translate(176.10538372371047 253.6633765147491) rotate(21.55309803323989) translate(0 -13) translate(0 14) translate(-33.0712890625 0)" x="36.1328125" y="8.78564453125" font-family="sans-serif" font-size="10" font-weight="normal" text-anchor="end" fill="#000000">reason:</text><text xml:space="preserve" transform="translate(63.253362275188394 25) scale(1) translate(176.10538372371047 253.6633765147491) rotate(21.55309803323989) translate(0 -13) translate(0 14) translate(-33.0712890625 0)" x="38.9111328125" y="8.78564453125" font-family="sans-serif" font-size="10" font-weight="normal" text-anchor="start" fill="#000000">string</text><path transform="translate(63.253362275188394 25) scale(1) translate(539 208.1988909370147) rotate(158.4469019667601)" d="M 32 0 L 215.5178281338995 0" fill="none" stroke="#A5ABB6" stroke-width="1"></path><polygon transform="translate(63.253362275188394 25) scale(1) translate(539 208.1988909370147) rotate(158.4469019667601) translate(224.9678281338995 0) rotate(0)" points="-9.45,0 -10.5,3.5 0,0 -10.5,-3.5" fill="undefined" stroke="none" stroke-width="1"></polygon><rect transform="translate(63.253362275188394 25) scale(1) translate(423.8946162762895 253.66337651474913) rotate(338.4469019667601) translate(0 -13) translate(0 0) translate(-53.865234375 0)" x="0" y="0" width="107.73046875" height="14" rx="2" ry="2" fill="#ffffff" stroke="none"></rect><text xml:space="preserve" transform="translate(63.253362275188394 25) scale(1) translate(423.8946162762895 253.66337651474913) rotate(338.4469019667601) translate(0 -13) translate(0 0) translate(-53.865234375 0)" x="2" y="9.78564453125" font-family="sans-serif" font-size="10" font-weight="normal" text-anchor="left" fill="#000000">DEPRECATED_SINCE</text><rect transform="translate(63.253362275188394 25) scale(1) translate(423.8946162762895 253.66337651474913) rotate(338.4469019667601) translate(0 -13) translate(0 14) translate(-33.0712890625 0)" x="0" y="0" width="66.142578125" height="12" rx="0" ry="0" fill="white" stroke="none"></rect><text xml:space="preserve" transform="translate(63.253362275188394 25) scale(1) translate(423.8946162762895 253.66337651474913) rotate(338.4469019667601) translate(0 -13) translate(0 14) translate(-33.0712890625 0)" x="36.1328125" y="8.78564453125" font-family="sans-serif" font-size="10" font-weight="normal" text-anchor="end" fill="#000000">reason:</text><text xml:space="preserve" transform="translate(63.253362275188394 25) scale(1) translate(423.8946162762895 253.66337651474913) rotate(338.4469019667601) translate(0 -13) translate(0 14) translate(-33.0712890625 0)" x="38.9111328125" y="8.78564453125" font-family="sans-serif" font-size="10" font-weight="normal" text-anchor="start" fill="#000000">string</text><path transform="translate(63.253362275188394 25) scale(1) translate(539 397) rotate(-158.44690196676012)" d="M 32 0 L 215.5178281338995 0" fill="none" stroke="#A5ABB6" stroke-width="1"></path><polygon transform="translate(63.253362275188394 25) scale(1) translate(539 397) rotate(-158.44690196676012) translate(224.9678281338995 0) rotate(0)" points="-9.45,0 -10.5,3.5 0,0 -10.5,-3.5" fill="undefined" stroke="none" stroke-width="1"></polygon><rect transform="translate(63.253362275188394 25) scale(1) translate(423.8946162762895 351.53551442226563) rotate(21.553098033239866) translate(0 -13) translate(0 0) translate(-53.865234375 0)" x="0" y="0" width="107.73046875" height="14" rx="2" ry="2" fill="#ffffff" stroke="none"></rect><text xml:space="preserve" transform="translate(63.253362275188394 25) scale(1) translate(423.8946162762895 351.53551442226563) rotate(21.553098033239866) translate(0 -13) translate(0 0) translate(-53.865234375 0)" x="2" y="9.78564453125" font-family="sans-serif" font-size="10" font-weight="normal" text-anchor="left" fill="#000000">DEPRECATED_SINCE</text><rect transform="translate(63.253362275188394 25) scale(1) translate(423.8946162762895 351.53551442226563) rotate(21.553098033239866) translate(0 -13) translate(0 14) translate(-33.0712890625 0)" x="0" y="0" width="66.142578125" height="12" rx="0" ry="0" fill="white" stroke="none"></rect><text xml:space="preserve" transform="translate(63.253362275188394 25) scale(1) translate(423.8946162762895 351.53551442226563) rotate(21.553098033239866) translate(0 -13) translate(0 14) translate(-33.0712890625 0)" x="36.1328125" y="8.78564453125" font-family="sans-serif" font-size="10" font-weight="normal" text-anchor="end" fill="#000000">reason:</text><text xml:space="preserve" transform="translate(63.253362275188394 25) scale(1) translate(423.8946162762895 351.53551442226563) rotate(21.553098033239866) translate(0 -13) translate(0 14) translate(-33.0712890625 0)" x="38.9111328125" y="8.78564453125" font-family="sans-serif" font-size="10" font-weight="normal" text-anchor="start" fill="#000000">string</text><circle transform="translate(63.253362275188394 25) scale(1)" cx="300" cy="100" r="31" fill="#194d33" stroke="#2870c2" strokewidth="2"></circle><text xml:space="preserve" transform="translate(63.253362275188394 25) scale(1) translate(300 100) scale(0.9296875703125) translate(0 0) translate(0 0)" x="0" y="3.3427734375" font-family="sans-serif" font-size="12" font-weight="normal" text-anchor="middle" fill="#ffffff">Resource</text><circle transform="translate(63.253362275188394 25) scale(1)" cx="61" cy="208.1988909370147" r="31" fill="#68bc00" stroke="#2870c2" strokewidth="2"></circle><text xml:space="preserve" transform="translate(63.253362275188394 25) scale(1) translate(61 208.1988909370147) scale(1) translate(0 0) translate(0 0)" x="0" y="3.3427734375" font-family="sans-serif" font-size="12" font-weight="normal" text-anchor="middle" fill="#ffffff">Attribute</text><circle transform="translate(63.253362275188394 25) scale(1)" cx="539" cy="208.1988909370147" r="31" fill="#e27300" stroke="#2870c2" strokewidth="2"></circle><text xml:space="preserve" transform="translate(63.253362275188394 25) scale(1) translate(539 208.1988909370147) scale(0.9140625859375) translate(0 0) translate(0 0)" x="0" y="3.3427734375" font-family="sans-serif" font-size="12" font-weight="normal" text-anchor="middle" fill="#ffffff">Operation</text><circle transform="translate(63.253362275188394 25) scale(1)" cx="539" cy="397" r="31" fill="#fe9200" stroke="#2870c2" strokewidth="2"></circle><text xml:space="preserve" transform="translate(63.253362275188394 25) scale(1) translate(539 397) scale(0.8593751406250001) translate(0 0) translate(0 0)" x="0" y="3.3427734375" font-family="sans-serif" font-size="12" font-weight="normal" text-anchor="middle" fill="#ffffff">Parameter</text><circle transform="translate(63.253362275188394 25) scale(1)" cx="180.5" cy="397" r="31" fill="#4C8EDA" stroke="#2870c2" strokewidth="2"></circle><text xml:space="preserve" transform="translate(63.253362275188394 25) scale(1) translate(180.5 397) scale(0.9140625859375) translate(0 0) translate(0 0)" x="0" y="3.3427734375" font-family="sans-serif" font-size="12" font-weight="normal" text-anchor="middle" fill="#ffffff">Capability</text><circle transform="translate(63.253362275188394 25) scale(1)" cx="61" cy="397" r="31" fill="#d33115" stroke="#2870c2" strokewidth="2"></circle><text xml:space="preserve" transform="translate(63.253362275188394 25) scale(1) translate(61 397) scale(0.8828126171874999) translate(0 0) translate(0 0)" x="0" y="3.3427734375" font-family="sans-serif" font-size="12" font-weight="normal" text-anchor="middle" fill="#ffffff">Constraint</text><circle transform="translate(63.253362275188394 25) scale(1)" cx="300" cy="302.5994454685074" r="31" fill="#ab149e" stroke="#2870c2" strokewidth="2"></circle><text xml:space="preserve" transform="translate(63.253362275188394 25) scale(1) translate(300 302.5994454685074) scale(1) translate(0 0) translate(0 0)" x="0" y="2.78564453125" font-family="sans-serif" font-size="10" font-weight="normal" text-anchor="middle" fill="#ffffff">Version</text></svg>