<svg version="1.1" viewBox="0.0 0.0 1132.0 898.0" fill="none" stroke="none" stroke-linecap="square" stroke-miterlimit="10" xmlns:xlink="http://www.w3.org/1999/xlink" xmlns="http://www.w3.org/2000/svg"><clipPath id="p.0"><path d="m0 0l1132.0 0l0 898.0l-1132.0 0l0 -898.0z" clip-rule="nonzero"/></clipPath><g clip-path="url(#p.0)"><path fill="#000000" fill-opacity="0.0" d="m0 0l1132.0 0l0 898.0l-1132.0 0z" fill-rule="evenodd"/><path fill="#000000" fill-opacity="0.0" d="m464.33334 512.1746l-225.00789 0" fill-rule="evenodd"/><path stroke="#2870c2" stroke-width="2.0" stroke-linejoin="round" stroke-linecap="butt" d="m464.33334 512.17456l-213.00789 0" fill-rule="evenodd"/><path fill="#2870c2" stroke="#2870c2" stroke-width="2.0" stroke-linecap="butt" d="m251.32545 508.87112l-9.076187 3.3034363l9.076187 3.3034668z" fill-rule="evenodd"/><path fill="#68bc00" d="m464.36023 35.47638l205.77954 0l0 113.70079l-205.77954 0z" fill-rule="evenodd"/><path stroke="#2870c2" stroke-width="2.0" stroke-linejoin="round" stroke-linecap="butt" d="m464.36023 35.47638l205.77954 0l0 113.70079l-205.77954 0z" fill-rule="evenodd"/><path fill="#ffffff" d="m516.94836 100.866776l6.90625 -16.796875l4.03125 0l6.8125 16.796875l-3.765625 0l-1.703125 -4.421875l-6.9375 0l-1.71875 4.421875l-3.625 0zm6.4375 -7.203125l4.796875 0l-2.375 -6.1875l-2.421875 6.1875zm12.521118 7.203125l0 -12.5l3.28125 0l0 0.984375q0.71875 -0.609375 1.59375 -0.921875q0.890625 -0.3125 1.921875 -0.3125q2.15625 0 3.546875 1.40625q1.390625 1.390625 1.390625 3.5625l0 7.78125l-3.28125 0l0 -7.296875q0 -1.171875 -0.71875 -1.890625q-0.703125 -0.71875 -1.875 -0.71875q-0.8125 0 -1.484375 0.328125q-0.65625 0.3125 -1.09375 0.921875l0 8.65625l-3.28125 0zm18.185059 0.21875q-2.015625 0 -3.28125 -1.0625q-1.265625 -1.078125 -1.265625 -2.78125q0 -1.78125 1.359375 -2.78125q1.375 -1.015625 3.765625 -1.015625q0.765625 0 1.53125 0.125q0.78125 0.125 1.515625 0.359375l0 -0.890625q0 -1.078125 -0.671875 -1.625q-0.671875 -0.5625 -1.96875 -0.5625q-0.78125 0 -1.71875 0.265625q-0.921875 0.25 -2.09375 0.78125l-1.203125 -2.4375q1.46875 -0.671875 2.84375 -1.0q1.390625 -0.34375 2.734375 -0.34375q2.515625 0 3.921875 1.21875q1.40625 1.21875 1.40625 3.421875l0 8.109375l-3.25 0l0 -0.859375q-0.78125 0.546875 -1.65625 0.8125q-0.875 0.265625 -1.96875 0.265625zm-1.40625 -3.921875q0 0.734375 0.625 1.15625q0.625 0.40625 1.65625 0.40625q0.8125 0 1.484375 -0.203125q0.6875 -0.203125 1.265625 -0.578125l0 -1.875q-0.59375 -0.25 -1.265625 -0.34375q-0.65625 -0.109375 -1.375 -0.109375q-1.125 0 -1.765625 0.421875q-0.625 0.40625 -0.625 1.125zm14.054321 -13.8125l0 17.515625l-3.28125 0l0 -16.796875l3.28125 -0.71875zm5.965393 18.09375l0.1875 -0.453125l-4.875 -12.625l3.625 0l3.09375 8.515625l3.546875 -8.515625l3.5625 0l-5.765625 13.484375q-0.953125 2.25 -2.234375 3.203125q-1.265625 0.96875 -3.3125 0.96875q-0.421875 0 -0.828125 -0.03125q-0.390625 -0.03125 -0.625 -0.109375l0 -2.828125q0.234375 0.046875 0.5 0.0625q0.265625 0.03125 0.640625 0.03125q0.890625 0 1.5 -0.4375q0.609375 -0.421875 0.984375 -1.265625zm9.969055 -0.578125l0 -2.328125l6.296875 -7.421875l-6.234375 0l0 -2.75l10.453125 0l0 2.328125l-6.328125 7.40625l6.46875 0l0 2.765625l-10.65625 0zm23.451355 -1.5625q-1.140625 0.9375 -2.359375 1.375q-1.21875 0.421875 -2.703125 0.421875q-1.40625 0 -2.65625 -0.5q-1.234375 -0.5 -2.140625 -1.359375q-0.890625 -0.875 -1.40625 -2.0625q-0.515625 -1.1875 -0.515625 -2.546875q0 -1.34375 0.484375 -2.53125q0.5 -1.1875 1.359375 -2.0625q0.875 -0.890625 2.0625 -1.390625q1.1875 -0.5 2.53125 -0.5q1.3125 0 2.453125 0.515625q1.140625 0.515625 1.96875 1.40625q0.828125 0.890625 1.296875 2.125q0.46875 1.234375 0.46875 2.671875l0 0.859375l-9.3125 0q0.34375 1.1875 1.296875 1.90625q0.953125 0.71875 2.25 0.71875q0.828125 0 1.546875 -0.265625q0.71875 -0.265625 1.21875 -0.75l2.15625 1.96875zm-5.421875 -8.453125q-1.125 0 -1.953125 0.6875q-0.8125 0.6875 -1.109375 1.84375l6.109375 0q-0.3125 -1.109375 -1.140625 -1.8125q-0.828125 -0.71875 -1.90625 -0.71875zm8.282715 10.015625l0 -12.5l3.28125 0l0 1.359375q0.609375 -0.8125 1.453125 -1.234375q0.859375 -0.421875 1.890625 -0.421875q0.484375 0.03125 0.796875 0.09375q0.328125 0.0625 0.5625 0.203125l0 2.875q-0.359375 -0.171875 -0.796875 -0.25q-0.421875 -0.078125 -0.875 -0.078125q-0.96875 0 -1.765625 0.484375q-0.796875 0.46875 -1.265625 1.375l0 8.09375l-3.28125 0z" fill-rule="nonzero"/><path fill="#e27300" d="m463.11023 748.8228l205.77954 0l0 113.700806l-205.77954 0z" fill-rule="evenodd"/><path stroke="#2870c2" stroke-width="2.0" stroke-linejoin="round" stroke-linecap="butt" d="m463.11023 748.8228l205.77954 0l0 113.700806l-205.77954 0z" fill-rule="evenodd"/><path fill="#ffffff" d="m520.2358 797.4164l7.890625 0q2.515625 0 4.09375 1.28125q1.59375 1.28125 1.59375 3.328125q0 1.09375 -0.5625 2.015625q-0.546875 0.90625 -1.5 1.515625q1.203125 0.5625 1.921875 1.5625q0.71875 1.0 0.71875 2.21875q0 2.1875 -1.625 3.53125q-1.609375 1.34375 -4.25 1.34375l-8.28125 0l0 -16.796875zm7.671875 2.875l-4.203125 0l0 3.984375l4.203125 0q1.109375 0 1.78125 -0.53125q0.671875 -0.546875 0.671875 -1.453125q0 -0.921875 -0.671875 -1.453125q-0.671875 -0.546875 -1.78125 -0.546875zm0.34375 11.046875q1.203125 0 1.921875 -0.59375q0.71875 -0.59375 0.71875 -1.59375q0 -0.96875 -0.71875 -1.5625q-0.71875 -0.59375 -1.921875 -0.59375l-4.546875 0l0 4.34375l4.546875 0zm8.349548 2.875l0 -12.5l3.28125 0l0 1.359375q0.609375 -0.8125 1.453125 -1.234375q0.859375 -0.421875 1.890625 -0.421875q0.484375 0.03125 0.796875 0.09375q0.328125 0.0625 0.5625 0.203125l0 2.875q-0.359375 -0.171875 -0.796875 -0.25q-0.421875 -0.078125 -0.875 -0.078125q-0.96875 0 -1.765625 0.484375q-0.796875 0.46875 -1.265625 1.375l0 8.09375l-3.28125 0zm8.589844 -6.234375q0 -1.375 0.515625 -2.5625q0.515625 -1.1875 1.40625 -2.0625q0.90625 -0.875 2.125 -1.375q1.234375 -0.515625 2.625 -0.515625q1.390625 0 2.609375 0.515625q1.234375 0.5 2.125 1.375q0.90625 0.875 1.421875 2.0625q0.515625 1.1875 0.515625 2.5625q0 1.359375 -0.515625 2.546875q-0.515625 1.1875 -1.421875 2.0625q-0.890625 0.859375 -2.125 1.359375q-1.21875 0.5 -2.609375 0.5q-1.390625 0 -2.625 -0.5q-1.21875 -0.5 -2.125 -1.359375q-0.890625 -0.875 -1.40625 -2.0625q-0.515625 -1.1875 -0.515625 -2.546875zm6.671875 3.625q1.4375 0 2.4375 -1.0625q1.015625 -1.0625 1.015625 -2.5625q0 -1.546875 -1.015625 -2.59375q-1.0 -1.0625 -2.4375 -1.0625q-1.4375 0 -2.453125 1.0625q-1.0 1.046875 -1.0 2.59375q0 1.5 1.0 2.5625q1.015625 1.0625 2.453125 1.0625zm13.99707 2.609375l-3.171875 0l-3.4375 -12.5l3.125 0l2.0625 8.078125l2.5 -8.078125l2.765625 0l2.46875 8.078125l2.0625 -8.078125l3.0625 0l-3.453125 12.5l-3.140625 0l-2.421875 -7.984375l-2.421875 7.984375zm11.918579 -1.484375l1.640625 -2.1875q1.09375 0.71875 2.078125 1.078125q0.984375 0.34375 1.96875 0.34375q1.109375 0 1.765625 -0.359375q0.671875 -0.359375 0.671875 -0.96875q0 -0.484375 -0.375 -0.765625q-0.375 -0.28125 -1.1875 -0.40625l-2.40625 -0.359375q-1.84375 -0.296875 -2.828125 -1.203125q-0.96875 -0.90625 -0.96875 -2.421875q0 -1.796875 1.421875 -2.875q1.421875 -1.09375 3.796875 -1.09375q1.359375 0 2.65625 0.40625q1.296875 0.390625 2.46875 1.15625l-1.578125 2.109375q-1.03125 -0.59375 -1.96875 -0.890625q-0.9375 -0.296875 -1.890625 -0.296875q-0.890625 0 -1.4375 0.34375q-0.53125 0.328125 -0.53125 0.875q0 0.5 0.390625 0.78125q0.390625 0.28125 1.3125 0.390625l2.390625 0.359375q1.828125 0.265625 2.828125 1.203125q1.0 0.9375 1.0 2.375q0 0.890625 -0.421875 1.65625q-0.421875 0.75 -1.140625 1.296875q-0.71875 0.546875 -1.734375 0.859375q-1.0 0.3125 -2.1875 0.3125q-1.703125 0 -3.1875 -0.4375q-1.484375 -0.4375 -2.546875 -1.28125zm24.169617 -0.078125q-1.140625 0.9375 -2.359375 1.375q-1.21875 0.421875 -2.703125 0.421875q-1.40625 0 -2.65625 -0.5q-1.234375 -0.5 -2.140625 -1.359375q-0.890625 -0.875 -1.40625 -2.0625q-0.515625 -1.1875 -0.515625 -2.546875q0 -1.34375 0.484375 -2.53125q0.5 -1.1875 1.359375 -2.0625q0.875 -0.890625 2.0625 -1.390625q1.1875 -0.5 2.53125 -0.5q1.3125 0 2.453125 0.515625q1.140625 0.515625 1.96875 1.40625q0.828125 0.890625 1.296875 2.125q0.46875 1.234375 0.46875 2.671875l0 0.859375l-9.3125 0q0.34375 1.1875 1.296875 1.90625q0.953125 0.71875 2.25 0.71875q0.828125 0 1.546875 -0.265625q0.71875 -0.265625 1.21875 -0.75l2.15625 1.96875zm-5.421875 -8.453125q-1.125 0 -1.953125 0.6875q-0.8125 0.6875 -1.109375 1.84375l6.109375 0q-0.3125 -1.109375 -1.140625 -1.8125q-0.828125 -0.71875 -1.90625 -0.71875zm8.282715 10.015625l0 -12.5l3.28125 0l0 1.359375q0.609375 -0.8125 1.453125 -1.234375q0.859375 -0.421875 1.890625 -0.421875q0.484375 0.03125 0.796875 0.09375q0.328125 0.0625 0.5625 0.203125l0 2.875q-0.359375 -0.171875 -0.796875 -0.25q-0.421875 -0.078125 -0.875 -0.078125q-0.96875 0 -1.765625 0.484375q-0.796875 0.46875 -1.265625 1.375l0 8.09375l-3.28125 0z" fill-rule="nonzero"/><path fill="#194d33" d="m499.50787 297.3937l0 0c0 -13.834656 29.769531 -25.049866 66.49213 -25.049866c36.722595 0 66.49213 11.21521 66.49213 25.049866l0 100.19946c0 13.834656 -29.769531 25.049866 -66.49213 25.049866c-36.722595 0 -66.49213 -11.21521 -66.49213 -25.049866z" fill-rule="evenodd"/><path fill="#000000" fill-opacity="0.0" d="m632.4921 297.3937l0 0c0 13.834656 -29.769531 25.049866 -66.49213 25.049866c-36.722595 0 -66.49213 -11.21521 -66.49213 -25.049866" fill-rule="evenodd"/><path fill="#000000" fill-opacity="0.0" d="m499.50787 297.3937l0 0c0 -13.834656 29.769531 -25.049866 66.49213 -25.049866c36.722595 0 66.49213 11.21521 66.49213 25.049866l0 100.19946c0 13.834656 -29.769531 25.049866 -66.49213 25.049866c-36.722595 0 -66.49213 -11.21521 -66.49213 -25.049866z" fill-rule="evenodd"/><path stroke="#2870c2" stroke-width="2.0" stroke-linejoin="round" stroke-linecap="butt" d="m632.4921 297.3937l0 0c0 13.834656 -29.769531 25.049866 -66.49213 25.049866c-36.722595 0 -66.49213 -11.21521 -66.49213 -25.049866" fill-rule="evenodd"/><path stroke="#2870c2" stroke-width="2.0" stroke-linejoin="round" stroke-linecap="butt" d="m499.50787 297.3937l0 0c0 -13.834656 29.769531 -25.049866 66.49213 -25.049866c36.722595 0 66.49213 11.21521 66.49213 25.049866l0 100.19946c0 13.834656 -29.769531 25.049866 -66.49213 25.049866c-36.722595 0 -66.49213 -11.21521 -66.49213 -25.049866z" fill-rule="evenodd"/><path fill="#ffffff" d="m540.3965 347.74588l0 -2.90625l7.484375 0l0 6.84375q-1.09375 1.0625 -3.171875 1.875q-2.0625 0.796875 -4.171875 0.796875q-2.703125 0 -4.703125 -1.125q-2.0 -1.140625 -3.015625 -3.234375q-1.0 -2.109375 -1.0 -4.59375q0 -2.671875 1.125 -4.75q1.125 -2.09375 3.28125 -3.21875q1.65625 -0.84375 4.125 -0.84375q3.1875 0 4.984375 1.34375q1.8125 1.328125 2.328125 3.703125l-3.453125 0.640625q-0.359375 -1.265625 -1.359375 -2.0q-1.0 -0.734375 -2.5 -0.734375q-2.28125 0 -3.625 1.453125q-1.34375 1.4375 -1.34375 4.265625q0 3.0625 1.359375 4.59375q1.359375 1.53125 3.5625 1.53125q1.09375 0 2.1875 -0.421875q1.09375 -0.4375 1.890625 -1.046875l0 -2.171875l-3.984375 0zm13.808594 6.3125l-3.296875 0l0 -12.453125l3.0625 0l0 1.78125q0.78125 -1.265625 1.40625 -1.65625q0.640625 -0.40625 1.4375 -0.40625q1.125 0 2.15625 0.625l-1.015625 2.875q-0.828125 -0.546875 -1.546875 -0.546875q-0.6875 0 -1.171875 0.390625q-0.484375 0.375 -0.765625 1.375q-0.265625 1.0 -0.265625 4.171875l0 3.84375zm8.652344 -8.65625l-2.984375 -0.53125q0.5 -1.8125 1.71875 -2.671875q1.234375 -0.875 3.671875 -0.875q2.203125 0 3.28125 0.53125q1.078125 0.515625 1.515625 1.328125q0.4375 0.796875 0.4375 2.9375l-0.03125 3.84375q0 1.640625 0.15625 2.421875q0.15625 0.78125 0.59375 1.671875l-3.265625 0q-0.125 -0.328125 -0.3125 -0.96875q-0.078125 -0.296875 -0.125 -0.390625q-0.84375 0.8125 -1.8125 1.234375q-0.953125 0.40625 -2.03125 0.40625q-1.921875 0 -3.03125 -1.046875q-1.109375 -1.046875 -1.109375 -2.640625q0 -1.046875 0.5 -1.875q0.5 -0.828125 1.40625 -1.265625q0.921875 -0.4375 2.625 -0.765625q2.3125 -0.4375 3.203125 -0.8125l0 -0.328125q0 -0.953125 -0.46875 -1.34375q-0.46875 -0.40625 -1.765625 -0.40625q-0.890625 0 -1.390625 0.34375q-0.484375 0.34375 -0.78125 1.203125zm4.40625 2.671875q-0.640625 0.21875 -2.015625 0.515625q-1.359375 0.28125 -1.78125 0.5625q-0.640625 0.46875 -0.640625 1.171875q0 0.6875 0.515625 1.1875q0.515625 0.5 1.3125 0.5q0.890625 0 1.6875 -0.578125q0.609375 -0.453125 0.796875 -1.09375q0.125 -0.421875 0.125 -1.609375l0 -0.65625zm6.3789062 -6.46875l3.078125 0l0 1.828125q0.59375 -0.9375 1.609375 -1.515625q1.03125 -0.59375 2.265625 -0.59375q2.171875 0 3.671875 1.703125q1.515625 1.703125 1.515625 4.734375q0 3.125 -1.53125 4.859375q-1.515625 1.71875 -3.671875 1.71875q-1.03125 0 -1.875 -0.40625q-0.84375 -0.421875 -1.765625 -1.40625l0 6.265625l-3.296875 0l0 -17.1875zm3.265625 6.015625q0 2.09375 0.828125 3.109375q0.828125 1.0 2.03125 1.0q1.140625 0 1.90625 -0.921875q0.765625 -0.921875 0.765625 -3.015625q0 -1.96875 -0.796875 -2.90625q-0.78125 -0.953125 -1.9375 -0.953125q-1.203125 0 -2.0 0.9375q-0.796875 0.921875 -0.796875 2.75zm14.769531 -10.75l0 6.328125q1.59375 -1.875 3.8125 -1.875q1.140625 0 2.046875 0.421875q0.921875 0.421875 1.375 1.078125q0.46875 0.65625 0.640625 1.453125q0.171875 0.796875 0.171875 2.484375l0 7.296875l-3.296875 0l0 -6.578125q0 -1.953125 -0.1875 -2.484375q-0.1875 -0.53125 -0.671875 -0.828125q-0.46875 -0.3125 -1.171875 -0.3125q-0.828125 0 -1.46875 0.40625q-0.640625 0.390625 -0.953125 1.1875q-0.296875 0.796875 -0.296875 2.375l0 6.234375l-3.28125 0l0 -17.1875l3.28125 0z" fill-rule="nonzero"/><path fill="#ffffff" d="m514.37305 365.87088l6.34375 0q2.140625 0 3.265625 0.328125q1.515625 0.453125 2.59375 1.59375q1.078125 1.125 1.640625 2.78125q0.5625 1.640625 0.5625 4.0625q0 2.109375 -0.53125 3.65625q-0.640625 1.875 -1.84375 3.03125q-0.890625 0.875 -2.4375 1.375q-1.140625 0.359375 -3.0625 0.359375l-6.53125 0l0 -17.1875zm3.46875 2.90625l0 11.390625l2.59375 0q1.453125 0 2.09375 -0.171875q0.84375 -0.203125 1.390625 -0.703125q0.5625 -0.515625 0.90625 -1.671875q0.359375 -1.15625 0.359375 -3.140625q0 -2.0 -0.359375 -3.0625q-0.34375 -1.0625 -0.984375 -1.65625q-0.625 -0.609375 -1.59375 -0.8125q-0.71875 -0.171875 -2.84375 -0.171875l-1.5625 0zm16.316406 5.625l-2.984375 -0.53125q0.5 -1.8125 1.71875 -2.671875q1.234375 -0.875 3.671875 -0.875q2.203125 0 3.28125 0.53125q1.078125 0.515625 1.515625 1.328125q0.4375 0.796875 0.4375 2.9375l-0.03125 3.84375q0 1.640625 0.15625 2.421875q0.15625 0.78125 0.59375 1.671875l-3.265625 0q-0.125 -0.328125 -0.3125 -0.96875q-0.078125 -0.296875 -0.125 -0.390625q-0.84375 0.8125 -1.8125 1.234375q-0.953125 0.40625 -2.03125 0.40625q-1.921875 0 -3.03125 -1.046875q-1.109375 -1.046875 -1.109375 -2.640625q0 -1.046875 0.5 -1.875q0.5 -0.828125 1.40625 -1.265625q0.921875 -0.4375 2.625 -0.765625q2.3125 -0.4375 3.203125 -0.8125l0 -0.328125q0 -0.953125 -0.46875 -1.34375q-0.46875 -0.40625 -1.765625 -0.40625q-0.890625 0 -1.390625 0.34375q-0.484375 0.34375 -0.78125 1.203125zm4.40625 2.671875q-0.640625 0.21875 -2.015625 0.515625q-1.359375 0.28125 -1.78125 0.5625q-0.640625 0.46875 -0.640625 1.171875q0 0.6875 0.515625 1.1875q0.515625 0.5 1.3125 0.5q0.890625 0 1.6875 -0.578125q0.609375 -0.453125 0.796875 -1.09375q0.125 -0.421875 0.125 -1.609375l0 -0.65625zm12.191406 -6.46875l0 2.625l-2.25 0l0 5.015625q0 1.53125 0.0625 1.78125q0.0625 0.25 0.28125 0.421875q0.234375 0.15625 0.5625 0.15625q0.453125 0 1.328125 -0.3125l0.28125 2.546875q-1.15625 0.5 -2.609375 0.5q-0.890625 0 -1.609375 -0.296875q-0.703125 -0.296875 -1.046875 -0.765625q-0.328125 -0.484375 -0.453125 -1.296875q-0.109375 -0.578125 -0.109375 -2.3125l0 -5.4375l-1.515625 0l0 -2.625l1.515625 0l0 -2.46875l3.3125 -1.921875l0 4.390625l2.25 0zm4.7421875 3.796875l-2.984375 -0.53125q0.5 -1.8125 1.71875 -2.671875q1.234375 -0.875 3.671875 -0.875q2.203125 0 3.28125 0.53125q1.078125 0.515625 1.515625 1.328125q0.4375 0.796875 0.4375 2.9375l-0.03125 3.84375q0 1.640625 0.15625 2.421875q0.15625 0.78125 0.59375 1.671875l-3.265625 0q-0.125 -0.328125 -0.3125 -0.96875q-0.078125 -0.296875 -0.125 -0.390625q-0.84375 0.8125 -1.8125 1.234375q-0.953125 0.40625 -2.03125 0.40625q-1.921875 0 -3.03125 -1.046875q-1.109375 -1.046875 -1.109375 -2.640625q0 -1.046875 0.5 -1.875q0.5 -0.828125 1.40625 -1.265625q0.921875 -0.4375 2.625 -0.765625q2.3125 -0.4375 3.203125 -0.8125l0 -0.328125q0 -0.953125 -0.46875 -1.34375q-0.46875 -0.40625 -1.765625 -0.40625q-0.890625 0 -1.390625 0.34375q-0.484375 0.34375 -0.78125 1.203125zm4.40625 2.671875q-0.640625 0.21875 -2.015625 0.515625q-1.359375 0.28125 -1.78125 0.5625q-0.640625 0.46875 -0.640625 1.171875q0 0.6875 0.515625 1.1875q0.515625 0.5 1.3125 0.5q0.890625 0 1.6875 -0.578125q0.609375 -0.453125 0.796875 -1.09375q0.125 -0.421875 0.125 -1.609375l0 -0.65625zm6.3320312 5.984375l0 -17.1875l3.296875 0l0 6.1875q1.53125 -1.734375 3.609375 -1.734375q2.28125 0 3.765625 1.65625q1.484375 1.640625 1.484375 4.71875q0 3.1875 -1.515625 4.921875q-1.515625 1.71875 -3.6875 1.71875q-1.0625 0 -2.109375 -0.53125q-1.03125 -0.53125 -1.78125 -1.578125l0 1.828125l-3.0625 0zm3.28125 -6.5q0 1.9375 0.609375 2.859375q0.84375 1.3125 2.265625 1.3125q1.09375 0 1.859375 -0.921875q0.765625 -0.9375 0.765625 -2.9375q0 -2.140625 -0.78125 -3.078125q-0.765625 -0.9375 -1.96875 -0.9375q-1.1875 0 -1.96875 0.921875q-0.78125 0.90625 -0.78125 2.78125zm13.988281 -2.15625l-2.984375 -0.53125q0.5 -1.8125 1.71875 -2.671875q1.234375 -0.875 3.671875 -0.875q2.203125 0 3.28125 0.53125q1.078125 0.515625 1.515625 1.328125q0.4375 0.796875 0.4375 2.9375l-0.03125 3.84375q0 1.640625 0.15625 2.421875q0.15625 0.78125 0.59375 1.671875l-3.265625 0q-0.125 -0.328125 -0.3125 -0.96875q-0.078125 -0.296875 -0.125 -0.390625q-0.84375 0.8125 -1.8125 1.234375q-0.953125 0.40625 -2.03125 0.40625q-1.921875 0 -3.03125 -1.046875q-1.109375 -1.046875 -1.109375 -2.640625q0 -1.046875 0.5 -1.875q0.5 -0.828125 1.40625 -1.265625q0.921875 -0.4375 2.625 -0.765625q2.3125 -0.4375 3.203125 -0.8125l0 -0.328125q0 -0.953125 -0.46875 -1.34375q-0.46875 -0.40625 -1.765625 -0.40625q-0.890625 0 -1.390625 0.34375q-0.484375 0.34375 -0.78125 1.203125zm4.40625 2.671875q-0.640625 0.21875 -2.015625 0.515625q-1.359375 0.28125 -1.78125 0.5625q-0.640625 0.46875 -0.640625 1.171875q0 0.6875 0.515625 1.1875q0.515625 0.5 1.3125 0.5q0.890625 0 1.6875 -0.578125q0.609375 -0.453125 0.796875 -1.09375q0.125 -0.421875 0.125 -1.609375l0 -0.65625zm5.3164062 2.4375l3.3125 -0.515625q0.203125 0.96875 0.84375 1.46875q0.65625 0.5 1.8125 0.5q1.28125 0 1.921875 -0.46875q0.4375 -0.328125 0.4375 -0.890625q0 -0.375 -0.234375 -0.609375q-0.25 -0.234375 -1.109375 -0.4375q-3.984375 -0.875 -5.046875 -1.609375q-1.484375 -1.0 -1.484375 -2.796875q0 -1.625 1.28125 -2.71875q1.28125 -1.109375 3.96875 -1.109375q2.546875 0 3.78125 0.84375q1.25 0.828125 1.71875 2.453125l-3.109375 0.578125q-0.1875 -0.734375 -0.75 -1.109375q-0.5625 -0.390625 -1.59375 -0.390625q-1.296875 0 -1.859375 0.359375q-0.375 0.265625 -0.375 0.671875q0 0.34375 0.328125 0.59375q0.453125 0.328125 3.078125 0.9375q2.625 0.59375 3.671875 1.453125q1.03125 0.875 1.03125 2.453125q0 1.703125 -1.4375 2.9375q-1.421875 1.234375 -4.21875 1.234375q-2.546875 0 -4.03125 -1.03125q-1.484375 -1.03125 -1.9375 -2.796875zm21.722656 -0.421875l3.28125 0.5625q-0.640625 1.796875 -2.015625 2.75q-1.359375 0.9375 -3.40625 0.9375q-3.25 0 -4.796875 -2.125q-1.234375 -1.703125 -1.234375 -4.28125q0 -3.09375 1.609375 -4.84375q1.625 -1.765625 4.09375 -1.765625q2.78125 0 4.375 1.84375q1.609375 1.828125 1.546875 5.609375l-8.25 0q0.03125 1.46875 0.796875 2.28125q0.765625 0.8125 1.890625 0.8125q0.78125 0 1.296875 -0.421875q0.53125 -0.421875 0.8125 -1.359375zm0.1875 -3.328125q-0.046875 -1.421875 -0.75 -2.15625q-0.703125 -0.75 -1.703125 -0.75q-1.078125 0 -1.78125 0.78125q-0.703125 0.78125 -0.6875 2.125l4.921875 0z" fill-rule="nonzero"/><path fill="#000000" fill-opacity="0.0" d="m566.0 748.8228l1.2598267 -137.32281" fill-rule="evenodd"/><path stroke="#000000" stroke-width="2.0" stroke-linejoin="round" stroke-linecap="butt" d="m566.11005 736.8233l1.0397339 -113.32379" fill-rule="evenodd"/><path fill="#000000" stroke="#000000" stroke-width="2.0" stroke-linecap="butt" d="m562.80676 736.793l3.2200317 9.10614l3.3865967 -9.045532z" fill-rule="evenodd"/><path fill="#000000" stroke="#000000" stroke-width="2.0" stroke-linecap="butt" d="m570.45306 623.5298l-3.2200317 -9.106079l-3.3865967 9.045471z" fill-rule="evenodd"/><path fill="#000000" fill-opacity="0.0" d="m566.0 272.34384l1.2598267 -123.18111" fill-rule="evenodd"/><path stroke="#194d33" stroke-width="2.0" stroke-linejoin="round" stroke-linecap="butt" d="m566.12274 260.34448l1.137085 -111.18175" fill-rule="evenodd"/><path fill="#194d33" stroke="#194d33" stroke-width="2.0" stroke-linecap="butt" d="m562.81946 260.31067l3.2104492 9.109497l3.3961182 -9.041931z" fill-rule="evenodd"/><path fill="#000000" fill-opacity="0.0" d="m499.50787 347.49344c-182.0315 0 -364.063 75.1496 -364.063 150.29922" fill-rule="evenodd"/><path stroke="#194d33" stroke-width="2.0" stroke-linejoin="round" stroke-linecap="butt" d="m487.50836 347.60233l-0.7972412 0.013977051c-1.4213257 0.027191162 -2.8424072 0.058898926 -4.263153 0.09503174c-5.6829224 0.14447021 -11.360291 0.36001587 -17.02655 0.6444397c-11.33255 0.5687256 -22.620605 1.4126892 -33.819824 2.5135193c-22.398438 2.2016602 -44.441284 5.430725 -65.7731 9.540497c-42.663635 8.219482 -82.48303 19.961609 -116.61392 34.052155c-68.26181 28.181091 -113.769684 65.75589 -113.769684 103.33072" fill-rule="evenodd"/><path fill="#194d33" stroke="#194d33" stroke-width="2.0" stroke-linecap="butt" d="m487.53833 350.90564l9.045868 -3.3856812l-9.105804 -3.2209778z" fill-rule="evenodd"/><path fill="#000000" fill-opacity="0.0" d="m632.4921 347.49344c182.0315 0 364.063 75.1496 364.063 150.29922" fill-rule="evenodd"/><path stroke="#194d33" stroke-width="2.0" stroke-linejoin="round" stroke-linecap="butt" d="m644.49164 347.60233l0.7972412 0.013977051c1.4213257 0.027191162 2.8424072 0.058898926 4.2631836 0.09503174c5.6828613 0.14447021 11.3602295 0.36001587 17.02649 0.6444397c11.332581 0.5687256 22.620667 1.4126892 33.819824 2.5135193c22.398438 2.2016602 44.441345 5.430725 65.77313 9.540497c42.663635 8.219482 82.48303 19.961609 116.61395 34.052155c68.26178 28.181091 113.76965 65.75589 113.76965 103.33072" fill-rule="evenodd"/><path fill="#194d33" stroke="#194d33" stroke-width="2.0" stroke-linecap="butt" d="m644.5216 344.29898l-9.105774 3.2209778l9.045837 3.3856812z" fill-rule="evenodd"/><path fill="#000000" fill-opacity="0.0" d="m238.33333 554.65753l226.01576 0" fill-rule="evenodd"/><path stroke="#000000" stroke-width="2.0" stroke-linejoin="round" stroke-linecap="butt" d="m250.33333 554.65753l202.01576 0" fill-rule="evenodd"/><path fill="#000000" stroke="#000000" stroke-width="2.0" stroke-linecap="butt" d="m250.33333 551.35406l-9.076187 3.3034668l9.076187 3.3034668z" fill-rule="evenodd"/><path fill="#000000" stroke="#000000" stroke-width="2.0" stroke-linecap="butt" d="m452.3491 557.961l9.076172 -3.3034668l-9.076172 -3.3034668z" fill-rule="evenodd"/><path fill="#000000" fill-opacity="0.0" d="m893.6667 554.65753l-223.52759 0" fill-rule="evenodd"/><path stroke="#000000" stroke-width="2.0" stroke-linejoin="round" stroke-linecap="butt" d="m881.6667 554.65753l-199.52759 0" fill-rule="evenodd"/><path fill="#000000" stroke="#000000" stroke-width="2.0" stroke-linecap="butt" d="m881.6667 557.961l9.076172 -3.3034668l-9.076172 -3.3034668z" fill-rule="evenodd"/><path fill="#000000" stroke="#000000" stroke-width="2.0" stroke-linecap="butt" d="m682.1391 551.35406l-9.076172 3.3034668l9.076172 3.3034668z" fill-rule="evenodd"/><path fill="#ffffff" d="m324.84253 538.65753l53.007874 0l0 32.0l-53.007874 0z" fill-rule="evenodd"/><path fill="#000000" d="m336.9007 561.37756l5.421875 -13.0625l1.734375 0l5.359375 13.0625l-1.5625 0l-1.640625 -4.109375l-6.15625 0l-1.671875 4.109375l-1.484375 0zm3.65625 -5.328125l5.140625 0l-2.546875 -6.390625l-2.59375 6.390625zm10.370728 5.328125l0 -13.0625l5.671875 0q1.90625 0 3.0625 1.046875q1.15625 1.03125 1.15625 2.71875q0 1.703125 -1.171875 2.75q-1.15625 1.046875 -3.046875 1.046875l-4.234375 0l0 5.5l-1.4375 0zm5.5625 -11.765625l-4.125 0l0 5.015625l4.125 0q1.328125 0 2.109375 -0.671875q0.78125 -0.6875 0.78125 -1.84375q0 -1.15625 -0.78125 -1.828125q-0.78125 -0.671875 -2.109375 -0.671875zm6.508087 11.765625l0 -13.0625l1.4375 0l0 13.0625l-1.4375 0z" fill-rule="nonzero"/><path fill="#ffffff" d="m755.39905 538.65753l53.007874 0l0 32.0l-53.007874 0z" fill-rule="evenodd"/><path fill="#000000" d="m767.4572 561.37756l5.421875 -13.0625l1.734375 0l5.359375 13.0625l-1.5625 0l-1.640625 -4.109375l-6.15625 0l-1.671875 4.109375l-1.484375 0zm3.65625 -5.328125l5.140625 0l-2.546875 -6.390625l-2.59375 6.390625zm10.370728 5.328125l0 -13.0625l5.671875 0q1.90625 0 3.0625 1.046875q1.15625 1.03125 1.15625 2.71875q0 1.703125 -1.171875 2.75q-1.15625 1.046875 -3.046875 1.046875l-4.234375 0l0 5.5l-1.4375 0zm5.5625 -11.765625l-4.125 0l0 5.015625l4.125 0q1.328125 0 2.109375 -0.671875q0.78125 -0.6875 0.78125 -1.84375q0 -1.15625 -0.78125 -1.828125q-0.78125 -0.671875 -2.109375 -0.671875zm6.5081177 11.765625l0 -13.0625l1.4375 0l0 13.0625l-1.4375 0z" fill-rule="nonzero"/><path fill="#ffffff" d="m550.0 705.1732l0 -50.015747l32.0 0l0 50.015747z" fill-rule="evenodd"/><path fill="#000000" d="m572.72 694.61115l-13.0625 -5.421875l0 -1.734375l13.0625 -5.359375l0 1.5625l-4.109375 1.640625l0 6.15625l4.109375 1.671875l0 1.484375zm-5.328125 -3.65625l0 -5.140625l-6.390625 2.546875l6.390625 2.59375zm5.328125 -10.370728l-13.0625 0l0 -5.671875q0 -1.90625 1.046875 -3.0625q1.03125 -1.15625 2.71875 -1.15625q1.703125 0 2.75 1.171875q1.046875 1.15625 1.046875 3.046875l0 4.234375l5.5 0l0 1.4375zm-11.765625 -5.5625l0 4.125l5.015625 0l0 -4.125q0 -1.328125 -0.671875 -2.109375q-0.6875 -0.78125 -1.84375 -0.78125q-1.15625 0 -1.828125 0.78125q-0.671875 0.78125 -0.671875 2.109375zm11.765625 -6.5081177l-13.0625 0l0 -1.4375l13.0625 0l0 1.4375z" fill-rule="nonzero"/><path fill="#ffffff" d="m312.6063 496.1746l77.480316 0l0 32.00003l-77.480316 0z" fill-rule="evenodd"/><path fill="#2870c2" d="m325.7231 518.8946l0 -13.0625l1.4375 0l0 5.84375l7.59375 0l0 -5.84375l1.4375 0l0 13.0625l-1.4375 0l0 -5.9375l-7.59375 0l0 5.9375l-1.4375 0zm20.948578 -0.984375q-0.78125 0.578125 -1.640625 0.875q-0.84375 0.28125 -1.84375 0.28125q-1.015625 0 -1.90625 -0.375q-0.875 -0.375 -1.515625 -1.03125q-0.640625 -0.65625 -1.015625 -1.53125q-0.375 -0.890625 -0.375 -1.921875q0 -1.0 0.359375 -1.875q0.359375 -0.875 0.96875 -1.53125q0.625 -0.65625 1.46875 -1.03125q0.859375 -0.375 1.8125 -0.375q0.921875 0 1.734375 0.375q0.8125 0.375 1.390625 1.03125q0.59375 0.65625 0.9375 1.53125q0.359375 0.875 0.359375 1.875l0 0.4375l-7.671875 0q0.140625 1.375 1.125 2.296875q1.0 0.90625 2.375 0.90625q0.734375 0 1.421875 -0.21875q0.6875 -0.234375 1.15625 -0.640625l0.859375 0.921875zm-3.734375 -7.296875q-1.203125 0 -2.09375 0.828125q-0.890625 0.8125 -1.078125 2.09375l6.25 0q-0.1875 -1.21875 -1.0625 -2.0625q-0.859375 -0.859375 -2.015625 -0.859375zm9.185303 8.453125q-1.53125 0 -2.5 -0.78125q-0.953125 -0.796875 -0.953125 -2.046875q0 -1.296875 1.0 -2.0625q1.015625 -0.78125 2.734375 -0.78125q0.75 0 1.4375 0.171875q0.703125 0.15625 1.296875 0.453125l0 -1.21875q0 -1.125 -0.640625 -1.6875q-0.625 -0.578125 -1.828125 -0.578125q-0.703125 0 -1.40625 0.203125q-0.6875 0.1875 -1.53125 0.625l-0.515625 -1.0625q1.0 -0.484375 1.859375 -0.703125q0.859375 -0.234375 1.71875 -0.234375q1.765625 0 2.71875 0.84375q0.96875 0.828125 0.96875 2.40625l0 6.28125l-1.34375 0l0 -0.921875q-0.625 0.546875 -1.390625 0.828125q-0.75 0.265625 -1.625 0.265625zm-2.125 -2.859375q0 0.78125 0.65625 1.28125q0.671875 0.484375 1.703125 0.484375q0.84375 0 1.53125 -0.25q0.6875 -0.265625 1.25 -0.828125l0 -1.75q-0.578125 -0.390625 -1.234375 -0.5625q-0.65625 -0.1875 -1.46875 -0.1875q-1.109375 0 -1.78125 0.5q-0.65625 0.5 -0.65625 1.3125zm10.189117 -10.6875l0 13.375l-1.390625 0l0 -13.0625l1.390625 -0.3125zm3.4968872 11.28125l0 -6.078125l-2.015625 0l0 -1.171875l2.015625 0l0 -2.375l1.359375 -0.359375l0 2.734375l2.828125 0l0 1.171875l-2.828125 0l0 5.734375q0 0.734375 0.328125 1.0625q0.34375 0.328125 1.109375 0.328125q0.390625 0 0.703125 -0.046875q0.3125 -0.0625 0.671875 -0.1875l0 1.203125q-0.359375 0.140625 -0.796875 0.1875q-0.4375 0.0625 -0.859375 0.0625q-1.203125 0 -1.859375 -0.578125q-0.65625 -0.578125 -0.65625 -1.6875zm5.65329 2.09375l0 -13.0625l1.390625 -0.3125l0 5.125q0.53125 -0.625 1.28125 -0.953125q0.75 -0.328125 1.65625 -0.328125q1.59375 0 2.59375 1.015625q1.015625 1.0 1.015625 2.609375l0 5.90625l-1.359375 0l0 -5.640625q0 -1.21875 -0.71875 -1.953125q-0.703125 -0.734375 -1.90625 -0.734375q-0.828125 0 -1.5 0.375q-0.65625 0.375 -1.0625 1.0625l0 6.890625l-1.390625 0z" fill-rule="nonzero"/><path fill="#000000" fill-opacity="0.0" d="m893.89764 512.1746l-225.00787 0" fill-rule="evenodd"/><path stroke="#2870c2" stroke-width="2.0" stroke-linejoin="round" stroke-linecap="butt" d="m881.89764 512.17456l-213.00787 0" fill-rule="evenodd"/><path fill="#2870c2" stroke="#2870c2" stroke-width="2.0" stroke-linecap="butt" d="m881.89764 515.478l9.076172 -3.3034668l-9.076172 -3.3034363z" fill-rule="evenodd"/><path fill="#ffffff" d="m742.1706 496.1746l77.48035 0l0 32.00003l-77.48035 0z" fill-rule="evenodd"/><path fill="#2870c2" d="m755.2874 518.8946l0 -13.0625l1.4375 0l0 5.84375l7.59375 0l0 -5.84375l1.4375 0l0 13.0625l-1.4375 0l0 -5.9375l-7.59375 0l0 5.9375l-1.4375 0zm20.948608 -0.984375q-0.78125 0.578125 -1.640625 0.875q-0.84375 0.28125 -1.84375 0.28125q-1.015625 0 -1.90625 -0.375q-0.875 -0.375 -1.515625 -1.03125q-0.640625 -0.65625 -1.015625 -1.53125q-0.375 -0.890625 -0.375 -1.921875q0 -1.0 0.359375 -1.875q0.359375 -0.875 0.96875 -1.53125q0.625 -0.65625 1.46875 -1.03125q0.859375 -0.375 1.8125 -0.375q0.921875 0 1.734375 0.375q0.8125 0.375 1.390625 1.03125q0.59375 0.65625 0.9375 1.53125q0.359375 0.875 0.359375 1.875l0 0.4375l-7.671875 0q0.140625 1.375 1.125 2.296875q1.0 0.90625 2.375 0.90625q0.734375 0 1.421875 -0.21875q0.6875 -0.234375 1.15625 -0.640625l0.859375 0.921875zm-3.734375 -7.296875q-1.203125 0 -2.09375 0.828125q-0.890625 0.8125 -1.078125 2.09375l6.25 0q-0.1875 -1.21875 -1.0625 -2.0625q-0.859375 -0.859375 -2.015625 -0.859375zm9.185242 8.453125q-1.53125 0 -2.5 -0.78125q-0.953125 -0.796875 -0.953125 -2.046875q0 -1.296875 1.0 -2.0625q1.015625 -0.78125 2.734375 -0.78125q0.75 0 1.4375 0.171875q0.703125 0.15625 1.296875 0.453125l0 -1.21875q0 -1.125 -0.640625 -1.6875q-0.625 -0.578125 -1.828125 -0.578125q-0.703125 0 -1.40625 0.203125q-0.6875 0.1875 -1.53125 0.625l-0.515625 -1.0625q1.0 -0.484375 1.859375 -0.703125q0.859375 -0.234375 1.71875 -0.234375q1.765625 0 2.71875 0.84375q0.96875 0.828125 0.96875 2.40625l0 6.28125l-1.34375 0l0 -0.921875q-0.625 0.546875 -1.390625 0.828125q-0.75 0.265625 -1.625 0.265625zm-2.125 -2.859375q0 0.78125 0.65625 1.28125q0.671875 0.484375 1.703125 0.484375q0.84375 0 1.53125 -0.25q0.6875 -0.265625 1.25 -0.828125l0 -1.75q-0.578125 -0.390625 -1.234375 -0.5625q-0.65625 -0.1875 -1.46875 -0.1875q-1.109375 0 -1.78125 0.5q-0.65625 0.5 -0.65625 1.3125zm10.189148 -10.6875l0 13.375l-1.390625 0l0 -13.0625l1.390625 -0.3125zm3.4968872 11.28125l0 -6.078125l-2.015625 0l0 -1.171875l2.015625 0l0 -2.375l1.359375 -0.359375l0 2.734375l2.828125 0l0 1.171875l-2.828125 0l0 5.734375q0 0.734375 0.328125 1.0625q0.34375 0.328125 1.109375 0.328125q0.390625 0 0.703125 -0.046875q0.3125 -0.0625 0.671875 -0.1875l0 1.203125q-0.359375 0.140625 -0.796875 0.1875q-0.4375 0.0625 -0.859375 0.0625q-1.203125 0 -1.859375 -0.578125q-0.65625 -0.578125 -0.65625 -1.6875zm5.6532593 2.09375l0 -13.0625l1.390625 -0.3125l0 5.125q0.53125 -0.625 1.28125 -0.953125q0.75 -0.328125 1.65625 -0.328125q1.59375 0 2.59375 1.015625q1.015625 1.0 1.015625 2.609375l0 5.90625l-1.359375 0l0 -5.640625q0 -1.21875 -0.71875 -1.953125q-0.703125 -0.734375 -1.90625 -0.734375q-0.828125 0 -1.5 0.375q-0.65625 0.375 -1.0625 1.0625l0 6.890625l-1.390625 0z" fill-rule="nonzero"/><path fill="#000000" fill-opacity="0.0" d="m464.33334 597.1405l-225.00789 0" fill-rule="evenodd"/><path stroke="#d33115" stroke-width="2.0" stroke-linejoin="round" stroke-linecap="butt" d="m452.33334 597.14044l-213.00789 0" fill-rule="evenodd"/><path fill="#d33115" stroke="#d33115" stroke-width="2.0" stroke-linecap="butt" d="m452.33334 600.4439l9.076172 -3.3034668l-9.076172 -3.3034668z" fill-rule="evenodd"/><path fill="#ffffff" d="m290.3543 581.1405l121.98425 0l0 32.0l-121.98425 0z" fill-rule="evenodd"/><path fill="#d33115" d="m302.28363 599.21985q0 -2.84375 1.203125 -5.0625q1.203125 -2.21875 3.453125 -3.546875l0.71875 0.9375q-1.9375 1.125 -3.0 3.140625q-1.046875 2.015625 -1.046875 4.53125q0 2.53125 1.046875 4.546875q1.0625 2.0 3.0 3.109375l-0.71875 0.953125q-2.25 -1.34375 -3.453125 -3.5625q-1.203125 -2.21875 -1.203125 -5.046875zm18.022919 -0.875q0 2.609375 -1.46875 4.171875q-1.453125 1.546875 -3.921875 1.546875q-2.484375 0 -3.9375 -1.546875q-1.453125 -1.546875 -1.453125 -4.171875l0 -7.546875l1.4375 0l0 7.546875q0 1.984375 1.078125 3.1875q1.09375 1.203125 2.875 1.203125q1.796875 0 2.875 -1.203125q1.078125 -1.203125 1.078125 -3.1875l0 -7.546875l1.4375 0l0 7.546875zm2.3527527 5.515625l0 -9.34375l1.390625 0l0 1.09375q0.53125 -0.625 1.28125 -0.953125q0.75 -0.328125 1.65625 -0.328125q1.59375 0 2.59375 1.015625q1.015625 1.0 1.015625 2.609375l0 5.90625l-1.359375 0l0 -5.640625q0 -1.21875 -0.71875 -1.953125q-0.703125 -0.734375 -1.90625 -0.734375q-0.828125 0 -1.5 0.375q-0.65625 0.375 -1.0625 1.0625l0 6.890625l-1.390625 0zm15.132904 -4.734375q0 2.828125 -1.203125 5.046875q-1.203125 2.21875 -3.4375 3.546875l-0.734375 -0.9375q1.9375 -1.109375 2.984375 -3.125q1.0625 -2.015625 1.0625 -4.53125q0 -2.546875 -1.0625 -4.546875q-1.046875 -2.0 -2.984375 -3.125l0.734375 -0.953125q2.234375 1.34375 3.4375 3.5625q1.203125 2.21875 1.203125 5.0625zm2.3666382 4.734375l0 -9.34375l1.390625 0l0 1.328125q0.40625 -0.734375 1.078125 -1.125q0.671875 -0.40625 1.53125 -0.40625q0.25 0 0.453125 0.03125q0.21875 0.015625 0.421875 0.09375l0 1.265625q-0.25 -0.078125 -0.5 -0.125q-0.234375 -0.046875 -0.46875 -0.046875q-0.859375 0 -1.515625 0.5q-0.65625 0.5 -1.0 1.421875l0 6.40625l-1.390625 0zm13.658081 -0.984375q-0.78125 0.578125 -1.640625 0.875q-0.84375 0.28125 -1.84375 0.28125q-1.015625 0 -1.90625 -0.375q-0.875 -0.375 -1.515625 -1.03125q-0.640625 -0.65625 -1.015625 -1.53125q-0.375 -0.890625 -0.375 -1.921875q0 -1.0 0.359375 -1.875q0.359375 -0.875 0.96875 -1.53125q0.625 -0.65625 1.46875 -1.03125q0.859375 -0.375 1.8125 -0.375q0.921875 0 1.734375 0.375q0.8125 0.375 1.390625 1.03125q0.59375 0.65625 0.9375 1.53125q0.359375 0.875 0.359375 1.875l0 0.4375l-7.671875 0q0.140625 1.375 1.125 2.296875q1.0 0.90625 2.375 0.90625q0.734375 0 1.421875 -0.21875q0.6875 -0.234375 1.15625 -0.640625l0.859375 0.921875zm-3.734375 -7.296875q-1.203125 0 -2.09375 0.828125q-0.890625 0.8125 -1.078125 2.09375l6.25 0q-0.1875 -1.21875 -1.0625 -2.0625q-0.859375 -0.859375 -2.015625 -0.859375zm10.6345215 8.359375q-0.96875 0 -1.8125 -0.375q-0.84375 -0.375 -1.484375 -1.015625q-0.640625 -0.640625 -1.0 -1.515625q-0.359375 -0.890625 -0.359375 -1.890625q0 -1.015625 0.359375 -1.890625q0.359375 -0.875 1.0 -1.515625q0.640625 -0.640625 1.484375 -1.015625q0.859375 -0.375 1.859375 -0.375q0.796875 0 1.546875 0.296875q0.765625 0.28125 1.390625 0.8125l0 -0.9375l1.359375 0l0 9.5625q0 1.796875 -1.046875 2.75q-1.03125 0.96875 -2.96875 0.96875q-0.984375 0 -1.9375 -0.25q-0.9375 -0.25 -1.71875 -0.71875l0.59375 -1.078125q0.828125 0.4375 1.546875 0.640625q0.71875 0.21875 1.453125 0.21875q1.328125 0 2.015625 -0.640625q0.6875 -0.640625 0.6875 -1.859375l0 -1.25q-0.625 0.515625 -1.390625 0.796875q-0.75 0.28125 -1.578125 0.28125zm-3.296875 -4.796875q0 0.75 0.25 1.40625q0.265625 0.65625 0.71875 1.140625q0.46875 0.46875 1.09375 0.75q0.640625 0.28125 1.34375 0.28125q0.90625 0 1.640625 -0.328125q0.75 -0.34375 1.21875 -0.953125l0 -4.59375q-0.46875 -0.59375 -1.21875 -0.921875q-0.75 -0.34375 -1.640625 -0.34375q-0.71875 0 -1.34375 0.265625q-0.625 0.265625 -1.09375 0.765625q-0.453125 0.484375 -0.71875 1.140625q-0.25 0.640625 -0.25 1.390625zm10.682587 -6.421875q-0.359375 0 -0.640625 -0.28125q-0.28125 -0.28125 -0.28125 -0.65625q0 -0.390625 0.28125 -0.65625q0.28125 -0.265625 0.640625 -0.265625q0.390625 0 0.65625 0.265625q0.28125 0.265625 0.28125 0.65625q0 0.375 -0.28125 0.65625q-0.265625 0.28125 -0.65625 0.28125zm0.703125 1.796875l0 9.34375l-1.390625 0l0 -9.34375l1.390625 0zm1.3874817 8.0625l0.84375 -0.90625q0.640625 0.609375 1.421875 0.9375q0.796875 0.3125 1.625 0.3125q1.109375 0 1.8125 -0.453125q0.71875 -0.46875 0.71875 -1.21875q0 -0.59375 -0.421875 -0.9375q-0.421875 -0.359375 -1.3125 -0.484375l-1.625 -0.21875q-1.390625 -0.203125 -2.078125 -0.828125q-0.6875 -0.625 -0.6875 -1.6875q0 -1.1875 0.984375 -1.953125q1.0 -0.78125 2.53125 -0.78125q1.0 0 1.90625 0.296875q0.90625 0.296875 1.765625 0.9375l-0.71875 0.9375q-0.796875 -0.53125 -1.53125 -0.78125q-0.734375 -0.265625 -1.5 -0.265625q-0.953125 0 -1.5625 0.4375q-0.59375 0.421875 -0.59375 1.109375q0 0.59375 0.40625 0.921875q0.40625 0.328125 1.328125 0.453125l1.625 0.234375q1.390625 0.1875 2.09375 0.828125q0.703125 0.640625 0.703125 1.703125q0 0.59375 -0.296875 1.125q-0.28125 0.53125 -0.796875 0.921875q-0.515625 0.375 -1.203125 0.59375q-0.6875 0.21875 -1.5 0.21875q-1.15625 0 -2.171875 -0.375q-1.015625 -0.390625 -1.765625 -1.078125zm10.243408 -0.8125l0 -6.078125l-2.015625 0l0 -1.171875l2.015625 0l0 -2.375l1.359375 -0.359375l0 2.734375l2.828125 0l0 1.171875l-2.828125 0l0 5.734375q0 0.734375 0.328125 1.0625q0.34375 0.328125 1.109375 0.328125q0.390625 0 0.703125 -0.046875q0.3125 -0.0625 0.671875 -0.1875l0 1.203125q-0.359375 0.140625 -0.796875 0.1875q-0.4375 0.0625 -0.859375 0.0625q-1.203125 0 -1.859375 -0.578125q-0.65625 -0.578125 -0.65625 -1.6875zm13.229645 1.109375q-0.78125 0.578125 -1.640625 0.875q-0.84375 0.28125 -1.84375 0.28125q-1.015625 0 -1.90625 -0.375q-0.875 -0.375 -1.515625 -1.03125q-0.640625 -0.65625 -1.015625 -1.53125q-0.375 -0.890625 -0.375 -1.921875q0 -1.0 0.359375 -1.875q0.359375 -0.875 0.96875 -1.53125q0.625 -0.65625 1.46875 -1.03125q0.859375 -0.375 1.8125 -0.375q0.921875 0 1.734375 0.375q0.8125 0.375 1.390625 1.03125q0.59375 0.65625 0.9375 1.53125q0.359375 0.875 0.359375 1.875l0 0.4375l-7.671875 0q0.140625 1.375 1.125 2.296875q1.0 0.90625 2.375 0.90625q0.734375 0 1.421875 -0.21875q0.6875 -0.234375 1.15625 -0.640625l0.859375 0.921875zm-3.734375 -7.296875q-1.203125 0 -2.09375 0.828125q-0.890625 0.8125 -1.078125 2.09375l6.25 0q-0.1875 -1.21875 -1.0625 -2.0625q-0.859375 -0.859375 -2.015625 -0.859375zm6.3815002 8.28125l0 -9.34375l1.390625 0l0 1.328125q0.40625 -0.734375 1.078125 -1.125q0.671875 -0.40625 1.53125 -0.40625q0.25 0 0.453125 0.03125q0.21875 0.015625 0.421875 0.09375l0 1.265625q-0.25 -0.078125 -0.5 -0.125q-0.234375 -0.046875 -0.46875 -0.046875q-0.859375 0 -1.515625 0.5q-0.65625 0.5 -1.0 1.421875l0 6.40625l-1.390625 0z" fill-rule="nonzero"/><path fill="#000000" fill-opacity="0.0" d="m896.3333 597.1405l-225.00787 0" fill-rule="evenodd"/><path stroke="#d33115" stroke-width="2.0" stroke-linejoin="round" stroke-linecap="butt" d="m896.3333 597.14044l-213.00787 0" fill-rule="evenodd"/><path fill="#d33115" stroke="#d33115" stroke-width="2.0" stroke-linecap="butt" d="m683.32544 593.837l-9.076172 3.3034668l9.076172 3.3034668z" fill-rule="evenodd"/><path fill="#ffffff" d="m722.3543 581.1405l121.98425 0l0 32.0l-121.98425 0z" fill-rule="evenodd"/><path fill="#d33115" d="m734.2836 599.21985q0 -2.84375 1.203125 -5.0625q1.203125 -2.21875 3.453125 -3.546875l0.71875 0.9375q-1.9375 1.125 -3.0 3.140625q-1.046875 2.015625 -1.046875 4.53125q0 2.53125 1.046875 4.546875q1.0625 2.0 3.0 3.109375l-0.71875 0.953125q-2.25 -1.34375 -3.453125 -3.5625q-1.203125 -2.21875 -1.203125 -5.046875zm18.022888 -0.875q0 2.609375 -1.46875 4.171875q-1.453125 1.546875 -3.921875 1.546875q-2.484375 0 -3.9375 -1.546875q-1.453125 -1.546875 -1.453125 -4.171875l0 -7.546875l1.4375 0l0 7.546875q0 1.984375 1.078125 3.1875q1.09375 1.203125 2.875 1.203125q1.796875 0 2.875 -1.203125q1.078125 -1.203125 1.078125 -3.1875l0 -7.546875l1.4375 0l0 7.546875zm2.3527832 5.515625l0 -9.34375l1.390625 0l0 1.09375q0.53125 -0.625 1.28125 -0.953125q0.75 -0.328125 1.65625 -0.328125q1.59375 0 2.59375 1.015625q1.015625 1.0 1.015625 2.609375l0 5.90625l-1.359375 0l0 -5.640625q0 -1.21875 -0.71875 -1.953125q-0.703125 -0.734375 -1.90625 -0.734375q-0.828125 0 -1.5 0.375q-0.65625 0.375 -1.0625 1.0625l0 6.890625l-1.390625 0zm15.132874 -4.734375q0 2.828125 -1.203125 5.046875q-1.203125 2.21875 -3.4375 3.546875l-0.734375 -0.9375q1.9375 -1.109375 2.984375 -3.125q1.0625 -2.015625 1.0625 -4.53125q0 -2.546875 -1.0625 -4.546875q-1.046875 -2.0 -2.984375 -3.125l0.734375 -0.953125q2.234375 1.34375 3.4375 3.5625q1.203125 2.21875 1.203125 5.0625zm2.3666992 4.734375l0 -9.34375l1.390625 0l0 1.328125q0.40625 -0.734375 1.078125 -1.125q0.671875 -0.40625 1.53125 -0.40625q0.25 0 0.453125 0.03125q0.21875 0.015625 0.421875 0.09375l0 1.265625q-0.25 -0.078125 -0.5 -0.125q-0.234375 -0.046875 -0.46875 -0.046875q-0.859375 0 -1.515625 0.5q-0.65625 0.5 -1.0 1.421875l0 6.40625l-1.390625 0zm13.65802 -0.984375q-0.78125 0.578125 -1.640625 0.875q-0.84375 0.28125 -1.84375 0.28125q-1.015625 0 -1.90625 -0.375q-0.875 -0.375 -1.515625 -1.03125q-0.640625 -0.65625 -1.015625 -1.53125q-0.375 -0.890625 -0.375 -1.921875q0 -1.0 0.359375 -1.875q0.359375 -0.875 0.96875 -1.53125q0.625 -0.65625 1.46875 -1.03125q0.859375 -0.375 1.8125 -0.375q0.921875 0 1.734375 0.375q0.8125 0.375 1.390625 1.03125q0.59375 0.65625 0.9375 1.53125q0.359375 0.875 0.359375 1.875l0 0.4375l-7.671875 0q0.140625 1.375 1.125 2.296875q1.0 0.90625 2.375 0.90625q0.734375 0 1.421875 -0.21875q0.6875 -0.234375 1.15625 -0.640625l0.859375 0.921875zm-3.734375 -7.296875q-1.203125 0 -2.09375 0.828125q-0.890625 0.8125 -1.078125 2.09375l6.25 0q-0.1875 -1.21875 -1.0625 -2.0625q-0.859375 -0.859375 -2.015625 -0.859375zm10.6345825 8.359375q-0.96875 0 -1.8125 -0.375q-0.84375 -0.375 -1.484375 -1.015625q-0.640625 -0.640625 -1.0 -1.515625q-0.359375 -0.890625 -0.359375 -1.890625q0 -1.015625 0.359375 -1.890625q0.359375 -0.875 1.0 -1.515625q0.640625 -0.640625 1.484375 -1.015625q0.859375 -0.375 1.859375 -0.375q0.796875 0 1.546875 0.296875q0.765625 0.28125 1.390625 0.8125l0 -0.9375l1.359375 0l0 9.5625q0 1.796875 -1.046875 2.75q-1.03125 0.96875 -2.96875 0.96875q-0.984375 0 -1.9375 -0.25q-0.9375 -0.25 -1.71875 -0.71875l0.59375 -1.078125q0.828125 0.4375 1.546875 0.640625q0.71875 0.21875 1.453125 0.21875q1.328125 0 2.015625 -0.640625q0.6875 -0.640625 0.6875 -1.859375l0 -1.25q-0.625 0.515625 -1.390625 0.796875q-0.75 0.28125 -1.578125 0.28125zm-3.296875 -4.796875q0 0.75 0.25 1.40625q0.265625 0.65625 0.71875 1.140625q0.46875 0.46875 1.09375 0.75q0.640625 0.28125 1.34375 0.28125q0.90625 0 1.640625 -0.328125q0.75 -0.34375 1.21875 -0.953125l0 -4.59375q-0.46875 -0.59375 -1.21875 -0.921875q-0.75 -0.34375 -1.640625 -0.34375q-0.71875 0 -1.34375 0.265625q-0.625 0.265625 -1.09375 0.765625q-0.453125 0.484375 -0.71875 1.140625q-0.25 0.640625 -0.25 1.390625zm10.682556 -6.421875q-0.359375 0 -0.640625 -0.28125q-0.28125 -0.28125 -0.28125 -0.65625q0 -0.390625 0.28125 -0.65625q0.28125 -0.265625 0.640625 -0.265625q0.390625 0 0.65625 0.265625q0.28125 0.265625 0.28125 0.65625q0 0.375 -0.28125 0.65625q-0.265625 0.28125 -0.65625 0.28125zm0.703125 1.796875l0 9.34375l-1.390625 0l0 -9.34375l1.390625 0zm1.3875122 8.0625l0.84375 -0.90625q0.640625 0.609375 1.421875 0.9375q0.796875 0.3125 1.625 0.3125q1.109375 0 1.8125 -0.453125q0.71875 -0.46875 0.71875 -1.21875q0 -0.59375 -0.421875 -0.9375q-0.421875 -0.359375 -1.3125 -0.484375l-1.625 -0.21875q-1.390625 -0.203125 -2.078125 -0.828125q-0.6875 -0.625 -0.6875 -1.6875q0 -1.1875 0.984375 -1.953125q1.0 -0.78125 2.53125 -0.78125q1.0 0 1.90625 0.296875q0.90625 0.296875 1.765625 0.9375l-0.71875 0.9375q-0.796875 -0.53125 -1.53125 -0.78125q-0.734375 -0.265625 -1.5 -0.265625q-0.953125 0 -1.5625 0.4375q-0.59375 0.421875 -0.59375 1.109375q0 0.59375 0.40625 0.921875q0.40625 0.328125 1.328125 0.453125l1.625 0.234375q1.390625 0.1875 2.09375 0.828125q0.703125 0.640625 0.703125 1.703125q0 0.59375 -0.296875 1.125q-0.28125 0.53125 -0.796875 0.921875q-0.515625 0.375 -1.203125 0.59375q-0.6875 0.21875 -1.5 0.21875q-1.15625 0 -2.171875 -0.375q-1.015625 -0.390625 -1.765625 -1.078125zm10.243408 -0.8125l0 -6.078125l-2.015625 0l0 -1.171875l2.015625 0l0 -2.375l1.359375 -0.359375l0 2.734375l2.828125 0l0 1.171875l-2.828125 0l0 5.734375q0 0.734375 0.328125 1.0625q0.34375 0.328125 1.109375 0.328125q0.390625 0 0.703125 -0.046875q0.3125 -0.0625 0.671875 -0.1875l0 1.203125q-0.359375 0.140625 -0.796875 0.1875q-0.4375 0.0625 -0.859375 0.0625q-1.203125 0 -1.859375 -0.578125q-0.65625 -0.578125 -0.65625 -1.6875zm13.229614 1.109375q-0.78125 0.578125 -1.640625 0.875q-0.84375 0.28125 -1.84375 0.28125q-1.015625 0 -1.90625 -0.375q-0.875 -0.375 -1.515625 -1.03125q-0.640625 -0.65625 -1.015625 -1.53125q-0.375 -0.890625 -0.375 -1.921875q0 -1.0 0.359375 -1.875q0.359375 -0.875 0.96875 -1.53125q0.625 -0.65625 1.46875 -1.03125q0.859375 -0.375 1.8125 -0.375q0.921875 0 1.734375 0.375q0.8125 0.375 1.390625 1.03125q0.59375 0.65625 0.9375 1.53125q0.359375 0.875 0.359375 1.875l0 0.4375l-7.671875 0q0.140625 1.375 1.125 2.296875q1.0 0.90625 2.375 0.90625q0.734375 0 1.421875 -0.21875q0.6875 -0.234375 1.15625 -0.640625l0.859375 0.921875zm-3.734375 -7.296875q-1.203125 0 -2.09375 0.828125q-0.890625 0.8125 -1.078125 2.09375l6.25 0q-0.1875 -1.21875 -1.0625 -2.0625q-0.859375 -0.859375 -2.015625 -0.859375zm6.3814697 8.28125l0 -9.34375l1.390625 0l0 1.328125q0.40625 -0.734375 1.078125 -1.125q0.671875 -0.40625 1.53125 -0.40625q0.25 0 0.453125 0.03125q0.21875 0.015625 0.421875 0.09375l0 1.265625q-0.25 -0.078125 -0.5 -0.125q-0.234375 -0.046875 -0.46875 -0.046875q-0.859375 0 -1.515625 0.5q-0.65625 0.5 -1.0 1.421875l0 6.40625l-1.390625 0z" fill-rule="nonzero"/><path fill="#ab149e" d="m464.36023 497.8071l205.77954 0l0 113.700775l-205.77954 0z" fill-rule="evenodd"/><path stroke="#2870c2" stroke-width="2.0" stroke-linejoin="round" stroke-linecap="butt" d="m464.36023 497.8071l205.77954 0l0 113.700775l-205.77954 0z" fill-rule="evenodd"/><path fill="#ffffff" d="m520.6578 548.69745l0 -16.796875l8.203125 0q1.265625 0 2.328125 0.390625q1.078125 0.375 1.84375 1.0625q0.765625 0.6875 1.203125 1.640625q0.4375 0.953125 0.4375 2.109375q0 1.578125 -0.90625 2.828125q-0.890625 1.25 -2.390625 1.859375l3.71875 6.90625l-3.875 0l-3.296875 -6.4375l-3.796875 0l0 6.4375l-3.46875 0zm7.890625 -13.796875l-4.421875 0l0 4.515625l4.421875 0q1.171875 0 1.875 -0.625q0.71875 -0.625 0.71875 -1.640625q0 -1.0 -0.71875 -1.625q-0.703125 -0.625 -1.875 -0.625zm18.669678 12.234375q-1.140625 0.9375 -2.359375 1.375q-1.21875 0.421875 -2.703125 0.421875q-1.40625 0 -2.65625 -0.5q-1.234375 -0.5 -2.140625 -1.359375q-0.890625 -0.875 -1.40625 -2.0625q-0.515625 -1.1875 -0.515625 -2.546875q0 -1.34375 0.484375 -2.53125q0.5 -1.1875 1.359375 -2.0625q0.875 -0.890625 2.0625 -1.390625q1.1875 -0.5 2.53125 -0.5q1.3125 0 2.453125 0.515625q1.140625 0.515625 1.96875 1.40625q0.828125 0.890625 1.296875 2.125q0.46875 1.234375 0.46875 2.671875l0 0.859375l-9.3125 0q0.34375 1.1875 1.296875 1.90625q0.953125 0.71875 2.25 0.71875q0.828125 0 1.546875 -0.265625q0.71875 -0.265625 1.21875 -0.75l2.15625 1.96875zm-5.421875 -8.453125q-1.125 0 -1.953125 0.6875q-0.8125 0.6875 -1.109375 1.84375l6.109375 0q-0.3125 -1.109375 -1.140625 -1.8125q-0.828125 -0.71875 -1.90625 -0.71875zm14.144348 10.09375q-1.328125 0 -2.5 -0.5q-1.15625 -0.515625 -2.015625 -1.375q-0.84375 -0.859375 -1.34375 -2.015625q-0.484375 -1.171875 -0.484375 -2.53125q0 -1.3125 0.5 -2.46875q0.515625 -1.171875 1.375 -2.03125q0.859375 -0.875 2.03125 -1.359375q1.1875 -0.5 2.53125 -0.5q0.9375 0 1.78125 0.265625q0.859375 0.265625 1.59375 0.75l0 -0.8125l3.25 0l0 12.5q0 2.46875 -1.609375 3.8125q-1.59375 1.34375 -4.59375 1.34375q-1.4375 0 -2.765625 -0.296875q-1.328125 -0.28125 -2.4375 -0.828125l1.15625 -2.5625q1.03125 0.5 2.015625 0.75q0.984375 0.25 1.96875 0.25q1.453125 0 2.203125 -0.640625q0.765625 -0.625 0.765625 -1.859375l0 -1.03125q-0.734375 0.5625 -1.625 0.859375q-0.875 0.28125 -1.796875 0.28125zm-3.109375 -6.421875q0 1.515625 1.046875 2.578125q1.046875 1.046875 2.5625 1.046875q0.890625 0 1.625 -0.296875q0.75 -0.296875 1.296875 -0.828125l0 -4.921875q-0.53125 -0.515625 -1.296875 -0.8125q-0.765625 -0.3125 -1.609375 -0.3125q-1.5 0 -2.5625 1.03125q-1.0625 1.03125 -1.0625 2.515625zm14.04071 -7.640625q-0.765625 0 -1.3125 -0.546875q-0.546875 -0.5625 -0.546875 -1.328125q0 -0.765625 0.546875 -1.3125q0.546875 -0.5625 1.3125 -0.5625q0.78125 0 1.328125 0.5625q0.546875 0.546875 0.546875 1.3125q0 0.765625 -0.546875 1.328125q-0.546875 0.546875 -1.328125 0.546875zm1.65625 1.484375l0 12.5l-3.28125 0l0 -12.5l3.28125 0zm1.512207 11.015625l1.640625 -2.1875q1.09375 0.71875 2.078125 1.078125q0.984375 0.34375 1.96875 0.34375q1.109375 0 1.765625 -0.359375q0.671875 -0.359375 0.671875 -0.96875q0 -0.484375 -0.375 -0.765625q-0.375 -0.28125 -1.1875 -0.40625l-2.40625 -0.359375q-1.84375 -0.296875 -2.828125 -1.203125q-0.96875 -0.90625 -0.96875 -2.421875q0 -1.796875 1.421875 -2.875q1.421875 -1.09375 3.796875 -1.09375q1.359375 0 2.65625 0.40625q1.296875 0.390625 2.46875 1.15625l-1.578125 2.109375q-1.03125 -0.59375 -1.96875 -0.890625q-0.9375 -0.296875 -1.890625 -0.296875q-0.890625 0 -1.4375 0.34375q-0.53125 0.328125 -0.53125 0.875q0 0.5 0.390625 0.78125q0.390625 0.28125 1.3125 0.390625l2.390625 0.359375q1.828125 0.265625 2.828125 1.203125q1.0 0.9375 1.0 2.375q0 0.890625 -0.421875 1.65625q-0.421875 0.75 -1.140625 1.296875q-0.71875 0.546875 -1.734375 0.859375q-1.0 0.3125 -2.1875 0.3125q-1.703125 0 -3.1875 -0.4375q-1.484375 -0.4375 -2.546875 -1.28125zm14.309631 -2.046875l0 -6.21875l-2.5625 0l0 -2.75l2.5625 0l0 -3.203125l3.28125 -0.734375l0 3.9375l3.5625 0l0 2.75l-3.5625 0l0 5.546875q0 0.890625 0.390625 1.25q0.390625 0.359375 1.34375 0.359375q0.453125 0 0.859375 -0.0625q0.40625 -0.0625 0.890625 -0.21875l0 2.6875q-0.53125 0.15625 -1.28125 0.265625q-0.734375 0.109375 -1.265625 0.109375q-2.078125 0 -3.15625 -0.9375q-1.0625 -0.953125 -1.0625 -2.78125zm8.472839 3.53125l0 -12.5l3.28125 0l0 1.359375q0.609375 -0.8125 1.453125 -1.234375q0.859375 -0.421875 1.890625 -0.421875q0.484375 0.03125 0.796875 0.09375q0.328125 0.0625 0.5625 0.203125l0 2.875q-0.359375 -0.171875 -0.796875 -0.25q-0.421875 -0.078125 -0.875 -0.078125q-0.96875 0 -1.765625 0.484375q-0.796875 0.46875 -1.265625 1.375l0 8.09375l-3.28125 0zm13.398621 0.578125l0.1875 -0.453125l-4.875 -12.625l3.625 0l3.09375 8.515625l3.546875 -8.515625l3.5625 0l-5.765625 13.484375q-0.953125 2.25 -2.234375 3.203125q-1.265625 0.96875 -3.3125 0.96875q-0.421875 0 -0.828125 -0.03125q-0.390625 -0.03125 -0.625 -0.109375l0 -2.828125q0.234375 0.046875 0.5 0.0625q0.265625 0.03125 0.640625 0.03125q0.890625 0 1.5 -0.4375q0.609375 -0.421875 0.984375 -1.265625z" fill-rule="nonzero"/><path fill="#ffffff" d="m534.9296 569.3225q0 1.84375 -0.640625 3.4375q-0.625 1.59375 -1.75 2.734375q-1.109375 1.140625 -2.671875 1.8125q-1.5625 0.65625 -3.359375 0.65625q-1.875 0 -3.515625 -0.671875q-1.625 -0.671875 -2.8125 -1.828125q-1.1875 -1.171875 -1.890625 -2.75q-0.6875 -1.59375 -0.6875 -3.421875q0 -1.8125 0.6875 -3.390625q0.6875 -1.59375 1.875 -2.75q1.1875 -1.171875 2.8125 -1.84375q1.640625 -0.671875 3.484375 -0.671875q2.09375 0 3.9375 0.84375q1.84375 0.828125 3.046875 2.296875l-2.421875 2.234375q-0.890625 -1.0625 -2.0625 -1.625q-1.15625 -0.5625 -2.5 -0.5625q-1.125 0 -2.109375 0.421875q-0.96875 0.421875 -1.671875 1.15625q-0.703125 0.734375 -1.109375 1.734375q-0.390625 0.984375 -0.390625 2.15625q0 1.1875 0.40625 2.203125q0.40625 1.0 1.125 1.734375q0.734375 0.71875 1.71875 1.140625q1.0 0.421875 2.125 0.421875q1.78125 0 3.0625 -0.984375q1.28125 -0.984375 1.59375 -2.515625l-4.96875 0l0 -3.03125l8.6875 0l0 1.0625zm6.118469 8.59375q-2.015625 0 -3.28125 -1.0625q-1.265625 -1.078125 -1.265625 -2.78125q0 -1.78125 1.359375 -2.78125q1.375 -1.015625 3.765625 -1.015625q0.765625 0 1.53125 0.125q0.78125 0.125 1.515625 0.359375l0 -0.890625q0 -1.078125 -0.671875 -1.625q-0.671875 -0.5625 -1.96875 -0.5625q-0.78125 0 -1.71875 0.265625q-0.921875 0.25 -2.09375 0.78125l-1.203125 -2.4375q1.46875 -0.671875 2.84375 -1.0q1.390625 -0.34375 2.734375 -0.34375q2.515625 0 3.921875 1.21875q1.40625 1.21875 1.40625 3.421875l0 8.109375l-3.25 0l0 -0.859375q-0.78125 0.546875 -1.65625 0.8125q-0.875 0.265625 -1.96875 0.265625zm-1.40625 -3.921875q0 0.734375 0.625 1.15625q0.625 0.40625 1.65625 0.40625q0.8125 0 1.484375 -0.203125q0.6875 -0.203125 1.265625 -0.578125l0 -1.875q-0.59375 -0.25 -1.265625 -0.34375q-0.65625 -0.109375 -1.375 -0.109375q-1.125 0 -1.765625 0.421875q-0.625 0.40625 -0.625 1.125zm11.996216 0.171875l0 -6.21875l-2.5625 0l0 -2.75l2.5625 0l0 -3.203125l3.28125 -0.734375l0 3.9375l3.5625 0l0 2.75l-3.5625 0l0 5.546875q0 0.890625 0.390625 1.25q0.390625 0.359375 1.34375 0.359375q0.453125 0 0.859375 -0.0625q0.40625 -0.0625 0.890625 -0.21875l0 2.6875q-0.53125 0.15625 -1.28125 0.265625q-0.734375 0.109375 -1.265625 0.109375q-2.078125 0 -3.15625 -0.9375q-1.0625 -0.953125 -1.0625 -2.78125zm19.55597 1.96875q-1.140625 0.9375 -2.359375 1.375q-1.21875 0.421875 -2.703125 0.421875q-1.40625 0 -2.65625 -0.5q-1.234375 -0.5 -2.140625 -1.359375q-0.890625 -0.875 -1.40625 -2.0625q-0.515625 -1.1875 -0.515625 -2.546875q0 -1.34375 0.484375 -2.53125q0.5 -1.1875 1.359375 -2.0625q0.875 -0.890625 2.0625 -1.390625q1.1875 -0.5 2.53125 -0.5q1.3125 0 2.453125 0.515625q1.140625 0.515625 1.96875 1.40625q0.828125 0.890625 1.296875 2.125q0.46875 1.234375 0.46875 2.671875l0 0.859375l-9.3125 0q0.34375 1.1875 1.296875 1.90625q0.953125 0.71875 2.25 0.71875q0.828125 0 1.546875 -0.265625q0.71875 -0.265625 1.21875 -0.75l2.15625 1.96875zm-5.421875 -8.453125q-1.125 0 -1.953125 0.6875q-0.8125 0.6875 -1.109375 1.84375l6.109375 0q-0.3125 -1.109375 -1.140625 -1.8125q-0.828125 -0.71875 -1.90625 -0.71875zm13.5896 10.015625l-3.171875 0l-3.4375 -12.5l3.125 0l2.0625 8.078125l2.5 -8.078125l2.765625 0l2.46875 8.078125l2.0625 -8.078125l3.0625 0l-3.453125 12.5l-3.140625 0l-2.421875 -7.984375l-2.421875 7.984375zm16.742188 0.21875q-2.015625 0 -3.28125 -1.0625q-1.265625 -1.078125 -1.265625 -2.78125q0 -1.78125 1.359375 -2.78125q1.375 -1.015625 3.765625 -1.015625q0.765625 0 1.53125 0.125q0.78125 0.125 1.515625 0.359375l0 -0.890625q0 -1.078125 -0.671875 -1.625q-0.671875 -0.5625 -1.96875 -0.5625q-0.78125 0 -1.71875 0.265625q-0.921875 0.25 -2.09375 0.78125l-1.203125 -2.4375q1.46875 -0.671875 2.84375 -1.0q1.390625 -0.34375 2.734375 -0.34375q2.515625 0 3.921875 1.21875q1.40625 1.21875 1.40625 3.421875l0 8.109375l-3.25 0l0 -0.859375q-0.78125 0.546875 -1.65625 0.8125q-0.875 0.265625 -1.96875 0.265625zm-1.40625 -3.921875q0 0.734375 0.625 1.15625q0.625 0.40625 1.65625 0.40625q0.8125 0 1.484375 -0.203125q0.6875 -0.203125 1.265625 -0.578125l0 -1.875q-0.59375 -0.25 -1.265625 -0.34375q-0.65625 -0.109375 -1.375 -0.109375q-1.125 0 -1.765625 0.421875q-0.625 0.40625 -0.625 1.125zm13.923706 4.28125l0.1875 -0.453125l-4.875 -12.625l3.625 0l3.09375 8.515625l3.546875 -8.515625l3.5625 0l-5.765625 13.484375q-0.953125 2.25 -2.234375 3.203125q-1.265625 0.96875 -3.3125 0.96875q-0.421875 0 -0.828125 -0.03125q-0.390625 -0.03125 -0.625 -0.109375l0 -2.828125q0.234375 0.046875 0.5 0.0625q0.265625 0.03125 0.640625 0.03125q0.890625 0 1.5 -0.4375q0.609375 -0.421875 0.984375 -1.265625z" fill-rule="nonzero"/><path fill="#4c8eda" d="m32.553806 497.8071l205.77953 0l0 113.700775l-205.77953 0z" fill-rule="evenodd"/><path stroke="#2870c2" stroke-width="2.0" stroke-linejoin="round" stroke-linecap="butt" d="m32.553806 497.8071l205.77953 0l0 113.700775l-205.77953 0z" fill-rule="evenodd"/><path fill="#ffffff" d="m110.40692 561.9944l-5.796875 -11.15625l0 12.359375l-3.21875 0l0 -16.796875l4.453125 0l4.609375 9.015625l4.609375 -9.015625l4.46875 0l0 16.796875l-3.28125 0l0 -12.34375l-5.84375 11.140625zm11.355438 -5.03125q0 -1.375 0.515625 -2.5625q0.515625 -1.1875 1.40625 -2.0625q0.90625 -0.875 2.125 -1.375q1.234375 -0.515625 2.625 -0.515625q1.390625 0 2.609375 0.515625q1.234375 0.5 2.125 1.375q0.90625 0.875 1.421875 2.0625q0.515625 1.1875 0.515625 2.5625q0 1.359375 -0.515625 2.546875q-0.515625 1.1875 -1.421875 2.0625q-0.890625 0.859375 -2.125 1.359375q-1.21875 0.5 -2.609375 0.5q-1.390625 0 -2.625 -0.5q-1.21875 -0.5 -2.125 -1.359375q-0.890625 -0.875 -1.40625 -2.0625q-0.515625 -1.1875 -0.515625 -2.546875zm6.671875 3.625q1.4375 0 2.4375 -1.0625q1.015625 -1.0625 1.015625 -2.5625q0 -1.546875 -1.015625 -2.59375q-1.0 -1.0625 -2.4375 -1.0625q-1.4375 0 -2.453125 1.0625q-1.0 1.046875 -1.0 2.59375q0 1.5 1.0 2.5625q1.015625 1.0625 2.453125 1.0625zm18.114319 2.609375l0 -1.03125q-0.734375 0.59375 -1.65625 0.90625q-0.90625 0.296875 -1.890625 0.296875q-1.3125 0 -2.484375 -0.5q-1.15625 -0.515625 -2.03125 -1.375q-0.859375 -0.859375 -1.359375 -2.03125q-0.484375 -1.1875 -0.484375 -2.53125q0 -1.34375 0.5 -2.515625q0.515625 -1.171875 1.375 -2.03125q0.859375 -0.875 2.046875 -1.359375q1.1875 -0.5 2.53125 -0.5q0.921875 0 1.796875 0.25q0.875 0.25 1.609375 0.734375l0 -5.109375l3.296875 -0.71875l0 17.515625l-3.25 0zm-6.671875 -6.265625q0 1.515625 1.0625 2.578125q1.0625 1.046875 2.59375 1.046875q0.90625 0 1.65625 -0.3125q0.765625 -0.3125 1.3125 -0.890625l0 -4.875q-0.515625 -0.546875 -1.296875 -0.859375q-0.78125 -0.3125 -1.671875 -0.3125q-1.5625 0 -2.609375 1.046875q-1.046875 1.046875 -1.046875 2.578125zm23.714828 4.703125q-1.140625 0.9375 -2.359375 1.375q-1.21875 0.421875 -2.703125 0.421875q-1.40625 0 -2.65625 -0.5q-1.234375 -0.5 -2.140625 -1.359375q-0.890625 -0.875 -1.40625 -2.0625q-0.515625 -1.1875 -0.515625 -2.546875q0 -1.34375 0.484375 -2.53125q0.5 -1.1875 1.359375 -2.0625q0.875 -0.890625 2.0625 -1.390625q1.1875 -0.5 2.53125 -0.5q1.3125 0 2.453125 0.515625q1.140625 0.515625 1.96875 1.40625q0.828125 0.890625 1.296875 2.125q0.46875 1.234375 0.46875 2.671875l0 0.859375l-9.3125 0q0.34375 1.1875 1.296875 1.90625q0.953125 0.71875 2.25 0.71875q0.828125 0 1.546875 -0.265625q0.71875 -0.265625 1.21875 -0.75l2.15625 1.96875zm-5.421875 -8.453125q-1.125 0 -1.953125 0.6875q-0.8125 0.6875 -1.109375 1.84375l6.109375 0q-0.3125 -1.109375 -1.140625 -1.8125q-0.828125 -0.71875 -1.90625 -0.71875zm11.563965 -7.5l0 17.515625l-3.28125 0l0 -16.796875l3.28125 -0.71875z" fill-rule="nonzero"/><path fill="#4c8eda" d="m893.6667 497.8071l205.77948 0l0 113.700775l-205.77948 0z" fill-rule="evenodd"/><path stroke="#2870c2" stroke-width="2.0" stroke-linejoin="round" stroke-linecap="butt" d="m893.6667 497.8071l205.77948 0l0 113.700775l-205.77948 0z" fill-rule="evenodd"/><path fill="#ffffff" d="m975.8241 563.1975l0 -16.796875l6.453125 0q1.875 0 3.5 0.65625q1.640625 0.640625 2.828125 1.765625q1.1875 1.125 1.859375 2.6875q0.6875 1.5625 0.6875 3.328125q0 1.765625 -0.6875 3.296875q-0.671875 1.53125 -1.859375 2.65625q-1.1875 1.109375 -2.828125 1.765625q-1.625 0.640625 -3.5 0.640625l-6.453125 0zm6.421875 -13.703125l-2.953125 0l0 10.609375l2.953125 0q1.109375 0 2.078125 -0.40625q0.96875 -0.40625 1.6875 -1.109375q0.734375 -0.71875 1.140625 -1.671875q0.40625 -0.96875 0.40625 -2.078125q0 -1.125 -0.40625 -2.109375q-0.40625 -0.984375 -1.140625 -1.703125q-0.71875 -0.71875 -1.6875 -1.125q-0.96875 -0.40625 -2.078125 -0.40625zm12.69635 -0.28125q-0.765625 0 -1.3125 -0.546875q-0.546875 -0.5625 -0.546875 -1.328125q0 -0.765625 0.546875 -1.3125q0.546875 -0.5625 1.3125 -0.5625q0.78125 0 1.328125 0.5625q0.546875 0.546875 0.546875 1.3125q0 0.765625 -0.546875 1.328125q-0.546875 0.546875 -1.328125 0.546875zm1.65625 1.484375l0 12.5l-3.28125 0l0 -12.5l3.28125 0zm1.715332 0l2.78125 0l0 -1.203125q0 -2.09375 1.21875 -3.21875q1.21875 -1.125 3.53125 -1.125q0.5 0 1.03125 0.0625q0.53125 0.0625 0.90625 0.15625l0 2.75q-0.453125 -0.09375 -0.796875 -0.140625q-0.34375 -0.046875 -0.734375 -0.046875q-0.9375 0 -1.40625 0.40625q-0.46875 0.40625 -0.46875 1.234375l0 1.125l3.40625 0l0 2.75l-3.40625 0l0 9.75l-3.28125 0l0 -9.75l-2.78125 0l0 -2.75zm10.583984 0l2.78125 0l0 -1.203125q0 -2.09375 1.21875 -3.21875q1.21875 -1.125 3.53125 -1.125q0.5 0 1.03125 0.0625q0.53125 0.0625 0.90625 0.15625l0 2.75q-0.453125 -0.09375 -0.796875 -0.140625q-0.34375 -0.046875 -0.734375 -0.046875q-0.9375 0 -1.40625 0.40625q-0.46875 0.40625 -0.46875 1.234375l0 1.125l3.40625 0l0 2.75l-3.40625 0l0 9.75l-3.28125 0l0 -9.75l-2.78125 0l0 -2.75z" fill-rule="nonzero"/><path fill="#ffffff" d="m550.0 244.25722l0 -66.99213l32.0 0l0 66.99213z" fill-rule="evenodd"/><path stroke="#ffffff" stroke-width="1.0" stroke-linejoin="round" stroke-linecap="butt" d="m550.0 244.25722l0 -66.99213l32.0 0l0 66.99213z" fill-rule="evenodd"/><path fill="#194d33" d="m572.72 227.48969l0 1.453125l-13.0625 2.8125l0 -1.453125l10.78125 -2.21875l-10.78125 -3.234375l0 -1.390625l10.75 -3.234375l-10.75 -2.234375l0 -1.40625l13.0625 2.828125l0 1.453125l-11.0625 3.296875l11.0625 3.328125zm0 -12.331482l-9.34375 0l0 -1.390625l1.328125 0q-0.734375 -0.40625 -1.125 -1.078125q-0.40625 -0.671875 -0.40625 -1.53125q0 -0.25 0.03125 -0.453125q0.015625 -0.21875 0.09375 -0.421875l1.265625 0q-0.078125 0.25 -0.125 0.5q-0.046875 0.234375 -0.046875 0.46875q0 0.859375 0.5 1.515625q0.5 0.65625 1.421875 1.0l6.40625 0l0 1.390625zm-11.140625 -7.142563q0 0.359375 -0.28125 0.640625q-0.28125 0.28125 -0.65625 0.28125q-0.390625 0 -0.65625 -0.28125q-0.265625 -0.28125 -0.265625 -0.640625q0 -0.390625 0.265625 -0.65625q0.265625 -0.28125 0.65625 -0.28125q0.375 0 0.65625 0.28125q0.28125 0.265625 0.28125 0.65625zm1.796875 -0.703125l9.34375 0l0 1.390625l-9.34375 0l0 -1.390625zm7.25 -3.496872l-6.078125 0l0 2.015625l-1.171875 0l0 -2.015625l-2.375 0l-0.359375 -1.359375l2.734375 0l0 -2.828125l1.171875 0l0 2.828125l5.734375 0q0.734375 0 1.0625 -0.328125q0.328125 -0.34375 0.328125 -1.109375q0 -0.390625 -0.046875 -0.703125q-0.0625 -0.3125 -0.1875 -0.671875l1.203125 0q0.140625 0.359375 0.1875 0.796875q0.0625 0.4375 0.0625 0.859375q0 1.203125 -0.578125 1.859375q-0.578125 0.65625 -1.6875 0.65625zm1.109375 -13.2296295q0.578125 0.78125 0.875 1.640625q0.28125 0.84375 0.28125 1.84375q0 1.015625 -0.375 1.90625q-0.375 0.875 -1.03125 1.515625q-0.65625 0.640625 -1.53125 1.015625q-0.890625 0.375 -1.921875 0.375q-1.0 0 -1.875 -0.359375q-0.875 -0.359375 -1.53125 -0.96875q-0.65625 -0.625 -1.03125 -1.46875q-0.375 -0.859375 -0.375 -1.8125q0 -0.921875 0.375 -1.734375q0.375 -0.8125 1.03125 -1.390625q0.65625 -0.59375 1.53125 -0.9375q0.875 -0.359375 1.875 -0.359375l0.4375 0l0 7.671875q1.375 -0.140625 2.296875 -1.125q0.90625 -1.0 0.90625 -2.375q0 -0.734375 -0.21875 -1.421875q-0.234375 -0.6875 -0.640625 -1.15625l0.921875 -0.859375zm-7.296875 3.734375q0 1.203125 0.828125 2.09375q0.8125 0.890625 2.09375 1.078125l0 -6.25q-1.21875 0.1875 -2.0625 1.0625q-0.859375 0.859375 -0.859375 2.015625z" fill-rule="nonzero"/><path fill="#ffffff" d="m290.97375 355.49344l67.02362 0l0 32.0l-67.02362 0z" fill-rule="evenodd"/><path fill="#194d33" d="m304.6831 378.21344l0 -13.0625l5.59375 0q1.90625 0 3.078125 1.046875q1.171875 1.03125 1.171875 2.703125q0 1.296875 -0.75 2.234375q-0.75 0.921875 -2.03125 1.28125l2.9375 5.796875l-1.59375 0l-2.796875 -5.609375l-4.171875 0l0 5.609375l-1.4375 0zm5.5 -11.765625l-4.0625 0l0 4.9375l4.0625 0q1.3125 0 2.109375 -0.671875q0.796875 -0.6875 0.796875 -1.8125q0 -1.109375 -0.796875 -1.78125q-0.796875 -0.671875 -2.109375 -0.671875zm13.582672 10.78125q-0.78125 0.578125 -1.640625 0.875q-0.84375 0.28125 -1.84375 0.28125q-1.015625 0 -1.90625 -0.375q-0.875 -0.375 -1.515625 -1.03125q-0.640625 -0.65625 -1.015625 -1.53125q-0.375 -0.890625 -0.375 -1.921875q0 -1.0 0.359375 -1.875q0.359375 -0.875 0.96875 -1.53125q0.625 -0.65625 1.46875 -1.03125q0.859375 -0.375 1.8125 -0.375q0.921875 0 1.734375 0.375q0.8125 0.375 1.390625 1.03125q0.59375 0.65625 0.9375 1.53125q0.359375 0.875 0.359375 1.875l0 0.4375l-7.671875 0q0.140625 1.375 1.125 2.296875q1.0 0.90625 2.375 0.90625q0.734375 0 1.421875 -0.21875q0.6875 -0.234375 1.15625 -0.640625l0.859375 0.921875zm-3.734375 -7.296875q-1.203125 0 -2.09375 0.828125q-0.890625 0.8125 -1.078125 2.09375l6.25 0q-0.1875 -1.21875 -1.0625 -2.0625q-0.859375 -0.859375 -2.015625 -0.859375zm9.185272 8.453125q-1.53125 0 -2.5 -0.78125q-0.953125 -0.796875 -0.953125 -2.046875q0 -1.296875 1.0 -2.0625q1.015625 -0.78125 2.734375 -0.78125q0.75 0 1.4375 0.171875q0.703125 0.15625 1.296875 0.453125l0 -1.21875q0 -1.125 -0.640625 -1.6875q-0.625 -0.578125 -1.828125 -0.578125q-0.703125 0 -1.40625 0.203125q-0.6875 0.1875 -1.53125 0.625l-0.515625 -1.0625q1.0 -0.484375 1.859375 -0.703125q0.859375 -0.234375 1.71875 -0.234375q1.765625 0 2.71875 0.84375q0.96875 0.828125 0.96875 2.40625l0 6.28125l-1.34375 0l0 -0.921875q-0.625 0.546875 -1.390625 0.828125q-0.75 0.265625 -1.625 0.265625zm-2.125 -2.859375q0 0.78125 0.65625 1.28125q0.671875 0.484375 1.703125 0.484375q0.84375 0 1.53125 -0.25q0.6875 -0.265625 1.25 -0.828125l0 -1.75q-0.578125 -0.390625 -1.234375 -0.5625q-0.65625 -0.1875 -1.46875 -0.1875q-1.109375 0 -1.78125 0.5q-0.65625 0.5 -0.65625 1.3125zm16.095398 2.6875l0 -0.984375q-0.59375 0.5625 -1.375 0.859375q-0.765625 0.28125 -1.640625 0.28125q-1.0 0 -1.859375 -0.375q-0.84375 -0.375 -1.484375 -1.015625q-0.640625 -0.65625 -1.0 -1.546875q-0.359375 -0.890625 -0.359375 -1.90625q0 -1.0 0.359375 -1.890625q0.359375 -0.890625 1.0 -1.53125q0.640625 -0.640625 1.5 -1.015625q0.875 -0.375 1.859375 -0.375q0.796875 0 1.5625 0.28125q0.78125 0.265625 1.421875 0.78125l0 -4.625l1.375 -0.3125l0 13.375l-1.359375 0zm-6.359375 -4.703125q0 0.765625 0.265625 1.4375q0.28125 0.671875 0.734375 1.15625q0.46875 0.484375 1.09375 0.765625q0.640625 0.28125 1.375 0.28125q0.875 0 1.625 -0.34375q0.765625 -0.34375 1.25 -0.96875l0 -4.625q-0.484375 -0.59375 -1.25 -0.9375q-0.765625 -0.34375 -1.625 -0.34375q-1.453125 0 -2.46875 1.03125q-1.0 1.015625 -1.0 2.546875z" fill-rule="nonzero"/><path fill="#ffffff" d="m774.00525 355.49344l67.02362 0l0 32.0l-67.02362 0z" fill-rule="evenodd"/><path fill="#194d33" d="m787.7146 378.21344l0 -13.0625l5.59375 0q1.90625 0 3.078125 1.046875q1.171875 1.03125 1.171875 2.703125q0 1.296875 -0.75 2.234375q-0.75 0.921875 -2.03125 1.28125l2.9375 5.796875l-1.59375 0l-2.796875 -5.609375l-4.171875 0l0 5.609375l-1.4375 0zm5.5 -11.765625l-4.0625 0l0 4.9375l4.0625 0q1.3125 0 2.109375 -0.671875q0.796875 -0.6875 0.796875 -1.8125q0 -1.109375 -0.796875 -1.78125q-0.796875 -0.671875 -2.109375 -0.671875zm13.582642 10.78125q-0.78125 0.578125 -1.640625 0.875q-0.84375 0.28125 -1.84375 0.28125q-1.015625 0 -1.90625 -0.375q-0.875 -0.375 -1.515625 -1.03125q-0.640625 -0.65625 -1.015625 -1.53125q-0.375 -0.890625 -0.375 -1.921875q0 -1.0 0.359375 -1.875q0.359375 -0.875 0.96875 -1.53125q0.625 -0.65625 1.46875 -1.03125q0.859375 -0.375 1.8125 -0.375q0.921875 0 1.734375 0.375q0.8125 0.375 1.390625 1.03125q0.59375 0.65625 0.9375 1.53125q0.359375 0.875 0.359375 1.875l0 0.4375l-7.671875 0q0.140625 1.375 1.125 2.296875q1.0 0.90625 2.375 0.90625q0.734375 0 1.421875 -0.21875q0.6875 -0.234375 1.15625 -0.640625l0.859375 0.921875zm-3.734375 -7.296875q-1.203125 0 -2.09375 0.828125q-0.890625 0.8125 -1.078125 2.09375l6.25 0q-0.1875 -1.21875 -1.0625 -2.0625q-0.859375 -0.859375 -2.015625 -0.859375zm9.185303 8.453125q-1.53125 0 -2.5 -0.78125q-0.953125 -0.796875 -0.953125 -2.046875q0 -1.296875 1.0 -2.0625q1.015625 -0.78125 2.734375 -0.78125q0.75 0 1.4375 0.171875q0.703125 0.15625 1.296875 0.453125l0 -1.21875q0 -1.125 -0.640625 -1.6875q-0.625 -0.578125 -1.828125 -0.578125q-0.703125 0 -1.40625 0.203125q-0.6875 0.1875 -1.53125 0.625l-0.515625 -1.0625q1.0 -0.484375 1.859375 -0.703125q0.859375 -0.234375 1.71875 -0.234375q1.765625 0 2.71875 0.84375q0.96875 0.828125 0.96875 2.40625l0 6.28125l-1.34375 0l0 -0.921875q-0.625 0.546875 -1.390625 0.828125q-0.75 0.265625 -1.625 0.265625zm-2.125 -2.859375q0 0.78125 0.65625 1.28125q0.671875 0.484375 1.703125 0.484375q0.84375 0 1.53125 -0.25q0.6875 -0.265625 1.25 -0.828125l0 -1.75q-0.578125 -0.390625 -1.234375 -0.5625q-0.65625 -0.1875 -1.46875 -0.1875q-1.109375 0 -1.78125 0.5q-0.65625 0.5 -0.65625 1.3125zm16.095398 2.6875l0 -0.984375q-0.59375 0.5625 -1.375 0.859375q-0.765625 0.28125 -1.640625 0.28125q-1.0 0 -1.859375 -0.375q-0.84375 -0.375 -1.484375 -1.015625q-0.640625 -0.65625 -1.0 -1.546875q-0.359375 -0.890625 -0.359375 -1.90625q0 -1.0 0.359375 -1.890625q0.359375 -0.890625 1.0 -1.53125q0.640625 -0.640625 1.5 -1.015625q0.875 -0.375 1.859375 -0.375q0.796875 0 1.5625 0.28125q0.78125 0.265625 1.421875 0.78125l0 -4.625l1.375 -0.3125l0 13.375l-1.359375 0zm-6.359375 -4.703125q0 0.765625 0.265625 1.4375q0.28125 0.671875 0.734375 1.15625q0.46875 0.484375 1.09375 0.765625q0.640625 0.28125 1.375 0.28125q0.875 0 1.625 -0.34375q0.765625 -0.34375 1.25 -0.96875l0 -4.625q-0.484375 -0.59375 -1.25 -0.9375q-0.765625 -0.34375 -1.625 -0.34375q-1.453125 0 -2.46875 1.03125q-1.0 1.015625 -1.0 2.546875z" fill-rule="nonzero"/></g></svg>