<?xml version="1.0" encoding="utf-8"?>
<svg fill="currentColor" height="100%" width="100%" viewBox="0 0 1200 1129.418" aria-hidden="true" role="img" style="vertical-align: -0.125em;" xmlns="http://www.w3.org/2000/svg">
  <path d="M 933.8 52.709 C 853.1 52.709 787.5 118.309 787.5 199.009 C 787.5 227.809 795.7 254.509 810.1 277.209 L 726 363.209 C 682.5 329.109 627.7 308.709 568 308.709 C 533.8 308.709 501.1 315.409 471.3 327.609 L 444.6 292.309 C 431.1 274.009 406.9 268.809 390.9 280.909 C 374.7 292.809 372.4 317.509 385.6 335.809 L 407.9 365.009 C 349.4 411.909 312 483.909 312 564.709 C 312 587.409 315 609.409 320.5 630.409 L 295 643.609 C 275.8 653.009 266.7 675.609 274.4 693.909 C 282.1 712.209 304.3 719.509 323.3 710.409 L 348.9 697.109 C 385.1 756.909 445.1 800.709 515.8 815.309 L 509.8 888.309 C 469.5 899.809 440 936.809 440 980.709 C 440 1033.709 483 1076.709 536 1076.709 C 589 1076.709 632 1033.709 632 980.709 C 632 941.009 607.9 907.009 573.6 892.409 L 579.5 820.509 C 661.3 816.909 733.2 774.809 777.4 711.909 L 845.8 758.509 C 864.1 771.109 888.1 767.609 898.8 750.709 C 909.5 733.609 903.3 709.609 884.8 697.309 L 810.6 646.809 C 819.3 621.009 824 593.409 824 564.709 C 824 509.309 806.4 458.009 776.5 416.209 L 863.4 327.509 C 884.2 338.909 908.2 345.609 933.8 345.609 C 1014.5 345.609 1080.1 280.009 1080.1 199.309 C 1080.1 118.609 1014.5 52.709 933.8 52.709 Z M 584 980.709 C 584 1007.209 562.5 1028.709 536 1028.709 C 509.5 1028.709 488 1007.209 488 980.709 C 488 954.209 509.5 932.709 536 932.709 C 562.5 932.709 584 954.209 584 980.709 Z M 568 692.709 C 497.3 692.709 440 635.409 440 564.709 C 440 494.009 497.3 436.709 568 436.709 C 638.7 436.709 696 494.009 696 564.709 C 696 635.409 638.8 692.709 568 692.709 Z M 933.8 276.709 C 890.8 276.709 856.1 242.009 856.1 199.009 C 856.1 156.009 890.8 121.309 933.8 121.309 C 976.8 121.309 1011.5 156.009 1011.5 199.009 C 1011.5 242.009 976.8 276.709 933.8 276.709 Z M 956.8 765.009 C 999.6 722.209 1069.1 722.209 1111.9 765.009 C 1133.3 786.409 1144 814.509 1144 842.609 C 1144 870.709 1133.3 898.709 1111.9 920.209 C 1069.1 963.009 999.6 963.009 956.8 920.209 C 914 877.309 914 807.909 956.8 765.009 M 312 55.009 C 372.6 55.009 421.7 104.109 421.7 164.709 C 421.7 225.309 372.6 274.409 312 274.409 C 251.4 274.409 202.3 225.309 202.3 164.709 C 202.3 104.109 251.4 55.009 312 55.009 M 152 660.709 C 205 660.709 248 703.709 248 756.709 C 248 809.709 205 852.709 152 852.709 C 99 852.709 56 809.709 56 756.709 C 56 703.709 99 660.709 152 660.709"/>
</svg>